SplineFontDB: 3.0
FontName: GordonHeightsPZFB
FullName: Gordon Heights PZFB
FamilyName: Gordon HeightsPZFB
Weight: Book
Copyright: Typeface (c) <your company>. 2008. All Rights Reserved
Version: 1.10 2017, PZFB Extensions
ItalicAngle: 0
UnderlinePosition: -142
UnderlineWidth: 73
Ascent: 800
Descent: 200
InvalidEm: 0
sfntRevision: 0x00010000
LayerCount: 5
Layer: 0 1 "Back" 1
Layer: 1 1 "Zeichen" 0
Layer: 2 0 "Back 2" 1
Layer: 3 0 "Back 3" 1
Layer: 4 0 "Back 4" 1
XUID: [1021 660 -1010005433 17734]
StyleMap: 0x0000
FSType: 8
OS2Version: 4
OS2_WeightWidthSlopeOnly: 0
OS2_UseTypoMetrics: 1
CreationTime: 1211911755
ModificationTime: 1484504630
PfmFamily: 33
TTFWeight: 400
TTFWidth: 5
LineGap: 33
VLineGap: 0
Panose: 2 0 0 0 0 0 0 0 0 0
OS2TypoAscent: 728
OS2TypoAOffset: 0
OS2TypoDescent: -210
OS2TypoDOffset: 0
OS2TypoLinegap: 150
OS2WinAscent: 916
OS2WinAOffset: 0
OS2WinDescent: 415
OS2WinDOffset: 0
HheadAscent: 916
HheadAOffset: 0
HheadDescent: -415
HheadDOffset: 0
OS2SubXSize: 700
OS2SubYSize: 650
OS2SubXOff: 0
OS2SubYOff: 138
OS2SupXSize: 700
OS2SupYSize: 650
OS2SupXOff: 0
OS2SupYOff: 477
OS2StrikeYSize: 50
OS2StrikeYPos: 259
OS2Vendor: 'HL  '
OS2CodePages: 00000001.00000000
OS2UnicodeRanges: 00000003.00000000.00000000.00000000
Lookup: 4 0 0 "'liga' Standard Ligatures lookup 0" { "'liga' Standard Ligatures lookup 0-1"  } ['liga' ('DFLT' <'dflt' > 'cyrl' <'dflt' > 'grek' <'dflt' > 'latn' <'dflt' > ) ]
Lookup: 258 0 0 "'kern' Horizontales Kerning lookup 0" { "'kern' Horizontales Kerning lookup 0-1" [150,15,0] } ['kern' ('DFLT' <'dflt' > 'cyrl' <'dflt' > 'grek' <'dflt' > 'latn' <'dflt' > ) ]
MarkAttachClasses: 1
DEI: 91125
KernClass2: 20 13 "'kern' Horizontales Kerning lookup 0-1"
 1 W
 1 V
 1 T
 1 Y
 1 X
 1 B
 1 R
 1 f
 1 t
 1 i
 1 j
 1 k
 1 l
 1 P
 1 e
 1 b
 1 r
 1 c
 1 p
 1 a
 1 o
 1 u
 1 e
 9 adieresis
 9 odieresis
 9 udieresis
 1 j
 1 g
 1 i
 1 t
 1 f

StartChar: .notdef
Encoding: 65536 -1 0
Width: 702
Flags: W
LayerCount: 5
Fore
SplineSet
173 681 m 1,0,1
 184 681 184 681 199 677 c 1,2,3
 205 671 205 671 210 662 c 1,4,-1
 212 535 l 1,5,-1
 390 535 l 1,6,7
 394 544 394 544 396 554 c 2,8,-1
 396 638 l 1,9,-1
 398 664 l 1,10,-1
 412 677 l 1,11,-1
 417 681 l 1,12,-1
 435 679 l 1,13,14
 443 674 443 674 451 667 c 1,15,16
 455 657 455 657 457 644 c 1,17,-1
 457 535 l 1,18,-1
 568 535 l 2,19,20
 578 534 578 534 589 529 c 1,21,22
 595 523 595 523 601 513 c 1,23,-1
 603 500 l 1,24,-1
 601 496 l 1,25,-1
 599 490 l 1,26,-1
 583 478 l 1,27,-1
 457 476 l 1,28,-1
 457 298 l 1,29,30
 463 291 463 291 474 291 c 2,31,-1
 583 289 l 1,32,-1
 599 275 l 1,33,-1
 603 259 l 1,34,-1
 601 253 l 1,35,-1
 589 238 l 1,36,37
 579 234 579 234 566 232 c 2,38,-1
 457 232 l 1,39,-1
 457 121 l 2,40,41
 456 111 456 111 451 99 c 1,42,-1
 437 85 l 1,43,44
 425 85 425 85 412 89 c 1,45,-1
 398 103 l 1,46,-1
 396 232 l 1,47,-1
 220 232 l 1,48,49
 213 226 213 226 212 214 c 2,50,-1
 210 105 l 1,51,52
 205 97 205 97 197 89 c 1,53,54
 187 86 187 86 173 85 c 1,55,-1
 158 99 l 1,56,57
 155 109 155 109 154 123 c 2,58,-1
 154 232 l 1,59,-1
 42 232 l 1,60,-1
 19 236 l 1,61,-1
 7 251 l 1,62,63
 7 262 7 262 11 277 c 1,64,65
 17 283 17 283 27 289 c 1,66,-1
 154 291 l 1,67,-1
 154 468 l 1,68,69
 148 475 148 475 136 476 c 2,70,-1
 27 478 l 1,71,72
 19 483 19 483 11 492 c 1,73,74
 8 502 8 502 7 515 c 1,75,-1
 21 531 l 1,76,77
 31 534 31 534 44 535 c 2,78,-1
 154 535 l 1,79,-1
 154 646 l 1,80,-1
 158 669 l 1,81,-1
 173 681 l 1,0,1
212 476 m 1,82,-1
 212 291 l 1,83,-1
 396 291 l 1,84,-1
 396 476 l 1,85,-1
 212 476 l 1,82,-1
229 703 m 1,86,-1
 303 701 l 1,87,-1
 363 688 l 1,88,-1
 416 666 l 1,89,-1
 459 635 l 1,90,-1
 492 594 l 1,91,-1
 498 580 l 1,92,-1
 496 564 l 1,93,94
 487 554 487 554 475 547 c 1,95,96
 460 548 460 548 447 557 c 1,97,-1
 432 578 l 1,98,-1
 391 611 l 1,99,-1
 365 625 l 1,100,-1
 309 641 l 1,101,-1
 240 645 l 1,102,-1
 240 643 l 1,103,-1
 207 641 l 1,104,-1
 207 639 l 1,105,106
 193 638 193 638 176 633 c 2,107,-1
 148 623 l 1,108,-1
 104 594 l 1,109,-1
 84 576 l 1,110,111
 77 566 77 566 70 553 c 2,112,-1
 61 525 l 1,113,-1
 61 496 l 1,114,-1
 72 465 l 1,115,-1
 90 443 l 1,116,-1
 109 426 l 1,117,-1
 158 400 l 1,118,-1
 186 391 l 2,119,120
 200 387 200 387 217 385 c 2,121,-1
 320 377 l 1,122,-1
 379 361 l 1,123,-1
 428 336 l 1,124,-1
 469 303 l 1,125,-1
 486 283 l 1,126,-1
 512 232 l 1,127,-1
 518 201 l 1,128,-1
 516 166 l 1,129,-1
 508 137 l 1,130,-1
 496 111 l 1,131,-1
 480 90 l 1,132,-1
 441 55 l 1,133,-1
 369 16 l 1,134,-1
 309 2 l 1,135,-1
 236 0 l 2,136,137
 222 0 222 0 203 4 c 2,138,-1
 170 10 l 1,139,-1
 92 43 l 1,140,-1
 51 76 l 1,141,-1
 18 117 l 1,142,-1
 8 145 l 2,143,144
 4 159 4 159 2 176 c 2,145,-1
 0 203 l 1,146,-1
 2 209 l 1,147,148
 11 219 11 219 23 227 c 1,149,150
 37 227 37 227 53 219 c 1,151,152
 58 206 58 206 61 189 c 2,153,-1
 66 158 l 1,154,-1
 78 133 l 1,155,-1
 117 98 l 1,156,-1
 168 72 l 1,157,-1
 195 64 l 1,158,-1
 258 59 l 1,159,-1
 299 61 l 1,160,-1
 330 66 l 1,161,-1
 383 88 l 1,162,-1
 406 102 l 1,163,-1
 443 139 l 1,164,-1
 453 166 l 1,165,-1
 457 199 l 1,166,-1
 449 229 l 1,167,-1
 436 252 l 1,168,-1
 416 270 l 2,169,170
 407 278 407 278 395 285 c 2,171,-1
 371 299 l 1,172,-1
 314 316 l 1,173,-1
 211 324 l 1,174,-1
 150 338 l 1,175,-1
 100 361 l 1,176,-1
 57 393 l 1,177,-1
 23 434 l 1,178,-1
 10 459 l 1,179,-1
 2 488 l 1,180,-1
 0 523 l 1,181,-1
 6 555 l 1,182,-1
 16 582 l 1,183,-1
 49 623 l 1,184,-1
 88 658 l 1,185,-1
 166 691 l 2,186,187
 180 695 180 695 197 697 c 2,188,-1
 229 703 l 1,86,-1
248 783 m 1,189,190
 267 781 267 781 283 766 c 1,191,192
 287 740 287 740 287 710 c 2,193,-1
 287 -62 l 1,194,195
 280 -79 280 -79 265 -93 c 1,196,197
 247 -91 247 -91 230 -76 c 1,198,199
 226 -50 226 -50 226 -20 c 2,200,-1
 226 751 l 1,201,202
 233 769 233 769 248 783 c 1,189,190
137 758 m 1,203,-1
 182 758 l 1,204,205
 198 755 198 755 215 748 c 0,206,207
 229 742 229 742 244 732 c 1,208,-1
 287 688 l 1,209,-1
 314 627 l 1,210,-1
 322 592 l 1,211,-1
 322 547 l 1,212,-1
 314 512 l 2,213,214
 311 496 311 496 303 479 c 0,215,216
 298 467 298 467 287 451 c 2,217,-1
 268 426 l 1,218,-1
 244 404 l 1,219,-1
 217 389 l 1,220,221
 203 384 203 384 184 379 c 1,222,-1
 150 377 l 1,223,-1
 143 379 l 2,224,225
 126 381 126 381 107 389 c 0,226,227
 94 394 94 394 80 404 c 2,228,-1
 57 424 l 2,229,230
 48 434 48 434 37 449 c 2,231,-1
 20 477 l 1,232,233
 14 491 14 491 8 508 c 2,234,-1
 0 543 l 1,235,-1
 0 588 l 1,236,-1
 6 625 l 1,237,-1
 18 658 l 2,238,239
 24 670 24 670 35 686 c 2,240,-1
 53 711 l 1,241,-1
 104 748 l 1,242,-1
 137 758 l 1,203,-1
488 740 m 1,243,-1
 516 738 l 2,244,245
 516 736 516 736 520 734 c 0,246,247
 528 722 528 722 529 707 c 1,248,-1
 248 258 l 2,249,250
 241 247 241 247 234 234 c 2,251,-1
 119 57 l 2,252,253
 112 48 112 48 102 39 c 1,254,255
 87 39 87 39 72 45 c 1,256,257
 66 56 66 56 62 70 c 1,258,259
 67 82 67 82 76 96 c 2,260,-1
 301 453 l 2,261,262
 308 464 308 464 314 477 c 2,263,-1
 471 721 l 1,264,-1
 488 740 l 1,243,-1
146 699 m 1,265,-1
 123 691 l 1,266,-1
 105 680 l 1,267,-1
 92 666 l 1,268,-1
 70 629 l 1,269,-1
 62 607 l 1,270,-1
 59 582 l 1,271,-1
 59 553 l 1,272,-1
 62 527 l 1,273,-1
 80 486 l 1,274,-1
 107 455 l 1,275,-1
 148 438 l 1,276,-1
 178 438 l 1,277,-1
 199 445 l 1,278,-1
 217 457 l 1,279,-1
 242 488 l 1,280,-1
 260 529 l 1,281,-1
 264 555 l 1,282,-1
 264 584 l 1,283,-1
 260 609 l 1,284,-1
 242 650 l 1,285,-1
 215 682 l 1,286,-1
 174 699 l 1,287,-1
 146 699 l 1,265,-1
404 322 m 1,288,-1
 381 314 l 1,289,-1
 363 303 l 1,290,-1
 350 289 l 1,291,-1
 328 252 l 1,292,-1
 320 229 l 1,293,-1
 318 174 l 1,294,-1
 322 148 l 1,295,-1
 330 127 l 1,296,-1
 340 109 l 1,297,-1
 367 78 l 1,298,-1
 385 66 l 1,299,-1
 408 61 l 1,300,-1
 438 61 l 1,301,-1
 459 68 l 1,302,-1
 475 80 l 1,303,-1
 490 96 l 1,304,-1
 502 111 l 1,305,-1
 512 131 l 1,306,-1
 521 180 l 1,307,-1
 521 209 l 1,308,-1
 518 234 l 1,309,-1
 500 275 l 1,310,-1
 488 291 l 1,311,-1
 455 316 l 1,312,-1
 432 322 l 1,313,-1
 404 322 l 1,288,-1
219 703 m 1,314,-1
 256 703 l 1,315,-1
 285 697 l 1,316,-1
 311 688 l 1,317,-1
 332 674 l 1,318,-1
 352 656 l 1,319,-1
 381 615 l 1,320,321
 385 602 385 602 385 588 c 1,322,323
 379 577 379 577 365 570 c 1,324,-1
 348 568 l 1,325,-1
 338 576 l 1,326,-1
 309 617 l 1,327,328
 300 624 300 624 287 631 c 1,329,-1
 262 641 l 1,330,-1
 230 645 l 1,331,-1
 203 639 l 1,332,-1
 180 625 l 1,333,-1
 162 607 l 1,334,-1
 146 586 l 1,335,-1
 139 561 l 1,336,-1
 139 523 l 1,337,-1
 148 498 l 1,338,-1
 162 477 l 1,339,-1
 180 459 l 1,340,341
 190 453 190 453 203 447 c 1,342,-1
 268 441 l 1,343,-1
 287 426 l 1,344,-1
 289 410 l 1,345,-1
 285 395 l 1,346,347
 275 388 275 388 262 383 c 1,348,-1
 230 387 l 1,349,-1
 197 385 l 1,350,-1
 168 379 l 1,351,-1
 143 367 l 1,352,-1
 104 336 l 1,353,-1
 74 295 l 1,354,-1
 64 270 l 1,355,-1
 59 238 l 1,356,-1
 59 205 l 1,357,-1
 64 174 l 1,358,-1
 74 148 l 1,359,-1
 104 107 l 1,360,-1
 123 92 l 2,361,362
 132 85 132 85 145 78 c 2,363,-1
 168 66 l 1,364,-1
 195 59 l 1,365,-1
 230 59 l 2,366,367
 245 58 245 58 264 62 c 2,368,-1
 289 70 l 1,369,-1
 312 84 l 1,370,-1
 332 100 l 1,371,-1
 363 139 l 1,372,-1
 375 162 l 1,373,-1
 383 189 l 1,374,-1
 385 223 l 1,375,-1
 385 307 l 1,376,-1
 363 307 l 1,377,378
 352 312 352 312 342 322 c 1,379,-1
 338 344 l 1,380,-1
 342 350 l 1,381,382
 351 359 351 359 363 365 c 1,383,-1
 385 365 l 1,384,-1
 385 449 l 1,385,386
 391 460 391 460 400 471 c 1,387,-1
 426 473 l 1,388,-1
 432 471 l 1,389,-1
 445 449 l 1,390,-1
 445 365 l 1,391,-1
 465 363 l 1,392,393
 478 359 478 359 490 352 c 1,394,395
 494 339 494 339 494 324 c 1,396,397
 487 313 487 313 477 305 c 1,398,-1
 461 303 l 1,399,-1
 457 305 l 1,400,-1
 445 305 l 1,401,-1
 445 207 l 1,402,-1
 443 201 l 1,403,-1
 439 170 l 1,404,-1
 420 119 l 1,405,-1
 406 96 l 1,406,-1
 355 41 l 1,407,-1
 309 16 l 1,408,-1
 283 6 l 1,409,-1
 254 0 l 1,410,-1
 188 0 l 1,411,-1
 133 18 l 1,412,-1
 88 43 l 1,413,-1
 53 78 l 1,414,-1
 23 121 l 1,415,-1
 12 145 l 1,416,-1
 4 172 l 1,417,-1
 0 240 l 1,418,-1
 4 271 l 1,419,-1
 12 299 l 1,420,-1
 37 346 l 1,421,-1
 68 383 l 1,422,-1
 107 416 l 1,423,424
 117 420 117 420 125 430 c 1,425,-1
 96 471 l 1,426,-1
 84 496 l 1,427,-1
 78 545 l 1,428,-1
 86 588 l 1,429,-1
 96 613 l 1,430,-1
 109 637 l 1,431,-1
 125 654 l 2,432,433
 133 663 133 663 145 672 c 0,434,435
 154 679 154 679 166 686 c 2,436,-1
 189 697 l 1,437,-1
 219 703 l 1,314,-1
336 703 m 1,438,439
 355 704 355 704 371 688 c 1,440,-1
 438 514 l 2,441,442
 442 499 442 499 451 480 c 1,443,-1
 529 270 l 2,444,445
 534 255 534 255 543 236 c 1,446,-1
 607 61 l 2,447,448
 614 44 614 44 617 21 c 1,449,450
 608 7 608 7 590 0 c 1,451,452
 572 3 572 3 561 20 c 1,453,-1
 547 55 l 2,454,455
 542 70 542 70 533 88 c 1,456,-1
 508 160 l 1,457,-1
 490 162 l 1,458,-1
 154 162 l 1,459,-1
 88 10 l 1,460,461
 78 5 78 5 66 0 c 1,462,-1
 51 2 l 1,463,464
 38 14 38 14 33 33 c 1,465,-1
 62 100 l 2,466,467
 70 115 70 115 76 135 c 1,468,-1
 90 160 l 1,469,-1
 84 162 l 1,470,-1
 37 162 l 2,471,472
 18 163 18 163 4 178 c 1,473,474
 1 188 1 188 0 201 c 1,475,-1
 10 213 l 1,476,477
 28 220 28 220 51 221 c 2,478,-1
 100 221 l 2,479,480
 119 222 119 222 125 242 c 2,481,-1
 154 309 l 2,482,483
 161 324 161 324 168 344 c 1,484,-1
 213 441 l 2,485,486
 219 457 219 457 229 477 c 2,487,-1
 314 676 l 2,488,489
 321 690 321 690 336 703 c 1,438,439
342 594 m 1,490,491
 338 578 338 578 328 562 c 1,492,-1
 266 414 l 2,493,494
 260 403 260 403 252 385 c 2,495,-1
 180 221 l 1,496,-1
 484 221 l 1,497,-1
 436 350 l 2,498,499
 432 365 432 365 424 381 c 1,500,501
 420 396 420 396 412 412 c 1,502,503
 408 427 408 427 400 443 c 0,504,505
 396 457 396 457 389 473 c 1,506,507
 386 488 386 488 377 504 c 1,508,-1
 355 566 l 1,509,-1
 342 594 l 1,490,491
20 703 m 1,510,-1
 479 703 l 1,511,512
 488 698 488 698 496 689 c 1,513,514
 499 677 499 677 500 664 c 1,515,516
 493 655 493 655 482 646 c 1,517,-1
 61 645 l 1,518,-1
 59 287 l 1,519,520
 68 280 68 280 82 279 c 2,521,-1
 473 279 l 1,522,523
 484 275 484 275 494 268 c 1,524,525
 499 258 499 258 500 244 c 1,526,527
 495 234 495 234 486 225 c 1,528,-1
 457 221 l 1,529,-1
 64 221 l 1,530,531
 60 209 60 209 59 195 c 1,532,-1
 59 64 l 1,533,534
 71 60 71 60 84 59 c 2,535,-1
 477 59 l 1,536,537
 487 54 487 54 496 45 c 1,538,539
 499 33 499 33 500 20 c 1,540,-1
 484 2 l 1,541,542
 470 0 470 0 453 0 c 2,543,-1
 29 0 l 1,544,545
 17 3 17 3 6 10 c 1,546,547
 2 23 2 23 0 37 c 1,548,-1
 0 658 l 2,549,550
 0 672 0 672 4 688 c 1,551,552
 11 696 11 696 20 703 c 1,510,-1
21 703 m 1,553,554
 36 703 36 703 51 693 c 1,555,-1
 500 115 l 1,556,-1
 502 145 l 1,557,-1
 502 676 l 1,558,-1
 504 682 l 2,559,560
 510 694 510 694 523 701 c 1,561,-1
 541 703 l 1,562,-1
 553 695 l 1,563,564
 558 682 558 682 562 666 c 1,565,-1
 561 21 l 1,566,567
 555 10 555 10 541 2 c 1,568,-1
 521 0 l 1,569,-1
 512 8 l 1,570,-1
 61 586 l 1,571,-1
 59 25 l 1,572,-1
 57 20 l 1,573,574
 50 10 50 10 39 0 c 1,575,576
 23 0 23 0 8 8 c 1,577,578
 1 21 1 21 0 39 c 2,579,-1
 0 678 l 1,580,-1
 2 684 l 1,581,582
 8 694 8 694 21 703 c 1,553,554
EndSplineSet
Validated: 37
EndChar

StartChar: exclam
Encoding: 33 33 4
Width: 299
Flags: W
LayerCount: 5
Fore
SplineSet
68 764 m 1,0,-1
 96 762 l 1,1,-1
 102 758 l 1,2,3
 108 744 108 744 109 727 c 2,4,-1
 109 232 l 1,5,6
 101 223 101 223 90 215 c 1,7,-1
 70 213 l 1,8,-1
 61 221 l 1,9,10
 55 234 55 234 51 250 c 1,11,-1
 51 744 l 1,12,13
 58 754 58 754 68 764 c 1,0,-1
61 162 m 1,14,-1
 84 162 l 1,15,-1
 100 160 l 1,16,-1
 129 148 l 1,17,-1
 146 127 l 2,18,19
 154 116 154 116 160 100 c 1,20,-1
 162 80 l 1,21,-1
 160 74 l 1,22,-1
 160 68 l 1,23,-1
 158 62 l 2,24,25
 154 49 154 49 146 35 c 1,26,27
 138 26 138 26 127 16 c 0,28,29
 115 8 115 8 100 2 c 1,30,-1
 68 0 l 1,31,-1
 62 2 l 2,32,33
 49 6 49 6 35 16 c 1,34,-1
 14 35 l 1,35,-1
 2 62 l 1,36,37
 0 76 0 76 0 94 c 1,38,-1
 2 100 l 2,39,40
 5 114 5 114 14 129 c 1,41,-1
 35 148 l 1,42,-1
 61 162 l 1,14,-1
EndSplineSet
Validated: 1
EndChar

StartChar: quotedbl
Encoding: 34 34 5
Width: 449
Flags: W
LayerCount: 5
Fore
SplineSet
60 747 m 1,0,-1
 89 747 l 1,1,-1
 110 741 l 1,2,-1
 130 731 l 1,3,-1
 144 715 l 1,4,-1
 153 698 l 2,5,6
 157 688 157 688 159 674 c 1,7,-1
 161 668 l 1,8,-1
 159 651 l 1,9,-1
 151 629 l 1,10,-1
 142 612 l 1,11,-1
 42 514 l 1,12,13
 33 509 33 509 21 506 c 1,14,15
 14 512 14 512 7 522 c 1,16,17
 9 532 9 532 15 542 c 1,18,-1
 58 584 l 1,19,-1
 24 606 l 1,20,-1
 13 622 l 1,21,-1
 3 641 l 1,22,23
 0 653 0 653 -1 667 c 0,24,25
 0 679 0 679 3 692 c 1,26,-1
 11 711 l 1,27,-1
 40 739 l 1,28,-1
 60 747 l 1,0,-1
255 747 m 1,29,-1
 284 747 l 1,30,-1
 308 741 l 1,31,-1
 325 729 l 1,32,-1
 339 715 l 1,33,-1
 349 698 l 2,34,35
 353 688 353 688 354 674 c 2,36,-1
 356 661 l 1,37,-1
 354 655 l 1,38,-1
 354 649 l 1,39,-1
 347 629 l 1,40,-1
 321 596 l 1,41,-1
 235 512 l 1,42,43
 226 507 226 507 214 504 c 1,44,45
 207 510 207 510 200 520 c 1,46,47
 202 531 202 531 208 542 c 1,48,-1
 251 583 l 1,49,50
 245 589 245 589 237 594 c 2,51,-1
 222 606 l 2,52,53
 215 613 215 613 208 622 c 1,54,-1
 198 641 l 1,55,56
 196 651 196 651 194 665 c 1,57,-1
 196 692 l 1,58,-1
 206 709 l 1,59,-1
 220 725 l 2,60,61
 226 731 226 731 235 737 c 2,62,-1
 255 747 l 1,29,-1
EndSplineSet
Validated: 1
EndChar

StartChar: numbersign
Encoding: 35 35 6
Width: 702
Flags: W
LayerCount: 5
Fore
SplineSet
173 681 m 1,0,1
 184 681 184 681 199 677 c 1,2,3
 205 671 205 671 210 662 c 1,4,-1
 212 535 l 1,5,-1
 390 535 l 1,6,7
 394 544 394 544 396 554 c 2,8,-1
 396 638 l 1,9,-1
 398 664 l 1,10,-1
 412 677 l 1,11,-1
 417 681 l 1,12,-1
 435 679 l 1,13,14
 443 674 443 674 451 667 c 1,15,16
 455 657 455 657 457 644 c 1,17,-1
 457 535 l 1,18,-1
 568 535 l 2,19,20
 578 534 578 534 589 529 c 1,21,22
 595 523 595 523 601 513 c 1,23,-1
 603 500 l 1,24,-1
 601 496 l 1,25,-1
 599 490 l 1,26,-1
 583 478 l 1,27,-1
 457 476 l 1,28,-1
 457 298 l 1,29,30
 463 291 463 291 474 291 c 2,31,-1
 583 289 l 1,32,-1
 599 275 l 1,33,-1
 603 259 l 1,34,-1
 601 253 l 1,35,-1
 589 238 l 1,36,37
 579 234 579 234 566 232 c 2,38,-1
 457 232 l 1,39,-1
 457 121 l 2,40,41
 456 111 456 111 451 99 c 1,42,-1
 437 85 l 1,43,44
 425 85 425 85 412 89 c 1,45,-1
 398 103 l 1,46,-1
 396 232 l 1,47,-1
 220 232 l 1,48,49
 213 226 213 226 212 214 c 2,50,-1
 210 105 l 1,51,52
 205 97 205 97 197 89 c 1,53,54
 187 86 187 86 173 85 c 1,55,-1
 158 99 l 1,56,57
 155 109 155 109 154 123 c 2,58,-1
 154 232 l 1,59,-1
 42 232 l 1,60,-1
 19 236 l 1,61,-1
 7 251 l 1,62,63
 7 262 7 262 11 277 c 1,64,65
 17 283 17 283 27 289 c 1,66,-1
 154 291 l 1,67,-1
 154 468 l 1,68,69
 148 475 148 475 136 476 c 2,70,-1
 27 478 l 1,71,72
 19 483 19 483 11 492 c 1,73,74
 8 502 8 502 7 515 c 1,75,-1
 21 531 l 1,76,77
 31 534 31 534 44 535 c 2,78,-1
 154 535 l 1,79,-1
 154 646 l 1,80,-1
 158 669 l 1,81,-1
 173 681 l 1,0,1
212 476 m 1,82,-1
 212 291 l 1,83,-1
 396 291 l 1,84,-1
 396 476 l 1,85,-1
 212 476 l 1,82,-1
EndSplineSet
Validated: 1
EndChar

StartChar: dollar
Encoding: 36 36 7
Width: 607
Flags: W
LayerCount: 5
Fore
SplineSet
229 703 m 1,0,-1
 303 701 l 1,1,-1
 363 688 l 1,2,-1
 416 666 l 1,3,-1
 459 635 l 1,4,-1
 492 594 l 1,5,-1
 498 580 l 1,6,-1
 496 564 l 1,7,8
 487 554 487 554 475 547 c 1,9,10
 460 548 460 548 447 557 c 1,11,-1
 432 578 l 1,12,-1
 391 611 l 1,13,-1
 365 625 l 1,14,-1
 309 641 l 1,15,-1
 240 645 l 1,16,-1
 240 643 l 1,17,-1
 207 641 l 1,18,-1
 207 639 l 1,19,20
 193 638 193 638 176 633 c 2,21,-1
 148 623 l 1,22,-1
 104 594 l 1,23,-1
 84 576 l 1,24,25
 77 566 77 566 70 553 c 2,26,-1
 61 525 l 1,27,-1
 61 496 l 1,28,-1
 72 465 l 1,29,-1
 90 443 l 1,30,-1
 109 426 l 1,31,-1
 158 400 l 1,32,-1
 186 391 l 2,33,34
 200 387 200 387 217 385 c 2,35,-1
 320 377 l 1,36,-1
 379 361 l 1,37,-1
 428 336 l 1,38,-1
 469 303 l 1,39,-1
 486 283 l 1,40,-1
 512 232 l 1,41,-1
 518 201 l 1,42,-1
 516 166 l 1,43,-1
 508 137 l 1,44,-1
 496 111 l 1,45,-1
 480 90 l 1,46,-1
 441 55 l 1,47,-1
 369 16 l 1,48,-1
 309 2 l 1,49,-1
 236 0 l 2,50,51
 222 0 222 0 203 4 c 2,52,-1
 170 10 l 1,53,-1
 92 43 l 1,54,-1
 51 76 l 1,55,-1
 18 117 l 1,56,-1
 8 145 l 2,57,58
 4 159 4 159 2 176 c 2,59,-1
 0 203 l 1,60,-1
 2 209 l 1,61,62
 11 219 11 219 23 227 c 1,63,64
 37 227 37 227 53 219 c 1,65,66
 58 206 58 206 61 189 c 2,67,-1
 66 158 l 1,68,-1
 78 133 l 1,69,-1
 117 98 l 1,70,-1
 168 72 l 1,71,-1
 195 64 l 1,72,-1
 258 59 l 1,73,-1
 299 61 l 1,74,-1
 330 66 l 1,75,-1
 383 88 l 1,76,-1
 406 102 l 1,77,-1
 443 139 l 1,78,-1
 453 166 l 1,79,-1
 457 199 l 1,80,-1
 449 229 l 1,81,-1
 436 252 l 1,82,-1
 416 270 l 2,83,84
 407 278 407 278 395 285 c 2,85,-1
 371 299 l 1,86,-1
 314 316 l 1,87,-1
 211 324 l 1,88,-1
 150 338 l 1,89,-1
 100 361 l 1,90,-1
 57 393 l 1,91,-1
 23 434 l 1,92,-1
 10 459 l 1,93,-1
 2 488 l 1,94,-1
 0 523 l 1,95,-1
 6 555 l 1,96,-1
 16 582 l 1,97,-1
 49 623 l 1,98,-1
 88 658 l 1,99,-1
 166 691 l 2,100,101
 180 695 180 695 197 697 c 2,102,-1
 229 703 l 1,0,-1
248 783 m 1,103,104
 267 781 267 781 283 766 c 1,105,106
 287 740 287 740 287 710 c 2,107,-1
 287 -62 l 1,108,109
 280 -79 280 -79 265 -93 c 1,110,111
 247 -91 247 -91 230 -76 c 1,112,113
 226 -50 226 -50 226 -20 c 2,114,-1
 226 751 l 1,115,116
 233 769 233 769 248 783 c 1,103,104
EndSplineSet
Validated: 5
EndChar

StartChar: percent
Encoding: 37 37 8
Width: 698
Flags: W
LayerCount: 5
Fore
SplineSet
137 758 m 1,0,-1
 182 758 l 1,1,2
 198 755 198 755 215 748 c 0,3,4
 229 742 229 742 244 732 c 1,5,-1
 287 688 l 1,6,-1
 314 627 l 1,7,-1
 322 592 l 1,8,-1
 322 547 l 1,9,-1
 314 512 l 2,10,11
 311 496 311 496 303 479 c 0,12,13
 298 467 298 467 287 451 c 2,14,-1
 268 426 l 1,15,-1
 244 404 l 1,16,-1
 217 389 l 1,17,18
 203 384 203 384 184 379 c 1,19,-1
 150 377 l 1,20,-1
 143 379 l 2,21,22
 126 381 126 381 107 389 c 0,23,24
 94 394 94 394 80 404 c 2,25,-1
 57 424 l 2,26,27
 48 434 48 434 37 449 c 2,28,-1
 20 477 l 1,29,30
 14 491 14 491 8 508 c 2,31,-1
 0 543 l 1,32,-1
 0 588 l 1,33,-1
 6 625 l 1,34,-1
 18 658 l 2,35,36
 24 670 24 670 35 686 c 2,37,-1
 53 711 l 1,38,-1
 104 748 l 1,39,-1
 137 758 l 1,0,-1
488 740 m 1,40,-1
 516 738 l 2,41,42
 516 736 516 736 520 734 c 0,43,44
 528 722 528 722 529 707 c 1,45,-1
 248 258 l 2,46,47
 241 247 241 247 234 234 c 2,48,-1
 119 57 l 2,49,50
 112 48 112 48 102 39 c 1,51,52
 87 39 87 39 72 45 c 1,53,54
 66 56 66 56 62 70 c 1,55,56
 67 82 67 82 76 96 c 2,57,-1
 301 453 l 2,58,59
 308 464 308 464 314 477 c 2,60,-1
 471 721 l 1,61,-1
 488 740 l 1,40,-1
146 699 m 1,62,-1
 123 691 l 1,63,-1
 105 680 l 1,64,-1
 92 666 l 1,65,-1
 70 629 l 1,66,-1
 62 607 l 1,67,-1
 59 582 l 1,68,-1
 59 553 l 1,69,-1
 62 527 l 1,70,-1
 80 486 l 1,71,-1
 107 455 l 1,72,-1
 148 438 l 1,73,-1
 178 438 l 1,74,-1
 199 445 l 1,75,-1
 217 457 l 1,76,-1
 242 488 l 1,77,-1
 260 529 l 1,78,-1
 264 555 l 1,79,-1
 264 584 l 1,80,-1
 260 609 l 1,81,-1
 242 650 l 1,82,-1
 215 682 l 1,83,-1
 174 699 l 1,84,-1
 146 699 l 1,62,-1
395 381 m 1,85,-1
 439 381 l 1,86,87
 455 378 455 378 473 371 c 0,88,89
 487 366 487 366 502 355 c 1,90,-1
 525 336 l 1,91,-1
 545 311 l 2,92,93
 553 300 553 300 561 283 c 0,94,95
 568 269 568 269 572 250 c 0,96,97
 577 233 577 233 580 213 c 2,98,-1
 582 189 l 1,99,-1
 580 174 l 2,100,101
 579 156 579 156 574 135 c 0,102,103
 570 120 570 120 562 104 c 2,104,-1
 547 74 l 1,105,-1
 527 51 l 2,106,107
 519 41 519 41 504 29 c 2,108,-1
 477 12 l 1,109,110
 464 7 464 7 443 2 c 1,111,-1
 410 0 l 1,112,-1
 402 2 l 2,113,114
 387 4 387 4 367 10 c 1,115,-1
 338 25 l 1,116,-1
 295 70 l 1,117,-1
 266 129 l 1,118,-1
 258 191 l 1,119,-1
 260 207 l 2,120,121
 260 226 260 226 266 246 c 0,122,123
 269 262 269 262 277 279 c 2,124,-1
 291 309 l 1,125,-1
 334 354 l 1,126,127
 346 362 346 362 361 369 c 1,128,-1
 395 381 l 1,85,-1
404 322 m 1,129,-1
 381 314 l 1,130,-1
 363 303 l 1,131,-1
 350 289 l 1,132,-1
 328 252 l 1,133,-1
 320 229 l 1,134,-1
 318 174 l 1,135,-1
 322 148 l 1,136,-1
 330 127 l 1,137,-1
 340 109 l 1,138,-1
 367 78 l 1,139,-1
 385 66 l 1,140,-1
 408 61 l 1,141,-1
 438 61 l 1,142,-1
 459 68 l 1,143,-1
 475 80 l 1,144,-1
 490 96 l 1,145,-1
 502 111 l 1,146,-1
 512 131 l 1,147,-1
 521 180 l 1,148,-1
 521 209 l 1,149,-1
 518 234 l 1,150,-1
 500 275 l 1,151,-1
 488 291 l 1,152,-1
 455 316 l 1,153,-1
 432 322 l 1,154,-1
 404 322 l 1,129,-1
EndSplineSet
Validated: 1
EndChar

StartChar: ampersand
Encoding: 38 38 9
Width: 588
Flags: W
LayerCount: 5
Fore
SplineSet
219 703 m 1,0,-1
 256 703 l 1,1,-1
 285 697 l 1,2,-1
 311 688 l 1,3,-1
 332 674 l 1,4,-1
 352 656 l 1,5,-1
 381 615 l 1,6,7
 385 602 385 602 385 588 c 1,8,9
 379 577 379 577 365 570 c 1,10,-1
 348 568 l 1,11,-1
 338 576 l 1,12,-1
 309 617 l 1,13,14
 300 624 300 624 287 631 c 1,15,-1
 262 641 l 1,16,-1
 230 645 l 1,17,-1
 203 639 l 1,18,-1
 180 625 l 1,19,-1
 162 607 l 1,20,-1
 146 586 l 1,21,-1
 139 561 l 1,22,-1
 139 523 l 1,23,-1
 148 498 l 1,24,-1
 162 477 l 1,25,-1
 180 459 l 1,26,27
 190 453 190 453 203 447 c 1,28,-1
 268 441 l 1,29,-1
 287 426 l 1,30,-1
 289 410 l 1,31,-1
 285 395 l 1,32,33
 275 388 275 388 262 383 c 1,34,-1
 230 387 l 1,35,-1
 197 385 l 1,36,-1
 168 379 l 1,37,-1
 143 367 l 1,38,-1
 104 336 l 1,39,-1
 74 295 l 1,40,-1
 64 270 l 1,41,-1
 59 238 l 1,42,-1
 59 205 l 1,43,-1
 64 174 l 1,44,-1
 74 148 l 1,45,-1
 104 107 l 1,46,-1
 123 92 l 2,47,48
 132 85 132 85 145 78 c 2,49,-1
 168 66 l 1,50,-1
 195 59 l 1,51,-1
 230 59 l 2,52,53
 245 58 245 58 264 62 c 2,54,-1
 289 70 l 1,55,-1
 312 84 l 1,56,-1
 332 100 l 1,57,-1
 363 139 l 1,58,-1
 375 162 l 1,59,-1
 383 189 l 1,60,-1
 385 223 l 1,61,-1
 385 307 l 1,62,-1
 363 307 l 1,63,64
 352 312 352 312 342 322 c 1,65,-1
 338 344 l 1,66,-1
 342 350 l 1,67,68
 351 359 351 359 363 365 c 1,69,-1
 385 365 l 1,70,-1
 385 449 l 1,71,72
 391 460 391 460 400 471 c 1,73,-1
 426 473 l 1,74,-1
 432 471 l 1,75,-1
 445 449 l 1,76,-1
 445 365 l 1,77,-1
 465 363 l 1,78,79
 478 359 478 359 490 352 c 1,80,81
 494 339 494 339 494 324 c 1,82,83
 487 313 487 313 477 305 c 1,84,-1
 461 303 l 1,85,-1
 457 305 l 1,86,-1
 445 305 l 1,87,-1
 445 207 l 1,88,-1
 443 201 l 1,89,-1
 439 170 l 1,90,-1
 420 119 l 1,91,-1
 406 96 l 1,92,-1
 355 41 l 1,93,-1
 309 16 l 1,94,-1
 283 6 l 1,95,-1
 254 0 l 1,96,-1
 188 0 l 1,97,-1
 133 18 l 1,98,-1
 88 43 l 1,99,-1
 53 78 l 1,100,-1
 23 121 l 1,101,-1
 12 145 l 1,102,-1
 4 172 l 1,103,-1
 0 240 l 1,104,-1
 4 271 l 1,105,-1
 12 299 l 1,106,-1
 37 346 l 1,107,-1
 68 383 l 1,108,-1
 107 416 l 1,109,110
 117 420 117 420 125 430 c 1,111,-1
 96 471 l 1,112,-1
 84 496 l 1,113,-1
 78 545 l 1,114,-1
 86 588 l 1,115,-1
 96 613 l 1,116,-1
 109 637 l 1,117,-1
 125 654 l 2,118,119
 133 663 133 663 145 672 c 0,120,121
 154 679 154 679 166 686 c 2,122,-1
 189 697 l 1,123,-1
 219 703 l 1,0,-1
EndSplineSet
Validated: 33
EndChar

StartChar: quotesingle
Encoding: 39 39 10
Width: 262
Flags: W
LayerCount: 5
Fore
SplineSet
60 747 m 1,0,-1
 89 747 l 1,1,-1
 112 741 l 1,2,-1
 130 729 l 1,3,-1
 144 715 l 1,4,-1
 153 698 l 2,5,6
 157 688 157 688 159 674 c 2,7,-1
 161 661 l 1,8,-1
 159 655 l 1,9,-1
 159 649 l 1,10,-1
 151 629 l 1,11,-1
 126 596 l 1,12,-1
 40 512 l 1,13,14
 31 507 31 507 19 504 c 1,15,16
 12 510 12 510 5 520 c 1,17,18
 7 531 7 531 13 542 c 1,19,-1
 56 583 l 1,20,21
 50 589 50 589 42 594 c 2,22,-1
 26 606 l 2,23,24
 19 613 19 613 13 622 c 1,25,-1
 3 641 l 1,26,27
 1 651 1 651 -1 665 c 1,28,-1
 1 692 l 1,29,-1
 11 709 l 1,30,-1
 24 725 l 2,31,32
 30 731 30 731 40 737 c 2,33,-1
 60 747 l 1,0,-1
EndSplineSet
Validated: 1
EndChar

StartChar: parenleft
Encoding: 40 40 11
Width: 333
Flags: W
LayerCount: 5
Fore
SplineSet
177 796 m 1,0,-1
 194 796 l 1,1,-1
 210 788 l 1,2,-1
 218 771 l 1,3,-1
 216 759 l 1,4,-1
 140 636 l 1,5,-1
 128 610 l 2,6,7
 122 598 122 598 116 581 c 2,8,-1
 85 495 l 1,9,-1
 67 394 l 1,10,-1
 69 282 l 1,11,-1
 81 216 l 1,12,-1
 122 99 l 1,13,-1
 210 -52 l 1,14,-1
 218 -69 l 1,15,-1
 216 -81 l 1,16,17
 210 -92 210 -92 196 -101 c 1,18,-1
 183 -103 l 1,19,-1
 177 -101 l 1,20,-1
 167 -93 l 1,21,-1
 77 54 l 1,22,-1
 32 167 l 1,23,-1
 11 265 l 1,24,-1
 7 325 l 1,25,-1
 5 331 l 1,26,-1
 5 362 l 1,27,-1
 7 368 l 1,28,-1
 7 401 l 1,29,-1
 9 411 l 1,30,-1
 13 448 l 1,31,-1
 21 479 l 2,32,33
 22 493 22 493 28 511 c 2,34,-1
 69 628 l 1,35,-1
 157 776 l 1,36,-1
 177 796 l 1,0,-1
EndSplineSet
Validated: 1
EndChar

StartChar: parenright
Encoding: 41 41 12
Width: 333
Flags: W
LayerCount: 5
Fore
SplineSet
20 801 m 1,0,1
 36 801 36 801 51 791 c 1,2,-1
 141 645 l 1,3,-1
 186 531 l 1,4,-1
 207 434 l 1,5,-1
 211 373 l 1,6,-1
 213 367 l 1,7,-1
 213 334 l 1,8,-1
 211 330 l 1,9,-1
 197 219 l 1,10,-1
 135 45 l 1,11,-1
 92 -31 l 1,12,13
 84 -41 84 -41 76 -55 c 1,14,-1
 59 -76 l 2,15,16
 53 -87 53 -87 39 -96 c 1,17,18
 32 -97 32 -97 23 -98 c 1,19,-1
 8 -90 l 1,20,-1
 0 -72 l 1,21,-1
 2 -59 l 1,22,-1
 76 62 l 1,23,-1
 113 145 l 1,24,-1
 123 174 l 2,25,26
 126 188 126 188 133 205 c 1,27,-1
 150 305 l 1,28,-1
 150 336 l 1,29,-1
 152 342 l 1,30,-1
 137 482 l 1,31,-1
 84 627 l 1,32,-1
 10 750 l 2,33,34
 1 763 1 763 0 781 c 1,35,-1
 20 801 l 1,0,1
EndSplineSet
Validated: 1
EndChar

StartChar: asterisk
Encoding: 42 42 13
Width: 458
Flags: W
LayerCount: 5
Fore
SplineSet
105 923 m 1,0,-1
 138 923 l 1,1,-1
 144 919 l 2,2,3
 155 910 155 910 166 898 c 1,4,-1
 173 863 l 2,5,6
 175 848 175 848 181 830 c 2,7,-1
 187 804 l 1,8,-1
 191 812 l 1,9,-1
 208 876 l 2,10,11
 211 890 211 890 222 906 c 1,12,13
 232 916 232 916 248 923 c 1,14,-1
 271 923 l 1,15,-1
 283 916 l 1,16,17
 293 906 293 906 300 890 c 1,18,-1
 302 882 l 1,19,-1
 298 861 l 1,20,-1
 294 857 l 1,21,-1
 277 833 l 1,22,-1
 226 779 l 1,23,-1
 242 783 l 1,24,-1
 304 806 l 1,25,-1
 333 810 l 1,26,-1
 339 808 l 1,27,-1
 363 789 l 1,28,-1
 369 759 l 1,29,-1
 367 753 l 2,30,31
 362 740 362 740 349 730 c 1,32,33
 335 722 335 722 316 720 c 1,34,-1
 220 744 l 2,35,36
 220 742 220 742 224 740 c 2,37,-1
 287 675 l 1,38,39
 295 664 295 664 298 646 c 1,40,41
 295 630 295 630 287 615 c 1,42,43
 274 608 274 608 255 603 c 1,44,45
 240 605 240 605 224 615 c 1,46,47
 215 626 215 626 208 642 c 2,48,-1
 191 708 l 1,49,-1
 189 722 l 1,50,-1
 183 705 l 2,51,52
 177 691 177 691 173 671 c 1,53,54
 168 658 168 658 164 640 c 0,55,56
 159 628 159 628 148 613 c 1,57,58
 134 606 134 606 115 603 c 1,59,60
 101 605 101 605 85 617 c 1,61,62
 77 629 77 629 72 646 c 1,63,64
 75 662 75 662 83 677 c 1,65,-1
 162 746 l 1,66,-1
 80 724 l 1,67,-1
 74 720 l 1,68,-1
 48 720 l 1,69,-1
 42 722 l 2,70,71
 27 727 27 727 15 738 c 1,72,73
 9 753 9 753 7 773 c 1,74,75
 13 786 13 786 23 798 c 1,76,77
 36 807 36 807 54 810 c 1,78,79
 70 809 70 809 89 802 c 1,80,81
 102 796 102 796 121 791 c 1,82,83
 133 785 133 785 150 779 c 1,84,-1
 89 843 l 2,85,86
 80 854 80 854 74 871 c 1,87,-1
 74 888 l 1,88,-1
 82 904 l 1,89,90
 90 914 90 914 105 923 c 1,0,-1
EndSplineSet
Validated: 1
EndChar

StartChar: plus
Encoding: 43 43 14
Width: 626
Flags: W
LayerCount: 5
Fore
SplineSet
218 583 m 1,0,-1
 243 582 l 1,1,-1
 257 568 l 1,2,-1
 259 408 l 1,3,4
 265 401 265 401 276 400 c 2,5,-1
 411 400 l 1,6,-1
 431 394 l 1,7,8
 438 388 438 388 442 378 c 0,9,10
 443 371 443 371 444 363 c 1,11,-1
 440 357 l 2,12,13
 435 350 435 350 427 343 c 1,14,15
 417 340 417 340 403 339 c 2,16,-1
 269 339 l 1,17,18
 259 335 259 335 259 324 c 2,19,-1
 259 189 l 2,20,21
 258 179 258 179 253 167 c 1,22,-1
 239 156 l 1,23,-1
 224 154 l 1,24,-1
 202 169 l 1,25,-1
 200 330 l 1,26,27
 196 340 196 340 185 339 c 2,28,-1
 50 339 l 2,29,30
 40 340 40 340 28 345 c 1,31,32
 22 350 22 350 17 359 c 1,33,-1
 15 376 l 1,34,-1
 17 382 l 1,35,36
 22 389 22 389 30 396 c 1,37,-1
 54 400 l 1,38,-1
 188 400 l 2,39,40
 198 401 198 401 200 414 c 2,41,-1
 200 548 l 2,42,43
 201 559 201 559 204 570 c 1,44,-1
 218 583 l 1,0,-1
EndSplineSet
Validated: 1
EndChar

StartChar: comma
Encoding: 44 44 15
Width: 310
Flags: W
LayerCount: 5
Fore
SplineSet
38 160 m 1,0,-1
 67 160 l 1,1,-1
 91 154 l 1,2,-1
 108 142 l 1,3,-1
 122 128 l 1,4,-1
 132 109 l 2,5,6
 135 99 135 99 138 85 c 1,7,-1
 136 60 l 1,8,-1
 128 39 l 1,9,-1
 15 -77 l 1,10,11
 6 -80 6 -80 -7 -81 c 1,12,13
 -13 -74 -13 -74 -19 -63 c 1,14,15
 -14 -53 -14 -53 -7 -45 c 2,16,-1
 36 -2 l 1,17,-1
 3 19 l 1,18,-1
 -11 35 l 1,19,-1
 -21 54 l 1,20,-1
 -24 80 l 1,21,-1
 -21 103 l 1,22,23
 -17 112 -17 112 -11 123 c 2,24,-1
 1 140 l 1,25,-1
 19 152 l 1,26,-1
 38 160 l 1,0,-1
EndSplineSet
Validated: 1
EndChar

StartChar: hyphen
Encoding: 45 45 16
AltUni2: 0000ad.ffffffff.0
Width: 491
Flags: W
LayerCount: 5
Fore
SplineSet
-17 393 m 1,0,-1
 334 393 l 2,1,2
 345 393 345 393 360 389 c 1,3,-1
 374 374 l 1,4,5
 374 363 374 363 370 348 c 1,6,-1
 354 334 l 1,7,-1
 2 334 l 2,8,9
 -9 334 -9 334 -23 338 c 1,10,-1
 -37 354 l 1,11,12
 -36 365 -36 365 -33 379 c 1,13,-1
 -17 393 l 1,0,-1
EndSplineSet
Validated: 1
EndChar

StartChar: period
Encoding: 46 46 17
Width: 328
Flags: W
LayerCount: 5
Fore
SplineSet
79 157 m 0,0,1
 99 157 99 157 117.5 147 c 128,-1,2
 136 137 136 137 146.5 118 c 128,-1,3
 157 99 157 99 157 79 c 256,4,5
 157 58 157 58 147 39.5 c 128,-1,6
 137 21 137 21 118 10.5 c 128,-1,7
 99 0 99 0 79 0 c 256,8,9
 58 0 58 0 39.5 10.5 c 128,-1,10
 21 21 21 21 10.5 39.5 c 128,-1,11
 0 58 0 58 0 79 c 256,12,13
 0 100 0 100 10.5 118.5 c 128,-1,14
 21 137 21 137 40 147 c 128,-1,15
 59 157 59 157 79 157 c 0,0,1
EndSplineSet
Validated: 1
EndChar

StartChar: slash
Encoding: 47 47 18
Width: 371
Flags: W
LayerCount: 5
Fore
SplineSet
133 799 m 1,0,1
 146 799 146 799 161 792 c 1,2,3
 167 782 167 782 170 768 c 1,4,-1
 75 -54 l 2,5,6
 73 -67 73 -67 67 -82 c 1,7,-1
 49 -95 l 1,8,9
 36 -93 36 -93 24 -87 c 1,10,11
 17 -76 17 -76 12 -64 c 1,12,-1
 108 758 l 2,13,14
 110 771 110 771 116 786 c 1,15,-1
 133 799 l 1,0,1
EndSplineSet
Validated: 1
EndChar

StartChar: zero
Encoding: 48 48 19
Width: 684
Flags: W
LayerCount: 5
Fore
SplineSet
264 703 m 1,0,-1
 305 703 l 2,1,2
 321 703 321 703 342 699 c 1,3,-1
 402 680 l 1,4,-1
 430 666 l 1,5,-1
 492 609 l 1,6,-1
 527 562 l 1,7,-1
 566 480 l 1,8,-1
 582 416 l 1,9,-1
 584 381 l 1,10,-1
 586 381 l 1,11,-1
 584 301 l 1,12,-1
 570 234 l 1,13,-1
 533 150 l 1,14,-1
 480 82 l 1,15,-1
 438 45 l 1,16,-1
 387 16 l 1,17,-1
 322 0 l 1,18,-1
 250 2 l 1,19,-1
 184 23 l 1,20,-1
 135 55 l 1,21,-1
 76 117 l 1,22,-1
 59 141 l 1,23,-1
 45 166 l 2,24,25
 37 177 37 177 31 193 c 0,26,27
 25 206 25 206 20 223 c 2,28,-1
 10 252 l 1,29,-1
 4 287 l 1,30,-1
 0 363 l 1,31,-1
 8 436 l 2,32,33
 10 451 10 451 16 469 c 2,34,-1
 37 527 l 1,35,-1
 51 555 l 1,36,-1
 104 623 l 1,37,-1
 146 660 l 1,38,-1
 199 688 l 1,39,-1
 230 697 l 1,40,41
 245 699 245 699 264 703 c 1,0,-1
277 645 m 1,42,-1
 223 633 l 1,43,-1
 180 609 l 1,44,-1
 143 578 l 1,45,-1
 102 521 l 1,46,-1
 80 477 l 1,47,-1
 61 396 l 1,48,-1
 59 334 l 1,49,-1
 72 250 l 1,50,-1
 92 201 l 1,51,-1
 115 160 l 1,52,-1
 146 125 l 2,53,54
 154 117 154 117 164 109 c 2,55,-1
 182 94 l 1,56,-1
 201 82 l 1,57,-1
 225 72 l 2,58,59
 236 68 236 68 250 64 c 2,60,-1
 277 59 l 1,61,-1
 309 59 l 1,62,-1
 363 72 l 1,63,-1
 385 82 l 1,64,-1
 424 109 l 1,65,-1
 471 162 l 1,66,-1
 482 184 l 2,67,68
 488 193 488 193 494 205 c 0,69,70
 499 215 499 215 504 229 c 2,71,-1
 514 250 l 1,72,-1
 525 307 l 1,73,-1
 527 336 l 1,74,-1
 527 369 l 1,75,-1
 514 453 l 1,76,-1
 504 477 l 2,77,78
 500 489 500 489 494 500 c 0,79,80
 490 511 490 511 482 521 c 2,81,-1
 471 543 l 1,82,-1
 424 596 l 1,83,-1
 406 609 l 1,84,-1
 363 633 l 1,85,-1
 309 645 l 1,86,-1
 277 645 l 1,42,-1
EndSplineSet
Validated: 1
EndChar

StartChar: one
Encoding: 49 49 20
Width: 236
Flags: W
LayerCount: 5
Fore
SplineSet
21 703 m 1,0,1
 40 701 40 701 57 689 c 1,2,3
 61 668 61 668 61 645 c 2,4,-1
 61 25 l 1,5,6
 54 11 54 11 39 0 c 1,7,8
 21 1 21 1 4 14 c 1,9,10
 0 35 0 35 0 59 c 2,11,-1
 0 678 l 1,12,13
 6 691 6 691 21 703 c 1,0,1
EndSplineSet
Validated: 1
EndChar

StartChar: two
Encoding: 50 50 21
Width: 531
Flags: W
LayerCount: 5
Fore
SplineSet
217 705 m 1,0,-1
 246 705 l 1,1,-1
 293 695 l 1,2,-1
 330 674 l 1,3,-1
 371 631 l 1,4,-1
 389 592 l 1,5,-1
 398 545 l 1,6,-1
 398 516 l 1,7,-1
 391 467 l 1,8,-1
 352 363 l 1,9,-1
 236 195 l 1,10,-1
 113 62 l 1,11,-1
 133 59 l 1,12,-1
 330 59 l 1,13,14
 339 56 339 56 350 49 c 1,15,16
 354 39 354 39 357 27 c 1,17,-1
 348 8 l 1,18,19
 339 3 339 3 326 0 c 1,20,-1
 43 0 l 2,21,22
 33 1 33 1 21 6 c 1,23,24
 15 13 15 13 10 23 c 1,25,26
 11 35 11 35 16 47 c 1,27,-1
 207 254 l 1,28,-1
 277 354 l 1,29,-1
 316 428 l 1,30,-1
 324 447 l 1,31,-1
 336 492 l 1,32,-1
 338 545 l 1,33,-1
 336 545 l 1,34,-1
 332 570 l 1,35,-1
 324 590 l 1,36,-1
 299 623 l 1,37,-1
 283 635 l 1,38,-1
 262 641 l 1,39,-1
 234 643 l 1,40,-1
 189 633 l 1,41,-1
 152 613 l 1,42,-1
 92 561 l 1,43,-1
 53 514 l 2,44,45
 46 508 46 508 35 502 c 1,46,47
 23 503 23 503 12 508 c 1,48,49
 6 515 6 515 0 525 c 1,50,51
 1 537 1 537 6 549 c 1,52,-1
 43 596 l 1,53,-1
 59 609 l 2,54,55
 65 616 65 616 72 623 c 2,56,-1
 135 674 l 1,57,-1
 172 693 l 1,58,-1
 217 705 l 1,0,-1
EndSplineSet
Validated: 1
EndChar

StartChar: three
Encoding: 51 51 22
Width: 521
Flags: W
LayerCount: 5
Fore
SplineSet
186 703 m 1,0,-1
 217 703 l 1,1,-1
 266 693 l 1,2,-1
 307 674 l 1,3,-1
 336 645 l 1,4,-1
 361 609 l 1,5,-1
 377 564 l 1,6,-1
 379 537 l 2,7,8
 380 530 380 530 381 521 c 1,9,-1
 379 518 l 1,10,-1
 379 512 l 1,11,-1
 375 486 l 1,12,-1
 367 463 l 1,13,-1
 357 443 l 1,14,-1
 314 396 l 1,15,16
 316 390 316 390 322 385 c 2,17,-1
 355 357 l 1,18,-1
 369 340 l 2,19,20
 375 333 375 333 381 324 c 2,21,-1
 402 285 l 1,22,-1
 410 262 l 1,23,-1
 416 209 l 1,24,-1
 410 156 l 1,25,-1
 383 94 l 1,26,-1
 369 78 l 2,27,28
 363 70 363 70 354 62 c 2,29,-1
 340 47 l 1,30,-1
 283 14 l 1,31,-1
 262 6 l 1,32,-1
 207 0 l 1,33,-1
 154 6 l 1,34,-1
 109 21 l 1,35,-1
 43 74 l 1,36,-1
 10 131 l 1,37,-1
 2 152 l 1,38,-1
 0 172 l 1,39,-1
 2 178 l 1,40,41
 8 186 8 186 18 193 c 1,42,-1
 37 195 l 1,43,-1
 43 193 l 1,44,-1
 57 176 l 1,45,-1
 74 133 l 1,46,-1
 86 115 l 1,47,-1
 115 88 l 1,48,-1
 154 66 l 1,49,-1
 178 61 l 1,50,-1
 205 59 l 1,51,-1
 234 61 l 1,52,-1
 256 66 l 1,53,-1
 277 76 l 1,54,-1
 312 102 l 1,55,-1
 338 135 l 1,56,-1
 348 154 l 1,57,-1
 357 203 l 1,58,-1
 352 256 l 1,59,-1
 342 277 l 2,60,61
 337 286 337 286 330 295 c 2,62,-1
 318 312 l 1,63,-1
 303 326 l 1,64,-1
 264 348 l 1,65,-1
 242 355 l 1,66,-1
 217 359 l 2,67,68
 206 361 206 361 193 367 c 1,69,-1
 186 389 l 1,70,71
 189 399 189 399 195 410 c 1,72,73
 204 415 204 415 217 418 c 0,74,75
 229 420 229 420 242 424 c 2,76,-1
 264 432 l 1,77,-1
 279 443 l 1,78,-1
 295 459 l 1,79,-1
 307 477 l 2,80,81
 311 486 311 486 314 498 c 0,82,83
 317 508 317 508 320 521 c 1,84,-1
 320 551 l 1,85,-1
 312 574 l 1,86,-1
 303 594 l 1,87,-1
 289 609 l 2,88,89
 282 616 282 616 273 623 c 2,90,-1
 256 635 l 1,91,-1
 232 643 l 1,92,-1
 205 645 l 1,93,-1
 180 641 l 2,94,95
 170 639 170 639 158 633 c 0,96,97
 149 629 149 629 139 623 c 2,98,-1
 121 609 l 1,99,-1
 109 594 l 1,100,-1
 100 572 l 1,101,-1
 94 549 l 2,102,103
 90 539 90 539 82 529 c 1,104,105
 73 524 73 524 61 521 c 1,106,107
 52 525 52 525 41 533 c 1,108,109
 37 543 37 543 35 557 c 1,110,-1
 49 602 l 1,111,-1
 59 623 l 1,112,113
 65 631 65 631 70 641 c 1,114,-1
 86 656 l 1,115,-1
 119 682 l 1,116,-1
 139 691 l 1,117,-1
 186 703 l 1,0,-1
EndSplineSet
Validated: 1
EndChar

StartChar: four
Encoding: 52 52 23
Width: 570
Flags: W
LayerCount: 5
Fore
SplineSet
299 703 m 1,0,1
 313 701 313 701 328 695 c 1,2,3
 333 682 333 682 336 666 c 1,4,-1
 336 182 l 1,5,-1
 422 182 l 1,6,-1
 426 180 l 1,7,8
 439 178 439 178 449 166 c 1,9,10
 452 156 452 156 453 143 c 1,11,-1
 449 137 l 1,12,13
 440 129 440 129 428 121 c 1,14,-1
 336 121 l 1,15,-1
 336 33 l 1,16,17
 334 20 334 20 326 8 c 1,18,19
 314 2 314 2 301 0 c 1,20,21
 290 6 290 6 279 16 c 1,22,-1
 277 121 l 1,23,-1
 23 121 l 1,24,25
 13 127 13 127 4 137 c 1,26,-1
 0 150 l 1,27,-1
 4 166 l 1,28,-1
 279 686 l 1,29,-1
 299 703 l 1,0,1
275 553 m 1,30,-1
 90 203 l 2,31,32
 85 194 85 194 84 182 c 1,33,-1
 277 182 l 1,34,-1
 277 553 l 1,35,-1
 275 553 l 1,30,-1
EndSplineSet
Validated: 1
EndChar

StartChar: five
Encoding: 53 53 24
Width: 556
Flags: W
LayerCount: 5
Fore
SplineSet
68 703 m 1,0,-1
 377 703 l 1,1,2
 387 698 387 698 396 689 c 1,3,-1
 400 670 l 1,4,-1
 398 664 l 1,5,6
 393 656 393 656 385 648 c 1,7,-1
 357 645 l 1,8,-1
 111 645 l 1,9,-1
 107 617 l 1,10,-1
 107 449 l 1,11,-1
 246 449 l 1,12,-1
 273 445 l 1,13,-1
 318 430 l 1,14,-1
 357 406 l 1,15,-1
 375 393 l 1,16,-1
 404 359 l 1,17,-1
 428 322 l 1,18,-1
 438 301 l 1,19,-1
 447 250 l 1,20,-1
 447 191 l 1,21,-1
 434 143 l 1,22,-1
 414 102 l 1,23,-1
 369 53 l 1,24,-1
 354 39 l 1,25,-1
 312 18 l 1,26,-1
 268 2 l 1,27,-1
 207 0 l 1,28,-1
 156 10 l 1,29,-1
 133 18 l 1,30,-1
 94 41 l 1,31,-1
 61 70 l 1,32,-1
 21 123 l 1,33,34
 18 133 18 133 12 145 c 1,35,-1
 2 195 l 1,36,-1
 0 217 l 1,37,-1
 2 225 l 1,38,39
 7 233 7 233 16 240 c 1,40,-1
 35 244 l 1,41,-1
 41 242 l 1,42,43
 49 235 49 235 57 225 c 1,44,-1
 66 174 l 1,45,-1
 74 150 l 1,46,-1
 86 131 l 1,47,-1
 100 115 l 2,48,49
 107 107 107 107 115 100 c 2,50,-1
 131 86 l 1,51,-1
 150 74 l 1,52,-1
 199 61 l 1,53,-1
 227 59 l 1,54,-1
 256 61 l 1,55,-1
 279 66 l 1,56,-1
 320 88 l 1,57,-1
 352 117 l 1,58,-1
 365 135 l 1,59,-1
 377 156 l 1,60,-1
 385 178 l 1,61,-1
 391 234 l 1,62,-1
 387 260 l 2,63,64
 385 271 385 271 379 283 c 2,65,-1
 371 305 l 1,66,-1
 344 340 l 1,67,-1
 328 355 l 1,68,-1
 289 379 l 1,69,-1
 238 389 l 1,70,-1
 88 391 l 2,71,72
 75 392 75 392 61 396 c 1,73,74
 55 403 55 403 49 414 c 1,75,-1
 49 660 l 2,76,77
 49 674 49 674 53 688 c 1,78,79
 59 696 59 696 68 703 c 1,0,-1
EndSplineSet
Validated: 1
EndChar

StartChar: six
Encoding: 54 54 25
Width: 556
Flags: W
LayerCount: 5
Fore
SplineSet
301 705 m 1,0,1
 316 703 316 703 330 691 c 1,2,-1
 336 680 l 1,3,-1
 332 658 l 1,4,-1
 205 492 l 2,5,6
 199 484 199 484 199 475 c 1,7,-1
 238 479 l 1,8,-1
 277 477 l 1,9,-1
 311 469 l 1,10,-1
 369 443 l 1,11,-1
 414 406 l 1,12,-1
 451 357 l 1,13,-1
 475 299 l 1,14,-1
 482 223 l 1,15,-1
 467 154 l 1,16,-1
 438 100 l 1,17,-1
 396 57 l 1,18,-1
 348 23 l 1,19,20
 334 19 334 19 318 12 c 1,21,-1
 283 4 l 2,22,23
 266 1 266 1 246 0 c 2,24,-1
 213 0 l 2,25,26
 210 1 210 1 205 2 c 2,27,-1
 172 10 l 1,28,-1
 143 21 l 2,29,30
 130 26 130 26 115 37 c 2,31,-1
 68 74 l 1,32,-1
 49 96 l 1,33,-1
 18 148 l 1,34,35
 15 162 15 162 8 180 c 1,36,-1
 0 256 l 1,37,-1
 6 291 l 1,38,-1
 29 352 l 1,39,-1
 45 377 l 1,40,-1
 279 686 l 2,41,42
 288 696 288 696 301 705 c 1,0,1
217 418 m 1,43,-1
 180 408 l 2,44,45
 165 403 165 403 148 395 c 2,46,-1
 121 377 l 1,47,-1
 82 324 l 1,48,49
 75 310 75 310 68 293 c 0,50,51
 62 277 62 277 61 256 c 2,52,-1
 59 236 l 1,53,-1
 61 215 l 1,54,-1
 70 180 l 1,55,-1
 84 148 l 1,56,-1
 104 121 l 1,57,-1
 127 100 l 1,58,-1
 154 82 l 2,59,60
 168 75 168 75 186 68 c 0,61,62
 202 62 202 62 223 61 c 2,63,-1
 242 59 l 1,64,-1
 264 61 l 1,65,-1
 301 68 l 1,66,-1
 332 82 l 1,67,-1
 359 102 l 1,68,-1
 381 123 l 1,69,-1
 400 150 l 1,70,-1
 414 182 l 1,71,-1
 422 219 l 1,72,-1
 422 264 l 1,73,-1
 412 299 l 2,74,75
 408 313 408 313 398 330 c 2,76,-1
 381 357 l 1,77,-1
 357 379 l 1,78,-1
 330 396 l 1,79,-1
 299 410 l 1,80,-1
 262 418 l 1,81,-1
 217 418 l 1,43,-1
EndSplineSet
Validated: 1
EndChar

StartChar: seven
Encoding: 55 55 26
Width: 509
Flags: W
LayerCount: 5
Fore
SplineSet
20 703 m 1,0,-1
 373 703 l 1,1,-1
 381 701 l 1,2,3
 394 690 394 690 398 672 c 1,4,5
 394 657 394 657 387 639 c 2,6,-1
 309 445 l 2,7,8
 304 430 304 430 295 412 c 2,9,-1
 270 348 l 2,10,11
 265 333 265 333 256 314 c 2,12,-1
 230 250 l 2,13,14
 225 235 225 235 217 217 c 2,15,-1
 191 152 l 2,16,17
 185 138 185 138 180 119 c 1,18,19
 173 106 173 106 166 88 c 2,20,-1
 141 21 l 1,21,22
 132 9 132 9 117 0 c 1,23,24
 100 0 100 0 86 14 c 1,25,-1
 80 35 l 1,26,-1
 100 80 l 2,27,28
 105 95 105 95 113 113 c 2,29,-1
 139 178 l 2,30,31
 144 193 144 193 152 211 c 2,32,-1
 178 275 l 2,33,34
 184 289 184 289 189 309 c 1,35,36
 196 322 196 322 203 340 c 2,37,-1
 229 406 l 1,38,39
 236 418 236 418 242 438 c 2,40,-1
 320 631 l 1,41,-1
 324 645 l 1,42,-1
 59 645 l 1,43,-1
 59 566 l 1,44,45
 55 549 55 549 39 539 c 1,46,-1
 23 537 l 1,47,-1
 18 539 l 1,48,-1
 6 547 l 1,49,50
 1 565 1 565 0 588 c 2,51,-1
 0 678 l 1,52,53
 6 691 6 691 20 703 c 1,0,-1
EndSplineSet
Validated: 1
EndChar

StartChar: eight
Encoding: 56 56 27
Width: 488
Flags: W
LayerCount: 5
Fore
SplineSet
174 703 m 1,0,-1
 196 703 l 1,1,-1
 211 701 l 2,2,3
 225 701 225 701 241 696 c 0,4,5
 253 692 253 692 268 683 c 2,6,-1
 288 667 l 1,7,-1
 307 648 l 1,8,-1
 324 626 l 1,9,-1
 335 600 l 1,10,-1
 343 572 l 1,11,-1
 343 534 l 1,12,-1
 335 504 l 1,13,-1
 322 478 l 1,14,-1
 307 457 l 1,15,-1
 288 438 l 1,16,-1
 266 421 l 1,17,-1
 239 410 l 1,18,-1
 211 402 l 1,19,-1
 174 402 l 1,20,-1
 144 410 l 2,21,22
 132 414 132 414 117 423 c 0,23,24
 107 429 107 429 97 438 c 2,25,-1
 78 457 l 1,26,-1
 61 479 l 1,27,-1
 49 506 l 1,28,-1
 42 534 l 1,29,-1
 42 572 l 1,30,-1
 49 602 l 1,31,-1
 61 628 l 1,32,-1
 78 650 l 1,33,-1
 97 669 l 1,34,-1
 119 685 l 1,35,-1
 146 696 l 1,36,-1
 174 703 l 1,0,-1
183 647 m 1,37,-1
 162 641 l 2,38,39
 155 639 155 639 147 634 c 0,40,41
 133 627 133 627 121 613 c 0,42,43
 111 601 111 601 104 583 c 1,44,45
 99 563 99 563 99 542 c 1,46,-1
 104 522 l 2,47,48
 106 515 106 515 111 508 c 0,49,50
 119 494 119 494 132 481 c 0,51,52
 145 471 145 471 162 464 c 1,53,54
 181 459 181 459 204 459 c 1,55,-1
 223 462 l 1,56,-1
 237 472 l 2,57,58
 250 480 250 480 264 493 c 1,59,60
 274 506 274 506 281 522 c 1,61,62
 286 541 286 541 287 564 c 1,63,64
 283 579 283 579 275 598 c 1,65,-1
 254 624 l 1,66,67
 241 633 241 633 224 641 c 1,68,69
 205 646 205 646 183 647 c 1,37,-1
162 385 m 1,70,-1
 211 385 l 1,71,72
 230 383 230 383 252 377 c 1,73,-1
 285 363 l 1,74,-1
 314 344 l 1,75,-1
 340 320 l 1,76,-1
 359 291 l 2,77,78
 367 278 367 278 375 260 c 1,79,-1
 385 221 l 1,80,-1
 387 189 l 1,81,-1
 385 182 l 1,82,-1
 385 176 l 2,83,84
 384 157 384 157 377 137 c 2,85,-1
 363 102 l 1,86,-1
 344 74 l 2,87,88
 335 62 335 62 320 49 c 2,89,-1
 293 27 l 1,90,-1
 260 12 l 1,91,-1
 223 2 l 1,92,-1
 182 0 l 1,93,-1
 176 2 l 1,94,-1
 135 8 l 1,95,96
 121 13 121 13 104 23 c 0,97,98
 89 30 89 30 74 43 c 0,99,100
 62 52 62 52 49 66 c 0,101,102
 39 77 39 77 27 94 c 1,103,-1
 12 125 l 1,104,-1
 2 164 l 1,105,-1
 0 203 l 1,106,-1
 2 209 l 1,107,108
 3 227 3 227 8 250 c 1,109,-1
 21 285 l 1,110,-1
 41 312 l 1,111,-1
 92 359 l 1,112,-1
 162 385 l 1,70,-1
172 326 m 1,113,-1
 145 318 l 2,114,115
 134 314 134 314 123 307 c 0,116,117
 113 302 113 302 104 293 c 1,118,-1
 74 256 l 1,119,-1
 64 232 l 1,120,-1
 61 203 l 1,121,-1
 61 170 l 1,122,-1
 78 121 l 1,123,-1
 94 104 l 2,124,125
 101 96 101 96 111 88 c 2,126,-1
 131 74 l 1,127,-1
 154 64 l 1,128,-1
 184 61 l 1,129,-1
 217 61 l 1,130,-1
 242 68 l 2,131,132
 253 73 253 73 264 80 c 2,133,-1
 283 94 l 1,134,-1
 312 131 l 1,135,-1
 322 154 l 1,136,-1
 326 184 l 1,137,-1
 326 215 l 1,138,-1
 318 242 l 1,139,-1
 309 264 l 1,140,-1
 277 299 l 1,141,-1
 256 312 l 1,142,-1
 232 322 l 1,143,-1
 205 326 l 1,144,-1
 172 326 l 1,113,-1
EndSplineSet
Validated: 1
EndChar

StartChar: nine
Encoding: 57 57 28
Width: 556
Flags: W
LayerCount: 5
Fore
SplineSet
227 705 m 1,0,-1
 303 697 l 1,1,-1
 361 672 l 1,2,-1
 408 637 l 1,3,-1
 430 615 l 1,4,-1
 447 592 l 1,5,-1
 473 533 l 1,6,-1
 480 498 l 1,7,-1
 482 459 l 1,8,-1
 479 422 l 2,9,10
 476 407 476 407 469 391 c 2,11,-1
 457 359 l 1,12,-1
 209 25 l 2,13,14
 201 14 201 14 189 4 c 1,15,-1
 170 0 l 1,16,-1
 158 8 l 1,17,-1
 146 23 l 1,18,-1
 148 37 l 1,19,-1
 289 229 l 1,20,-1
 279 230 l 1,21,-1
 275 229 l 1,22,-1
 219 227 l 1,23,-1
 211 229 l 1,24,25
 196 230 196 230 176 234 c 1,26,-1
 146 246 l 2,27,28
 133 250 133 250 119 260 c 2,29,-1
 94 275 l 1,30,-1
 70 295 l 1,31,-1
 51 316 l 1,32,-1
 20 369 l 1,33,-1
 2 436 l 1,34,-1
 0 475 l 1,35,-1
 4 512 l 1,36,-1
 14 545 l 1,37,-1
 27 572 l 2,38,39
 32 584 32 584 43 600 c 2,40,-1
 80 645 l 1,41,-1
 131 678 l 1,42,-1
 191 699 l 1,43,-1
 227 705 l 1,0,-1
217 645 m 1,44,-1
 180 635 l 1,45,-1
 148 621 l 1,46,-1
 121 602 l 1,47,-1
 100 578 l 1,48,-1
 82 551 l 1,49,-1
 68 520 l 2,50,51
 63 504 63 504 61 482 c 2,52,-1
 59 463 l 1,53,-1
 61 441 l 1,54,-1
 70 404 l 1,55,-1
 84 373 l 2,56,57
 91 361 91 361 104 348 c 0,58,59
 113 336 113 336 127 326 c 1,60,61
 138 316 138 316 154 307 c 1,62,-1
 186 293 l 1,63,-1
 223 285 l 1,64,-1
 258 285 l 1,65,-1
 266 287 l 2,66,67
 283 290 283 290 301 297 c 2,68,-1
 334 309 l 1,69,-1
 361 328 l 1,70,-1
 383 352 l 1,71,-1
 400 379 l 1,72,-1
 414 410 l 1,73,74
 419 426 419 426 422 447 c 2,75,-1
 424 467 l 1,76,-1
 422 488 l 2,77,78
 419 505 419 505 412 525 c 2,79,-1
 398 557 l 2,80,81
 391 569 391 569 379 582 c 0,82,83
 370 594 370 594 355 604 c 0,84,85
 344 614 344 614 328 623 c 1,86,-1
 299 637 l 1,87,-1
 262 645 l 1,88,-1
 217 645 l 1,44,-1
EndSplineSet
Validated: 1
EndChar

StartChar: colon
Encoding: 58 58 29
Width: 307
Flags: W
LayerCount: 5
Fore
SplineSet
63 494 m 1,0,-1
 86 494 l 1,1,-1
 102 492 l 1,2,-1
 131 480 l 1,3,-1
 149 459 l 2,4,5
 157 448 157 448 163 432 c 1,6,-1
 165 412 l 1,7,-1
 163 406 l 1,8,-1
 163 400 l 1,9,-1
 161 395 l 2,10,11
 157 382 157 382 149 367 c 1,12,13
 141 358 141 358 129 348 c 0,14,15
 117 340 117 340 102 334 c 1,16,-1
 71 332 l 1,17,-1
 65 334 l 2,18,19
 52 338 52 338 38 348 c 1,20,-1
 16 367 l 1,21,-1
 4 395 l 1,22,23
 2 409 2 409 2 426 c 1,24,-1
 4 432 l 2,25,26
 7 446 7 446 16 461 c 1,27,-1
 38 480 l 1,28,-1
 63 494 l 1,0,-1
63 250 m 1,29,-1
 86 250 l 1,30,-1
 102 248 l 1,31,-1
 131 236 l 1,32,-1
 149 215 l 2,33,34
 157 204 157 204 163 188 c 1,35,-1
 165 168 l 1,36,-1
 163 162 l 1,37,-1
 163 156 l 1,38,-1
 161 150 l 2,39,40
 157 137 157 137 149 123 c 1,41,42
 141 114 141 114 129 104 c 0,43,44
 117 96 117 96 102 90 c 1,45,-1
 71 88 l 1,46,-1
 65 90 l 2,47,48
 52 94 52 94 38 104 c 1,49,-1
 16 123 l 1,50,-1
 4 150 l 1,51,52
 2 164 2 164 2 182 c 1,53,-1
 4 188 l 2,54,55
 7 202 7 202 16 217 c 1,56,-1
 38 236 l 1,57,-1
 63 250 l 1,29,-1
EndSplineSet
Validated: 1
EndChar

StartChar: semicolon
Encoding: 59 59 30
AltUni2: 00037e.ffffffff.0
Width: 320
Flags: W
LayerCount: 5
Fore
SplineSet
63 486 m 1,0,-1
 86 486 l 1,1,-1
 102 484 l 1,2,-1
 131 473 l 1,3,-1
 149 451 l 2,4,5
 157 440 157 440 163 424 c 1,6,-1
 165 404 l 1,7,-1
 163 398 l 1,8,-1
 163 393 l 1,9,-1
 161 387 l 2,10,11
 157 374 157 374 149 359 c 1,12,13
 141 350 141 350 129 340 c 0,14,15
 117 332 117 332 102 326 c 1,16,-1
 71 324 l 1,17,-1
 65 326 l 2,18,19
 52 330 52 330 38 340 c 1,20,-1
 16 359 l 1,21,-1
 4 387 l 1,22,23
 2 401 2 401 2 418 c 1,24,-1
 4 424 l 2,25,26
 7 438 7 438 16 453 c 1,27,-1
 38 473 l 1,28,-1
 63 486 l 1,0,-1
63 242 m 1,29,-1
 92 242 l 1,30,-1
 116 236 l 1,31,-1
 133 225 l 1,32,-1
 147 211 l 1,33,-1
 157 193 l 2,34,35
 161 182 161 182 163 170 c 2,36,-1
 165 156 l 1,37,-1
 163 150 l 1,38,-1
 163 145 l 1,39,-1
 155 125 l 1,40,-1
 129 92 l 1,41,-1
 43 8 l 1,42,43
 34 3 34 3 22 0 c 1,44,45
 15 6 15 6 8 16 c 1,46,47
 10 27 10 27 16 37 c 1,48,-1
 59 78 l 1,49,50
 53 84 53 84 45 90 c 2,51,-1
 30 102 l 2,52,53
 23 109 23 109 16 117 c 1,54,-1
 6 137 l 1,55,56
 4 147 4 147 2 160 c 1,57,-1
 4 188 l 1,58,-1
 14 205 l 1,59,-1
 28 221 l 2,60,61
 35 227 35 227 43 232 c 2,62,-1
 63 242 l 1,29,-1
EndSplineSet
Validated: 1
EndChar

StartChar: equal
Encoding: 61 61 32
Width: 810
Flags: W
LayerCount: 5
Fore
SplineSet
-6 513 m 1,0,-1
 498 513 l 2,1,2
 513 513 513 513 531 507 c 1,3,4
 538 494 538 494 538 478 c 1,5,6
 532 466 532 466 521 454 c 1,7,-1
 -9 456 l 1,8,-1
 -15 460 l 1,9,10
 -22 473 -22 473 -24 491 c 1,11,12
 -17 502 -17 502 -6 513 c 1,0,-1
-6 269 m 1,13,-1
 498 269 l 2,14,15
 513 269 513 269 531 263 c 1,16,17
 538 250 538 250 538 233 c 1,18,19
 532 221 532 221 521 210 c 1,20,-1
 -9 212 l 1,21,-1
 -15 216 l 1,22,23
 -22 229 -22 229 -24 247 c 1,24,25
 -17 258 -17 258 -6 269 c 1,13,-1
EndSplineSet
Validated: 1
EndChar

StartChar: question
Encoding: 63 63 34
Width: 586
Flags: W
LayerCount: 5
Fore
SplineSet
195 760 m 1,0,-1
 230 760 l 1,1,-1
 238 758 l 1,2,3
 255 756 255 756 275 750 c 0,4,5
 291 745 291 745 307 736 c 2,6,-1
 334 721 l 1,7,-1
 377 676 l 1,8,-1
 395 650 l 2,9,10
 402 636 402 636 408 619 c 2,11,-1
 418 584 l 1,12,-1
 420 543 l 1,13,-1
 416 502 l 1,14,15
 412 488 412 488 404 471 c 2,16,-1
 391 439 l 1,17,-1
 371 416 l 2,18,19
 363 404 363 404 350 393 c 2,20,-1
 324 373 l 2,21,22
 311 365 311 365 295 357 c 0,23,24
 281 351 281 351 264 346 c 2,25,-1
 229 338 l 1,26,-1
 229 250 l 2,27,28
 228 234 228 234 215 219 c 1,29,-1
 203 213 l 1,30,31
 192 214 192 214 182 219 c 1,32,33
 171 232 171 232 168 250 c 1,34,-1
 168 371 l 1,35,-1
 170 379 l 1,36,37
 179 392 179 392 195 398 c 1,38,-1
 227 398 l 1,39,-1
 230 400 l 1,40,-1
 238 400 l 1,41,-1
 271 410 l 1,42,-1
 299 426 l 1,43,-1
 322 447 l 1,44,-1
 342 473 l 1,45,-1
 355 504 l 1,46,-1
 361 541 l 1,47,-1
 361 561 l 1,48,-1
 357 580 l 2,49,50
 354 596 354 596 348 615 c 1,51,52
 341 628 341 628 330 641 c 2,53,-1
 311 664 l 1,54,-1
 283 682 l 2,55,56
 271 689 271 689 254 695 c 1,57,-1
 215 701 l 1,58,-1
 176 697 l 1,59,-1
 143 686 l 1,60,-1
 94 648 l 1,61,-1
 76 621 l 2,62,63
 69 608 69 608 64 590 c 0,64,65
 60 573 60 573 59 551 c 0,66,67
 59 533 59 533 64 512 c 1,68,-1
 68 490 l 1,69,-1
 64 477 l 1,70,71
 52 466 52 466 35 461 c 1,72,73
 20 468 20 468 12 482 c 1,74,75
 6 497 6 497 2 518 c 1,76,-1
 0 559 l 1,77,-1
 4 600 l 1,78,-1
 16 631 l 2,79,80
 22 645 22 645 31 660 c 0,81,82
 38 672 38 672 51 686 c 2,83,-1
 70 709 l 1,84,-1
 96 727 l 2,85,86
 109 736 109 736 125 742 c 0,87,88
 138 748 138 748 158 754 c 1,89,-1
 195 760 l 1,0,-1
180 162 m 1,90,-1
 203 162 l 1,91,-1
 219 160 l 1,92,93
 232 156 232 156 246 146 c 0,94,95
 256 138 256 138 266 127 c 0,96,97
 274 115 274 115 279 100 c 1,98,-1
 279 66 l 1,99,-1
 277 61 l 1,100,-1
 264 33 l 1,101,-1
 242 14 l 1,102,-1
 215 2 l 1,103,-1
 189 0 l 1,104,-1
 184 2 l 1,105,-1
 178 2 l 1,106,-1
 150 16 l 1,107,-1
 131 37 l 1,108,-1
 119 64 l 1,109,110
 117 78 117 78 117 96 c 1,111,-1
 119 102 l 2,112,113
 123 115 123 115 133 129 c 1,114,-1
 152 148 l 1,115,-1
 180 162 l 1,90,-1
EndSplineSet
Validated: 1
EndChar

StartChar: at
Encoding: 64 64 35
Width: 827
Flags: W
LayerCount: 5
Fore
SplineSet
370 663 m 1,0,-1
 426 656 l 1,1,-1
 495 638 l 1,2,-1
 516 627 l 2,3,4
 524 623 524 623 534 618 c 2,5,-1
 585 585 l 1,6,-1
 628 545 l 1,7,-1
 653 515 l 1,8,-1
 663 498 l 2,9,10
 668 491 668 491 673 481 c 2,11,-1
 691 446 l 2,12,13
 695 438 695 438 699 428 c 2,14,-1
 712 387 l 1,15,-1
 719 343 l 1,16,-1
 719 266 l 1,17,-1
 707 189 l 1,18,-1
 691 147 l 1,19,-1
 666 115 l 2,20,21
 660 109 660 109 651 103 c 0,22,23
 644 99 644 99 634 95 c 0,24,25
 624 92 624 92 610 91 c 2,26,-1
 583 94 l 1,27,-1
 560 101 l 1,28,-1
 527 125 l 1,29,-1
 505 171 l 1,30,-1
 485 153 l 2,31,32
 478 147 478 147 468 142 c 2,33,-1
 435 122 l 1,34,-1
 417 114 l 1,35,-1
 373 106 l 1,36,-1
 318 112 l 1,37,-1
 295 119 l 1,38,-1
 239 150 l 1,39,-1
 225 163 l 1,40,-1
 201 193 l 1,41,-1
 175 247 l 1,42,-1
 170 294 l 1,43,-1
 171 320 l 1,44,-1
 182 368 l 2,45,46
 185 377 185 377 192 389 c 2,47,-1
 213 421 l 1,48,-1
 242 450 l 1,49,-1
 312 486 l 1,50,-1
 358 491 l 1,51,-1
 412 483 l 1,52,-1
 435 477 l 1,53,-1
 472 457 l 1,54,-1
 501 431 l 1,55,-1
 508 444 l 1,56,-1
 516 464 l 1,57,58
 525 469 525 469 537 472 c 1,59,-1
 560 466 l 1,60,-1
 567 447 l 1,61,-1
 551 258 l 1,62,-1
 556 213 l 1,63,-1
 562 192 l 1,64,-1
 572 176 l 2,65,66
 576 168 576 168 584 161 c 1,67,-1
 603 151 l 1,68,69
 613 151 613 151 623 157 c 1,70,-1
 636 171 l 1,71,-1
 651 214 l 1,72,-1
 663 290 l 1,73,-1
 660 339 l 1,74,-1
 656 361 l 2,75,76
 655 370 655 370 651 381 c 0,77,78
 650 390 650 390 645 402 c 2,79,-1
 639 422 l 1,80,-1
 622 457 l 1,81,-1
 609 472 l 1,82,-1
 599 489 l 1,83,-1
 587 504 l 1,84,-1
 544 544 l 1,85,-1
 490 575 l 1,86,-1
 447 591 l 1,87,-1
 397 601 l 1,88,-1
 322 601 l 1,89,-1
 258 586 l 1,90,-1
 221 570 l 1,91,-1
 172 538 l 1,92,-1
 157 526 l 1,93,-1
 117 483 l 1,94,-1
 86 429 l 1,95,-1
 70 386 l 1,96,-1
 58 308 l 1,97,-1
 64 239 l 1,98,-1
 74 199 l 1,99,-1
 111 128 l 1,100,-1
 136 96 l 1,101,-1
 162 69 l 1,102,-1
 181 58 l 1,103,-1
 195 44 l 1,104,-1
 274 9 l 1,105,-1
 351 -3 l 1,106,-1
 442 7 l 1,107,-1
 481 21 l 1,108,-1
 533 50 l 1,109,-1
 548 62 l 2,110,111
 555 67 555 67 565 72 c 1,112,-1
 588 66 l 1,113,114
 594 59 594 59 598 49 c 1,115,-1
 598 32 l 1,116,-1
 594 26 l 1,117,-1
 581 14 l 2,118,119
 574 8 574 8 563 2 c 2,120,-1
 549 -10 l 1,121,-1
 475 -43 l 1,122,-1
 390 -62 l 1,123,-1
 312 -58 l 1,124,-1
 262 -49 l 1,125,-1
 198 -24 l 1,126,-1
 146 8 l 1,127,-1
 89 63 l 1,128,-1
 53 108 l 1,129,130
 49 117 49 117 42 125 c 1,131,-1
 19 181 l 1,132,-1
 0 267 l 1,133,-1
 -1 291 l 1,134,-1
 2 344 l 1,135,-1
 19 418 l 1,136,-1
 35 460 l 1,137,-1
 79 528 l 1,138,-1
 121 571 l 1,139,-1
 136 583 l 2,140,141
 142 588 142 588 150 593 c 0,142,143
 157 599 157 599 167 605 c 0,144,145
 174 610 174 610 184 615 c 2,146,-1
 220 633 l 2,147,148
 228 637 228 637 238 641 c 2,149,-1
 256 649 l 1,150,-1
 299 658 l 1,151,-1
 370 663 l 1,0,-1
354 433 m 1,152,-1
 326 427 l 1,153,-1
 303 420 l 1,154,-1
 282 407 l 1,155,-1
 249 373 l 1,156,-1
 230 324 l 1,157,-1
 229 292 l 1,158,-1
 232 265 l 1,159,-1
 253 221 l 1,160,-1
 269 204 l 1,161,-1
 287 190 l 1,162,-1
 309 178 l 1,163,-1
 336 169 l 1,164,-1
 367 166 l 1,165,-1
 395 171 l 1,166,-1
 417 178 l 1,167,-1
 456 206 l 1,168,-1
 471 224 l 1,169,-1
 483 246 l 1,170,-1
 490 275 l 1,171,-1
 494 308 l 1,172,-1
 481 356 l 1,173,-1
 470 377 l 1,174,-1
 436 410 l 1,175,-1
 414 422 l 1,176,-1
 354 433 l 1,152,-1
EndSplineSet
Validated: 1
EndChar

StartChar: A
Encoding: 65 65 36
Width: 701
Flags: W
LayerCount: 5
Fore
SplineSet
336 703 m 1,0,1
 355 704 355 704 371 688 c 1,2,-1
 438 514 l 2,3,4
 442 499 442 499 451 480 c 1,5,-1
 529 270 l 2,6,7
 534 255 534 255 543 236 c 1,8,-1
 607 61 l 2,9,10
 614 44 614 44 617 21 c 1,11,12
 608 7 608 7 590 0 c 1,13,14
 572 3 572 3 561 20 c 1,15,-1
 547 55 l 2,16,17
 542 70 542 70 533 88 c 1,18,-1
 508 160 l 1,19,-1
 490 162 l 1,20,-1
 154 162 l 1,21,-1
 88 10 l 1,22,23
 78 5 78 5 66 0 c 1,24,-1
 51 2 l 1,25,26
 38 14 38 14 33 33 c 1,27,-1
 62 100 l 2,28,29
 70 115 70 115 76 135 c 1,30,-1
 90 160 l 1,31,-1
 84 162 l 1,32,-1
 37 162 l 2,33,34
 18 163 18 163 4 178 c 1,35,36
 1 188 1 188 0 201 c 1,37,-1
 10 213 l 1,38,39
 28 220 28 220 51 221 c 2,40,-1
 100 221 l 2,41,42
 119 222 119 222 125 242 c 2,43,-1
 154 309 l 2,44,45
 161 324 161 324 168 344 c 1,46,-1
 213 441 l 2,47,48
 219 457 219 457 229 477 c 2,49,-1
 314 676 l 2,50,51
 321 690 321 690 336 703 c 1,0,1
342 594 m 1,52,53
 338 578 338 578 328 562 c 1,54,-1
 266 414 l 2,55,56
 260 403 260 403 252 385 c 2,57,-1
 180 221 l 1,58,-1
 484 221 l 1,59,-1
 436 350 l 2,60,61
 432 365 432 365 424 381 c 1,62,63
 420 396 420 396 412 412 c 1,64,65
 408 427 408 427 400 443 c 0,66,67
 396 457 396 457 389 473 c 1,68,69
 386 488 386 488 377 504 c 1,70,-1
 355 566 l 1,71,-1
 342 594 l 1,52,53
EndSplineSet
Validated: 33
EndChar

StartChar: B
Encoding: 66 66 37
Width: 592
Flags: W
LayerCount: 5
Fore
SplineSet
39 703 m 5,0,-1
 270 693 l 5,1,-1
 367 670 l 5,2,-1
 422 645 l 5,3,-1
 463 605 l 5,4,-1
 479 580 l 5,5,6
 483 567 483 567 486 549 c 4,7,8
 488 535 488 535 488 518 c 5,9,-1
 486 512 l 5,10,11
 485 497 485 497 480 479 c 5,12,-1
 416 342 l 5,13,-1
 383 295 l 5,14,-1
 363 273 l 5,15,16
 363 262 363 262 373 254 c 6,17,-1
 396 236 l 5,18,-1
 416 215 l 5,19,-1
 432 191 l 6,20,21
 440 179 440 179 445 164 c 5,22,-1
 451 131 l 5,23,-1
 449 100 l 5,24,-1
 436 66 l 5,25,-1
 418 43 l 5,26,-1
 395 25 l 5,27,-1
 340 0 l 5,28,-1
 20 0 l 5,29,30
 10 9 10 9 0 21 c 5,31,-1
 0 662 l 6,32,33
 0 679 0 679 10 693 c 5,34,-1
 39 703 l 5,0,-1
59 643 m 5,35,-1
 59 287 l 5,36,-1
 293 287 l 5,37,38
 305 295 305 295 316 309 c 6,39,-1
 355 359 l 6,40,41
 364 370 364 370 373 389 c 5,42,43
 382 401 382 401 389 418 c 5,44,45
 397 431 397 431 404 447 c 6,46,-1
 418 479 l 6,47,48
 423 495 423 495 428 516 c 5,49,-1
 428 535 l 5,50,-1
 422 555 l 5,51,52
 416 567 416 567 404 582 c 5,53,54
 392 592 392 592 377 600 c 6,55,-1
 348 615 l 5,56,-1
 234 639 l 5,57,-1
 59 643 l 5,35,-1
59 229 m 5,58,-1
 59 59 l 5,59,-1
 330 59 l 5,60,-1
 352 68 l 5,61,-1
 369 80 l 5,62,-1
 385 98 l 5,63,64
 389 109 389 109 391 123 c 5,65,-1
 387 150 l 5,66,-1
 377 170 l 5,67,-1
 361 188 l 5,68,-1
 326 215 l 5,69,-1
 307 227 l 5,70,-1
 59 229 l 5,58,-1
EndSplineSet
Validated: 1
EndChar

StartChar: C
Encoding: 67 67 38
Width: 697
Flags: W
LayerCount: 5
Fore
SplineSet
334 703 m 1,0,-1
 367 703 l 1,1,-1
 449 689 l 1,2,-1
 518 662 l 1,3,-1
 572 623 l 1,4,-1
 605 592 l 1,5,6
 610 581 610 581 613 566 c 1,7,-1
 602 547 l 1,8,-1
 582 543 l 1,9,-1
 574 545 l 1,10,11
 566 550 566 550 557 559 c 2,12,-1
 523 588 l 1,13,-1
 484 613 l 1,14,-1
 439 631 l 1,15,-1
 387 643 l 1,16,-1
 324 643 l 1,17,-1
 270 633 l 1,18,-1
 246 625 l 2,19,20
 236 622 236 622 225 615 c 2,21,-1
 184 594 l 1,22,-1
 148 564 l 1,23,-1
 105 512 l 1,24,-1
 82 471 l 1,25,-1
 66 424 l 1,26,-1
 59 367 l 1,27,-1
 59 336 l 1,28,-1
 72 256 l 1,29,-1
 92 211 l 1,30,-1
 131 156 l 1,31,-1
 182 111 l 1,32,-1
 244 78 l 1,33,-1
 293 64 l 1,34,-1
 352 59 l 1,35,-1
 408 64 l 1,36,-1
 436 70 l 1,37,-1
 500 100 l 1,38,-1
 537 127 l 2,39,40
 545 134 545 134 557 141 c 1,41,42
 564 142 564 142 572 143 c 1,43,-1
 576 141 l 1,44,-1
 582 139 l 1,45,46
 588 130 588 130 594 117 c 1,47,48
 593 105 593 105 588 92 c 1,49,-1
 533 51 l 1,50,-1
 514 39 l 1,51,-1
 445 12 l 1,52,-1
 391 2 l 1,53,-1
 330 0 l 1,54,-1
 248 14 l 1,55,-1
 182 43 l 1,56,-1
 127 82 l 1,57,-1
 78 131 l 1,58,-1
 39 188 l 1,59,-1
 20 230 l 1,60,-1
 6 281 l 1,61,-1
 0 371 l 1,62,-1
 2 400 l 1,63,-1
 21 477 l 1,64,-1
 66 559 l 1,65,-1
 111 607 l 1,66,-1
 166 650 l 1,67,-1
 229 682 l 1,68,-1
 334 703 l 1,0,-1
EndSplineSet
Validated: 1
EndChar

StartChar: D
Encoding: 68 68 39
Width: 578
Flags: W
LayerCount: 5
Fore
SplineSet
21 703 m 1,0,-1
 55 703 l 1,1,-1
 59 701 l 1,2,-1
 88 701 l 1,3,-1
 92 699 l 1,4,-1
 248 676 l 1,5,-1
 328 645 l 1,6,-1
 352 633 l 1,7,-1
 393 602 l 1,8,-1
 426 562 l 1,9,-1
 439 539 l 1,10,-1
 457 484 l 1,11,-1
 459 414 l 1,12,-1
 439 324 l 1,13,-1
 408 246 l 1,14,-1
 354 156 l 1,15,-1
 320 117 l 1,16,-1
 260 68 l 1,17,-1
 188 31 l 1,18,-1
 72 2 l 1,19,-1
 37 0 l 2,20,21
 24 0 24 0 10 8 c 1,22,23
 2 19 2 19 0 35 c 2,24,-1
 0 682 l 1,25,-1
 2 686 l 1,26,27
 10 695 10 695 21 703 c 1,0,-1
59 643 m 1,28,-1
 59 62 l 1,29,-1
 105 68 l 1,30,-1
 129 74 l 1,31,-1
 170 90 l 2,32,33
 179 93 179 93 189 100 c 1,34,35
 198 103 198 103 209 109 c 2,36,-1
 244 131 l 1,37,-1
 303 189 l 1,38,-1
 338 240 l 1,39,-1
 357 277 l 1,40,-1
 365 299 l 2,41,42
 369 308 369 308 373 320 c 0,43,44
 377 329 377 329 381 342 c 2,45,-1
 395 387 l 1,46,-1
 400 438 l 1,47,-1
 395 488 l 1,48,-1
 377 529 l 1,49,-1
 350 561 l 1,50,-1
 334 574 l 1,51,-1
 277 604 l 1,52,-1
 258 611 l 1,53,-1
 139 637 l 1,54,-1
 59 643 l 1,28,-1
EndSplineSet
Validated: 1
EndChar

StartChar: E
Encoding: 69 69 40
Width: 619
Flags: W
LayerCount: 5
Fore
SplineSet
20 703 m 1,0,-1
 479 703 l 1,1,2
 488 698 488 698 496 689 c 1,3,4
 499 677 499 677 500 664 c 1,5,6
 493 655 493 655 482 646 c 1,7,-1
 61 645 l 1,8,-1
 59 287 l 1,9,10
 68 280 68 280 82 279 c 2,11,-1
 473 279 l 1,12,13
 484 275 484 275 494 268 c 1,14,15
 499 258 499 258 500 244 c 1,16,17
 495 234 495 234 486 225 c 1,18,-1
 457 221 l 1,19,-1
 64 221 l 1,20,21
 60 209 60 209 59 195 c 1,22,-1
 59 64 l 1,23,24
 71 60 71 60 84 59 c 2,25,-1
 477 59 l 1,26,27
 487 54 487 54 496 45 c 1,28,29
 499 33 499 33 500 20 c 1,30,-1
 484 2 l 1,31,32
 470 0 470 0 453 0 c 2,33,-1
 29 0 l 1,34,35
 17 3 17 3 6 10 c 1,36,37
 2 23 2 23 0 37 c 1,38,-1
 0 658 l 2,39,40
 0 672 0 672 4 688 c 1,41,42
 11 696 11 696 20 703 c 1,0,-1
EndSplineSet
Validated: 1
EndChar

StartChar: F
Encoding: 70 70 41
Width: 609
Flags: W
LayerCount: 5
Fore
SplineSet
21 703 m 1,0,-1
 461 703 l 1,1,-1
 484 701 l 1,2,-1
 498 689 l 1,3,-1
 504 668 l 1,4,-1
 492 652 l 1,5,6
 485 647 485 647 475 645 c 1,7,-1
 62 645 l 1,8,-1
 61 623 l 1,9,-1
 61 279 l 1,10,-1
 463 279 l 1,11,-1
 488 277 l 1,12,-1
 500 264 l 1,13,-1
 504 250 l 1,14,-1
 502 244 l 2,15,16
 499 236 499 236 492 229 c 1,17,18
 483 224 483 224 473 221 c 1,19,-1
 61 221 l 1,20,-1
 61 41 l 2,21,22
 60 29 60 29 57 18 c 1,23,-1
 45 4 l 1,24,-1
 23 0 l 1,25,-1
 8 10 l 1,26,-1
 0 29 l 1,27,-1
 0 674 l 1,28,29
 3 683 3 683 8 691 c 1,30,-1
 21 703 l 1,0,-1
EndSplineSet
Validated: 1
EndChar

StartChar: G
Encoding: 71 71 42
Width: 676
Flags: W
LayerCount: 5
Fore
SplineSet
311 703 m 1,0,-1
 385 701 l 1,1,-1
 447 688 l 1,2,-1
 523 650 l 1,3,4
 532 642 532 642 545 635 c 1,5,6
 553 625 553 625 561 611 c 1,7,8
 560 599 560 599 553 586 c 1,9,-1
 545 578 l 1,10,-1
 529 576 l 1,11,-1
 523 578 l 1,12,-1
 455 621 l 1,13,-1
 398 639 l 2,14,15
 383 642 383 642 363 643 c 2,16,-1
 328 645 l 1,17,-1
 264 635 l 1,18,-1
 234 625 l 1,19,-1
 186 598 l 1,20,-1
 164 582 l 1,21,-1
 127 545 l 1,22,-1
 96 500 l 1,23,-1
 72 447 l 1,24,-1
 64 418 l 1,25,-1
 59 350 l 1,26,-1
 61 312 l 1,27,-1
 74 252 l 1,28,-1
 98 199 l 1,29,-1
 129 156 l 1,30,-1
 168 119 l 1,31,-1
 213 88 l 1,32,-1
 238 76 l 1,33,-1
 297 61 l 1,34,-1
 365 59 l 1,35,-1
 369 61 l 1,36,-1
 402 64 l 1,37,-1
 457 84 l 1,38,-1
 482 98 l 1,39,-1
 504 113 l 1,40,-1
 508 146 l 1,41,-1
 508 383 l 1,42,-1
 338 383 l 1,43,-1
 332 387 l 1,44,45
 324 396 324 396 316 408 c 1,46,47
 320 422 320 422 328 436 c 1,48,49
 342 441 342 441 359 441 c 2,50,-1
 541 441 l 1,51,-1
 547 439 l 1,52,53
 558 433 558 433 566 420 c 1,54,-1
 564 92 l 1,55,-1
 541 68 l 1,56,-1
 471 25 l 1,57,-1
 443 16 l 2,58,59
 429 11 429 11 412 8 c 0,60,61
 398 4 398 4 381 2 c 2,62,-1
 307 0 l 1,63,-1
 273 4 l 1,64,-1
 189 33 l 1,65,-1
 123 80 l 1,66,-1
 68 139 l 1,67,-1
 53 160 l 1,68,-1
 8 268 l 1,69,70
 7 282 7 282 2 299 c 1,71,-1
 0 373 l 1,72,-1
 4 406 l 2,73,74
 4 422 4 422 10 438 c 2,75,-1
 18 469 l 1,76,-1
 55 545 l 1,77,-1
 105 607 l 1,78,-1
 168 658 l 1,79,-1
 248 691 l 2,80,81
 261 694 261 694 279 697 c 2,82,-1
 311 703 l 1,0,-1
EndSplineSet
Validated: 1
EndChar

StartChar: H
Encoding: 72 72 43
Width: 641
Flags: W
LayerCount: 5
Fore
SplineSet
20 703 m 1,0,1
 31 703 31 703 45 699 c 1,2,-1
 59 682 l 1,3,-1
 59 279 l 1,4,-1
 438 279 l 1,5,6
 448 285 448 285 447 297 c 2,7,-1
 447 674 l 1,8,-1
 455 695 l 1,9,10
 464 699 464 699 477 703 c 1,11,12
 488 701 488 701 498 695 c 1,13,-1
 508 676 l 1,14,-1
 508 39 l 2,15,16
 507 26 507 26 502 14 c 1,17,-1
 486 0 l 1,18,19
 475 0 475 0 463 4 c 1,20,21
 455 11 455 11 449 21 c 1,22,-1
 447 221 l 1,23,-1
 70 221 l 1,24,25
 59 218 59 218 59 205 c 2,26,-1
 59 31 l 1,27,28
 57 20 57 20 51 10 c 1,29,30
 43 4 43 4 31 0 c 1,31,32
 20 2 20 2 10 8 c 1,33,34
 4 16 4 16 0 27 c 1,35,-1
 0 664 l 2,36,37
 0 675 0 675 4 689 c 1,38,-1
 20 703 l 1,0,1
EndSplineSet
Validated: 1
EndChar

StartChar: I
Encoding: 73 73 44
Width: 190
Flags: W
LayerCount: 5
Fore
SplineSet
21 703 m 1,0,1
 40 701 40 701 57 689 c 1,2,3
 61 668 61 668 61 645 c 2,4,-1
 61 25 l 1,5,6
 54 11 54 11 39 0 c 1,7,8
 21 1 21 1 4 14 c 1,9,10
 0 35 0 35 0 59 c 2,11,-1
 0 678 l 1,12,13
 6 691 6 691 21 703 c 1,0,1
EndSplineSet
Validated: 1
EndChar

StartChar: J
Encoding: 74 74 45
Width: 303
Flags: W
LayerCount: 5
Fore
SplineSet
131 704 m 5,0,1
 144 704 144 704 158 700 c 5,2,-1
 172 682 l 5,3,-1
 172 106 l 5,4,-1
 164 53 l 5,5,-1
 139 -13 l 5,6,-1
 113 -48 l 5,7,-1
 80 -76 l 5,8,-1
 39 -95 l 5,9,-1
 23 -97 l 5,10,-1
 20 -95 l 5,11,-1
 14 -91 l 5,12,-1
 0 -76 l 5,13,14
 1 -63 1 -63 6 -50 c 5,15,16
 13 -43 13 -43 23 -38 c 6,17,-1
 61 -15 l 5,18,-1
 88 20 l 5,19,-1
 98 40 l 5,20,-1
 105 63 l 5,21,-1
 113 114 l 5,22,-1
 113 661 l 5,23,-1
 115 688 l 5,24,-1
 131 704 l 5,0,1
EndSplineSet
Validated: 1
EndChar

StartChar: K
Encoding: 75 75 46
Width: 666
Flags: W
LayerCount: 5
Fore
SplineSet
21 703 m 1,0,1
 35 702 35 702 51 697 c 1,2,-1
 61 672 l 1,3,-1
 61 213 l 1,4,-1
 72 215 l 1,5,-1
 197 260 l 1,6,7
 206 266 206 266 215 275 c 1,8,-1
 277 383 l 2,9,10
 283 392 283 392 289 404 c 2,11,-1
 469 699 l 1,12,-1
 490 703 l 1,13,-1
 498 701 l 1,14,-1
 514 684 l 1,15,16
 514 671 514 671 510 656 c 1,17,-1
 295 297 l 1,18,-1
 283 273 l 1,19,-1
 270 254 l 1,20,-1
 266 244 l 1,21,-1
 467 86 l 2,22,23
 475 79 475 79 486 72 c 1,24,-1
 504 57 l 2,25,26
 512 49 512 49 520 37 c 1,27,28
 520 24 520 24 514 12 c 1,29,30
 505 5 505 5 492 0 c 1,31,32
 480 3 480 3 469 10 c 1,33,-1
 223 205 l 1,34,-1
 72 152 l 1,35,36
 61 146 61 146 61 131 c 2,37,-1
 61 29 l 1,38,39
 57 18 57 18 49 8 c 1,40,41
 38 1 38 1 21 0 c 1,42,43
 12 7 12 7 4 18 c 1,44,-1
 0 47 l 1,45,-1
 0 672 l 1,46,-1
 4 688 l 1,47,-1
 21 703 l 1,0,1
EndSplineSet
Validated: 1
EndChar

StartChar: L
Encoding: 76 76 47
Width: 565
Flags: W
LayerCount: 5
Fore
SplineSet
20 703 m 1,0,-1
 35 703 l 1,1,-1
 49 695 l 1,2,3
 57 684 57 684 59 668 c 2,4,-1
 59 59 l 1,5,-1
 430 59 l 1,6,7
 443 56 443 56 455 47 c 1,8,9
 459 34 459 34 459 20 c 1,10,11
 452 10 452 10 441 0 c 1,12,-1
 41 0 l 2,13,14
 25 0 25 0 10 6 c 1,15,16
 2 18 2 18 0 33 c 1,17,-1
 0 680 l 1,18,-1
 2 684 l 1,19,20
 10 694 10 694 20 703 c 1,0,-1
EndSplineSet
Validated: 1
EndChar

StartChar: M
Encoding: 77 77 48
Width: 832
Flags: W
LayerCount: 5
Fore
SplineSet
113 717 m 1,0,-1
 141 715 l 1,1,-1
 148 705 l 1,2,-1
 225 426 l 2,3,4
 229 411 229 411 236 395 c 1,5,6
 240 380 240 380 248 361 c 2,7,-1
 309 244 l 1,8,-1
 332 225 l 1,9,-1
 354 221 l 1,10,-1
 367 227 l 1,11,-1
 389 248 l 1,12,-1
 422 305 l 1,13,-1
 436 336 l 1,14,15
 440 351 440 351 447 367 c 1,16,-1
 531 684 l 2,17,18
 533 700 533 700 545 713 c 1,19,-1
 566 717 l 1,20,-1
 580 711 l 1,21,22
 589 698 589 698 594 680 c 2,23,-1
 713 43 l 1,24,-1
 715 21 l 1,25,-1
 707 10 l 1,26,-1
 695 0 l 1,27,-1
 672 2 l 1,28,29
 661 13 661 13 656 29 c 2,30,-1
 564 516 l 2,31,32
 562 527 562 527 557 539 c 1,33,-1
 514 393 l 2,34,35
 511 378 511 378 502 359 c 1,36,37
 498 344 498 344 490 328 c 1,38,39
 485 313 485 313 477 295 c 2,40,-1
 447 236 l 1,41,-1
 408 188 l 1,42,-1
 383 170 l 1,43,44
 366 163 366 163 344 162 c 0,45,46
 327 163 327 163 311 172 c 0,47,48
 297 179 297 179 285 191 c 1,49,50
 274 200 274 200 264 215 c 0,51,52
 257 226 257 226 244 240 c 1,53,-1
 215 299 l 2,54,55
 208 312 208 312 201 330 c 2,56,-1
 143 494 l 1,57,58
 140 510 140 510 133 529 c 1,59,-1
 115 428 l 1,60,61
 114 410 114 410 109 389 c 2,62,-1
 70 117 l 2,63,64
 69 100 69 100 64 80 c 2,65,-1
 59 39 l 2,66,67
 58 23 58 23 47 8 c 1,68,-1
 37 0 l 1,69,70
 26 0 26 0 14 4 c 1,71,72
 2 15 2 15 0 33 c 1,73,-1
 4 72 l 1,74,75
 8 89 8 89 10 109 c 2,76,-1
 39 303 l 2,77,78
 40 321 40 321 45 342 c 1,79,-1
 49 383 l 1,80,81
 53 400 53 400 55 420 c 2,82,-1
 90 652 l 2,83,84
 91 670 91 670 96 691 c 0,85,86
 99 705 99 705 113 717 c 1,0,-1
EndSplineSet
Validated: 1
EndChar

StartChar: N
Encoding: 78 78 49
Width: 722
Flags: W
LayerCount: 5
Fore
SplineSet
21 703 m 1,0,1
 36 703 36 703 51 693 c 1,2,-1
 500 115 l 1,3,-1
 502 145 l 1,4,-1
 502 676 l 1,5,-1
 504 682 l 2,6,7
 510 694 510 694 523 701 c 1,8,-1
 541 703 l 1,9,-1
 553 695 l 1,10,11
 558 682 558 682 562 666 c 1,12,-1
 561 21 l 1,13,14
 555 10 555 10 541 2 c 1,15,-1
 521 0 l 1,16,-1
 512 8 l 1,17,-1
 61 586 l 1,18,-1
 59 25 l 1,19,-1
 57 20 l 1,20,21
 50 10 50 10 39 0 c 1,22,23
 23 0 23 0 8 8 c 1,24,25
 1 21 1 21 0 39 c 2,26,-1
 0 678 l 1,27,-1
 2 684 l 1,28,29
 8 694 8 694 21 703 c 1,0,1
EndSplineSet
Validated: 1
EndChar

StartChar: O
Encoding: 79 79 50
Width: 806
Flags: W
LayerCount: 5
Fore
SplineSet
322 703 m 1,0,-1
 406 699 l 2,1,2
 423 697 423 697 443 691 c 2,3,-1
 508 668 l 1,4,-1
 562 635 l 1,5,-1
 629 568 l 1,6,-1
 664 516 l 1,7,-1
 689 453 l 1,8,-1
 703 350 l 1,9,-1
 703 336 l 1,10,-1
 691 260 l 2,11,12
 687 245 687 245 680 227 c 2,13,-1
 668 195 l 1,14,-1
 633 143 l 1,15,-1
 613 119 l 2,16,17
 605 107 605 107 592 96 c 2,18,-1
 516 39 l 1,19,-1
 486 25 l 2,20,21
 472 19 472 19 453 14 c 2,22,-1
 420 4 l 1,23,-1
 316 0 l 1,24,-1
 297 4 l 2,25,26
 280 5 280 5 260 12 c 2,27,-1
 195 35 l 1,28,-1
 141 68 l 1,29,-1
 94 109 l 1,30,31
 87 120 87 120 74 135 c 1,32,-1
 39 188 l 1,33,-1
 14 250 l 1,34,-1
 0 322 l 1,35,-1
 0 367 l 1,36,-1
 4 406 l 2,37,38
 6 423 6 423 12 443 c 0,39,40
 15 459 15 459 21 477 c 0,41,42
 25 491 25 491 35 508 c 0,43,44
 40 520 40 520 51 535 c 2,45,-1
 88 586 l 1,46,-1
 109 609 l 1,47,-1
 158 648 l 1,48,-1
 217 678 l 1,49,-1
 285 697 l 1,50,-1
 322 703 l 1,0,-1
299 641 m 1,51,-1
 242 625 l 1,52,-1
 193 600 l 1,53,-1
 152 568 l 1,54,-1
 102 508 l 1,55,-1
 88 484 l 1,56,-1
 68 432 l 1,57,-1
 59 369 l 1,58,-1
 62 299 l 1,59,-1
 78 242 l 1,60,-1
 104 193 l 1,61,-1
 174 117 l 1,62,-1
 219 90 l 1,63,-1
 271 68 l 1,64,-1
 334 59 l 1,65,-1
 404 62 l 1,66,-1
 434 68 l 1,67,-1
 486 90 l 1,68,-1
 531 119 l 1,69,-1
 586 174 l 1,70,-1
 613 219 l 1,71,-1
 635 271 l 1,72,-1
 645 334 l 1,73,-1
 641 404 l 1,74,-1
 625 461 l 1,75,-1
 600 510 l 1,76,-1
 568 551 l 1,77,-1
 529 586 l 1,78,-1
 461 625 l 1,79,-1
 402 641 l 1,80,-1
 369 645 l 1,81,-1
 299 641 l 1,51,-1
EndSplineSet
Validated: 1
EndChar

StartChar: P
Encoding: 80 80 51
Width: 529
Flags: W
LayerCount: 5
Fore
SplineSet
62 707 m 1,0,-1
 162 707 l 1,1,-1
 166 705 l 1,2,-1
 199 703 l 1,3,-1
 283 682 l 1,4,-1
 330 658 l 1,5,6
 338 650 338 650 350 643 c 1,7,-1
 367 625 l 1,8,-1
 393 580 l 1,9,-1
 402 555 l 1,10,-1
 414 471 l 1,11,-1
 412 465 l 1,12,-1
 408 434 l 1,13,-1
 400 406 l 1,14,-1
 375 361 l 1,15,-1
 342 324 l 1,16,-1
 303 293 l 1,17,-1
 184 238 l 1,18,-1
 104 213 l 1,19,-1
 74 207 l 2,20,21
 61 204 61 204 59 188 c 1,22,-1
 59 20 l 1,23,-1
 55 16 l 2,24,25
 47 8 47 8 35 0 c 1,26,27
 22 2 22 2 8 8 c 1,28,29
 3 21 3 21 0 35 c 1,30,-1
 0 684 l 1,31,-1
 8 693 l 1,32,33
 19 699 19 699 31 703 c 2,34,-1
 62 707 l 1,0,-1
59 646 m 1,35,-1
 59 264 l 1,36,-1
 109 277 l 2,37,38
 124 280 124 280 143 287 c 2,39,-1
 176 297 l 1,40,-1
 203 311 l 2,41,42
 218 316 218 316 232 324 c 2,43,-1
 285 357 l 1,44,-1
 307 377 l 1,45,-1
 326 400 l 1,46,-1
 342 428 l 1,47,-1
 352 461 l 1,48,-1
 354 492 l 1,49,-1
 354 498 l 1,50,-1
 352 498 l 1,51,52
 351 513 351 513 344 533 c 1,53,-1
 330 562 l 1,54,-1
 312 586 l 1,55,-1
 289 605 l 2,56,57
 278 613 278 613 262 621 c 0,58,59
 250 627 250 627 232 633 c 1,60,-1
 160 646 l 1,61,-1
 59 646 l 1,35,-1
EndSplineSet
Validated: 1
EndChar

StartChar: Q
Encoding: 81 81 52
Width: 808
Flags: W
LayerCount: 5
Fore
SplineSet
322 706 m 1,0,-1
 424 700 l 1,1,-1
 504 673 l 1,2,-1
 555 644 l 1,3,-1
 598 606 l 1,4,-1
 609 591 l 1,5,-1
 623 579 l 1,6,-1
 656 532 l 1,7,-1
 682 478 l 1,8,-1
 701 390 l 1,9,-1
 703 339 l 1,10,-1
 693 269 l 1,11,-1
 664 190 l 1,12,-1
 633 142 l 1,13,-1
 607 114 l 2,14,15
 601 108 601 108 596 99 c 1,16,-1
 551 63 l 1,17,-1
 518 44 l 1,18,-1
 510 36 l 1,19,-1
 516 32 l 1,20,-1
 527 19 l 1,21,-1
 557 -7 l 1,22,-1
 568 -21 l 1,23,-1
 584 -32 l 1,24,-1
 609 -60 l 1,25,-1
 625 -71 l 1,26,-1
 637 -85 l 2,27,28
 644 -91 644 -91 650 -101 c 1,29,-1
 652 -116 l 1,30,-1
 650 -122 l 1,31,-1
 639 -138 l 1,32,-1
 623 -142 l 1,33,-1
 617 -140 l 2,34,35
 609 -136 609 -136 600 -130 c 1,36,-1
 572 -104 l 1,37,-1
 561 -91 l 1,38,-1
 449 13 l 1,39,-1
 359 1 l 1,40,-1
 307 3 l 1,41,-1
 223 24 l 1,42,-1
 203 32 l 1,43,-1
 152 62 l 1,44,-1
 96 112 l 1,45,-1
 49 171 l 1,46,-1
 16 245 l 1,47,-1
 2 312 l 1,48,-1
 0 362 l 1,49,-1
 4 413 l 1,50,-1
 20 476 l 1,51,-1
 45 530 l 1,52,-1
 66 563 l 1,53,-1
 104 604 l 2,54,55
 111 611 111 611 119 618 c 2,56,-1
 162 653 l 1,57,-1
 215 681 l 1,58,-1
 256 694 l 1,59,-1
 322 706 l 1,0,-1
301 644 m 1,60,-1
 217 616 l 1,61,-1
 172 587 l 1,62,-1
 117 532 l 1,63,-1
 90 487 l 1,64,-1
 68 435 l 1,65,-1
 59 372 l 1,66,-1
 62 302 l 1,67,-1
 78 243 l 1,68,-1
 104 196 l 1,69,-1
 135 155 l 1,70,-1
 195 104 l 1,71,-1
 219 91 l 1,72,-1
 271 71 l 1,73,-1
 334 62 l 1,74,-1
 371 62 l 2,75,76
 386 62 386 62 404 65 c 2,77,-1
 463 81 l 1,78,-1
 510 106 l 1,79,-1
 586 177 l 1,80,-1
 602 198 l 1,81,-1
 635 274 l 1,82,-1
 645 337 l 1,83,-1
 641 407 l 1,84,-1
 625 464 l 1,85,-1
 600 513 l 1,86,-1
 549 571 l 1,87,-1
 529 589 l 1,88,-1
 461 628 l 1,89,-1
 402 644 l 1,90,91
 388 644 388 644 369 647 c 1,92,-1
 301 644 l 1,60,-1
EndSplineSet
Validated: 1
EndChar

StartChar: R
Encoding: 82 82 53
Width: 619
Flags: W
LayerCount: 5
Fore
SplineSet
62 709 m 1,0,-1
 197 706 l 1,1,-1
 264 690 l 1,2,-1
 285 682 l 1,3,-1
 320 663 l 1,4,-1
 352 637 l 1,5,-1
 377 608 l 1,6,-1
 396 573 l 1,7,-1
 404 553 l 1,8,-1
 414 479 l 1,9,-1
 406 432 l 1,10,-1
 379 377 l 1,11,-1
 340 334 l 1,12,-1
 275 288 l 1,13,-1
 258 278 l 2,14,15
 251 275 251 275 246 266 c 1,16,-1
 287 225 l 1,17,-1
 299 209 l 1,18,-1
 340 167 l 2,19,20
 346 161 346 161 352 153 c 2,21,-1
 381 125 l 1,22,-1
 393 110 l 1,23,-1
 514 -17 l 1,24,-1
 525 -33 l 1,25,-1
 539 -46 l 1,26,27
 544 -55 544 -55 547 -68 c 1,28,29
 545 -77 545 -77 539 -87 c 1,30,-1
 520 -95 l 1,31,32
 509 -93 509 -93 498 -87 c 1,33,-1
 404 10 l 1,34,-1
 393 26 l 1,35,-1
 379 40 l 2,36,37
 372 46 372 46 365 55 c 2,38,-1
 311 110 l 1,39,-1
 299 125 l 1,40,-1
 246 182 l 1,41,-1
 230 196 l 1,42,-1
 219 211 l 1,43,-1
 191 239 l 1,44,-1
 186 247 l 1,45,-1
 70 209 l 2,46,47
 62 205 62 205 59 196 c 1,48,-1
 59 30 l 1,49,50
 57 21 57 21 51 10 c 1,51,-1
 31 2 l 1,52,53
 20 4 20 4 10 10 c 1,54,-1
 0 28 l 1,55,-1
 0 663 l 1,56,-1
 2 688 l 1,57,-1
 16 702 l 1,58,-1
 37 708 l 1,59,-1
 62 708 l 1,60,-1
 62 709 l 1,0,-1
61 649 m 1,61,-1
 59 268 l 1,62,-1
 139 292 l 1,63,64
 153 298 153 298 170 303 c 1,65,-1
 256 346 l 1,66,-1
 303 383 l 1,67,-1
 340 432 l 1,68,69
 345 445 345 445 350 463 c 0,70,71
 353 480 353 480 354 502 c 0,72,73
 353 517 353 517 346 538 c 2,74,-1
 334 567 l 1,75,-1
 314 590 l 1,76,-1
 293 610 l 1,77,-1
 264 625 l 1,78,-1
 232 635 l 2,79,80
 217 640 217 640 197 643 c 2,81,-1
 121 651 l 1,82,-1
 61 649 l 1,61,-1
EndSplineSet
Validated: 1
EndChar

StartChar: S
Encoding: 83 83 54
Width: 607
Flags: W
LayerCount: 5
Fore
SplineSet
229 703 m 1,0,-1
 303 701 l 1,1,-1
 363 688 l 1,2,-1
 416 666 l 1,3,-1
 459 635 l 1,4,-1
 492 594 l 1,5,-1
 498 580 l 1,6,-1
 496 564 l 1,7,8
 487 554 487 554 475 547 c 1,9,10
 460 548 460 548 447 557 c 1,11,-1
 432 578 l 1,12,-1
 391 611 l 1,13,-1
 365 625 l 1,14,-1
 309 641 l 1,15,-1
 240 645 l 1,16,-1
 240 643 l 1,17,-1
 207 641 l 1,18,-1
 207 639 l 1,19,20
 193 638 193 638 176 633 c 2,21,-1
 148 623 l 1,22,-1
 104 594 l 1,23,-1
 84 576 l 1,24,25
 77 566 77 566 70 553 c 2,26,-1
 61 525 l 1,27,-1
 61 496 l 1,28,-1
 72 465 l 1,29,-1
 90 443 l 1,30,-1
 109 426 l 1,31,-1
 158 400 l 1,32,-1
 186 391 l 2,33,34
 200 387 200 387 217 385 c 2,35,-1
 320 377 l 1,36,-1
 379 361 l 1,37,-1
 428 336 l 1,38,-1
 469 303 l 1,39,-1
 486 283 l 1,40,-1
 512 232 l 1,41,-1
 518 201 l 1,42,-1
 516 166 l 1,43,-1
 508 137 l 1,44,-1
 496 111 l 1,45,-1
 480 90 l 1,46,-1
 441 55 l 1,47,-1
 369 16 l 1,48,-1
 309 2 l 1,49,-1
 236 0 l 2,50,51
 222 0 222 0 203 4 c 2,52,-1
 170 10 l 1,53,-1
 92 43 l 1,54,-1
 51 76 l 1,55,-1
 18 117 l 1,56,-1
 8 145 l 2,57,58
 4 159 4 159 2 176 c 2,59,-1
 0 203 l 1,60,-1
 2 209 l 1,61,62
 11 219 11 219 23 227 c 1,63,64
 37 227 37 227 53 219 c 1,65,66
 58 206 58 206 61 189 c 2,67,-1
 66 158 l 1,68,-1
 78 133 l 1,69,-1
 117 98 l 1,70,-1
 168 72 l 1,71,-1
 195 64 l 1,72,-1
 258 59 l 1,73,-1
 299 61 l 1,74,-1
 330 66 l 1,75,-1
 383 88 l 1,76,-1
 406 102 l 1,77,-1
 443 139 l 1,78,-1
 453 166 l 1,79,-1
 457 199 l 1,80,-1
 449 229 l 1,81,-1
 436 252 l 1,82,-1
 416 270 l 2,83,84
 407 278 407 278 395 285 c 2,85,-1
 371 299 l 1,86,-1
 314 316 l 1,87,-1
 211 324 l 1,88,-1
 150 338 l 1,89,-1
 100 361 l 1,90,-1
 57 393 l 1,91,-1
 23 434 l 1,92,-1
 10 459 l 1,93,-1
 2 488 l 1,94,-1
 0 523 l 1,95,-1
 6 555 l 1,96,-1
 16 582 l 1,97,-1
 49 623 l 1,98,-1
 88 658 l 1,99,-1
 166 691 l 2,100,101
 180 695 180 695 197 697 c 2,102,-1
 229 703 l 1,0,-1
EndSplineSet
Validated: 1
EndChar

StartChar: T
Encoding: 84 84 55
Width: 651
Flags: W
LayerCount: 5
Fore
SplineSet
21 703 m 1,0,-1
 539 703 l 1,1,2
 551 698 551 698 564 689 c 1,3,-1
 568 670 l 1,4,-1
 562 658 l 1,5,6
 552 650 552 650 537 645 c 1,7,-1
 312 645 l 1,8,-1
 312 35 l 2,9,10
 311 21 311 21 303 6 c 1,11,-1
 287 0 l 1,12,-1
 270 2 l 1,13,14
 261 12 261 12 254 25 c 1,15,-1
 254 645 l 1,16,-1
 39 645 l 2,17,18
 23 646 23 646 8 652 c 1,19,-1
 0 670 l 1,20,-1
 2 684 l 1,21,22
 9 693 9 693 21 703 c 1,0,-1
EndSplineSet
Validated: 1
EndChar

StartChar: U
Encoding: 85 85 56
Width: 646
Flags: W
LayerCount: 5
Fore
SplineSet
20 703 m 1,0,1
 31 703 31 703 45 699 c 1,2,-1
 59 682 l 1,3,-1
 61 156 l 1,4,-1
 64 133 l 1,5,-1
 74 113 l 1,6,-1
 88 98 l 1,7,-1
 105 84 l 1,8,-1
 123 74 l 1,9,-1
 168 61 l 1,10,-1
 311 57 l 1,11,-1
 363 62 l 1,12,-1
 387 68 l 1,13,-1
 441 102 l 1,14,-1
 455 117 l 1,15,-1
 463 139 l 1,16,-1
 465 166 l 1,17,-1
 465 664 l 2,18,19
 465 675 465 675 469 689 c 1,20,-1
 484 703 l 1,21,22
 495 703 495 703 510 699 c 1,23,-1
 523 682 l 1,24,-1
 525 156 l 1,25,-1
 516 107 l 1,26,-1
 494 70 l 1,27,-1
 463 43 l 1,28,29
 454 39 454 39 445 31 c 1,30,31
 436 28 436 28 426 21 c 1,32,-1
 359 0 l 1,33,-1
 160 2 l 1,34,-1
 113 14 l 1,35,-1
 94 23 l 2,36,37
 85 28 85 28 74 35 c 2,38,-1
 43 61 l 1,39,-1
 18 94 l 1,40,-1
 8 115 l 1,41,-1
 0 166 l 1,42,-1
 0 664 l 2,43,44
 0 675 0 675 4 689 c 1,45,-1
 20 703 l 1,0,1
EndSplineSet
Validated: 1
EndChar

StartChar: V
Encoding: 86 86 57
Width: 702
Flags: W
LayerCount: 5
Fore
SplineSet
20 703 m 1,0,-1
 47 699 l 1,1,-1
 295 139 l 2,2,3
 299 130 299 130 305 119 c 1,4,-1
 309 105 l 1,5,-1
 314 111 l 1,6,-1
 520 594 l 2,7,8
 524 603 524 603 527 615 c 2,9,-1
 555 678 l 1,10,-1
 566 695 l 1,11,12
 576 700 576 700 590 703 c 1,13,14
 599 699 599 699 609 691 c 1,15,16
 613 681 613 681 615 668 c 1,17,-1
 355 61 l 1,18,-1
 348 37 l 1,19,-1
 338 18 l 1,20,21
 332 10 332 10 322 2 c 1,22,-1
 303 0 l 1,23,-1
 297 2 l 1,24,-1
 283 20 l 1,25,-1
 2 664 l 1,26,-1
 0 684 l 1,27,-1
 4 689 l 1,28,-1
 20 703 l 1,0,-1
EndSplineSet
Validated: 1
EndChar

StartChar: W
Encoding: 87 87 58
Width: 902
Flags: W
LayerCount: 5
Fore
SplineSet
19 703 m 1,0,1
 30 703 30 703 42 699 c 1,2,3
 48 696 48 696 54 688 c 1,4,-1
 284 123 l 1,5,-1
 292 129 l 1,6,-1
 341 279 l 1,7,-1
 345 299 l 1,8,-1
 358 334 l 1,9,10
 361 350 361 350 370 371 c 2,11,-1
 398 461 l 1,12,-1
 317 660 l 1,13,-1
 314 674 l 1,14,-1
 315 680 l 1,15,-1
 323 697 l 1,16,-1
 343 703 l 1,17,18
 352 702 352 702 362 697 c 1,19,20
 367 691 367 691 372 682 c 2,21,-1
 431 541 l 1,22,-1
 437 521 l 1,23,24
 444 507 444 507 450 488 c 2,25,-1
 603 117 l 1,26,-1
 657 285 l 2,27,28
 664 302 664 302 669 322 c 2,29,-1
 784 678 l 1,30,-1
 792 695 l 1,31,-1
 810 703 l 1,32,-1
 831 699 l 1,33,-1
 843 686 l 1,34,-1
 845 670 l 1,35,-1
 636 25 l 1,36,-1
 628 10 l 1,37,38
 622 5 622 5 612 0 c 1,39,-1
 591 4 l 1,40,41
 585 10 585 10 579 18 c 1,42,-1
 523 158 l 2,43,44
 516 173 516 173 509 193 c 2,45,-1
 437 369 l 1,46,-1
 429 363 l 1,47,-1
 319 25 l 2,48,49
 316 17 316 17 312 10 c 1,50,-1
 294 0 l 1,51,52
 285 1 285 1 274 6 c 1,53,54
 268 11 268 11 263 20 c 2,55,-1
 226 105 l 2,56,57
 221 121 221 121 212 141 c 2,58,-1
 112 389 l 2,59,60
 105 404 105 404 99 424 c 2,61,-1
 11 635 l 1,62,-1
 -1 674 l 1,63,64
 4 690 4 690 19 703 c 1,0,1
EndSplineSet
Validated: 1
EndChar

StartChar: X
Encoding: 88 88 59
Width: 668
Flags: W
LayerCount: 5
Fore
SplineSet
51 703 m 1,0,-1
 66 703 l 1,1,-1
 80 695 l 1,2,-1
 111 654 l 2,3,4
 118 644 118 644 127 635 c 2,5,-1
 277 426 l 1,6,7
 285 432 285 432 293 441 c 2,8,-1
 477 689 l 1,9,10
 485 697 485 697 498 703 c 1,11,12
 511 700 511 700 523 691 c 1,13,14
 527 678 527 678 527 664 c 1,15,-1
 316 373 l 1,16,-1
 467 166 l 1,17,-1
 484 146 l 1,18,-1
 559 41 l 1,19,-1
 562 33 l 1,20,21
 561 24 561 24 557 14 c 1,22,23
 548 7 548 7 535 0 c 1,24,25
 522 3 522 3 510 12 c 1,26,-1
 283 322 l 1,27,28
 275 316 275 316 268 307 c 2,29,-1
 55 18 l 2,30,31
 47 9 47 9 37 0 c 1,32,33
 22 2 22 2 8 8 c 1,34,35
 2 19 2 19 0 33 c 1,36,-1
 12 57 l 1,37,-1
 240 367 l 1,38,39
 239 378 239 378 234 389 c 1,40,-1
 143 512 l 2,41,42
 136 522 136 522 127 531 c 2,43,-1
 37 656 l 2,44,45
 34 662 34 662 31 670 c 1,46,-1
 33 686 l 1,47,-1
 51 703 l 1,0,-1
EndSplineSet
Validated: 1
EndChar

StartChar: Y
Encoding: 89 89 60
Width: 573
Flags: W
LayerCount: 5
Fore
SplineSet
20 703 m 1,0,1
 31 703 31 703 43 699 c 1,2,-1
 57 688 l 1,3,-1
 217 438 l 1,4,-1
 229 424 l 1,5,-1
 248 391 l 1,6,7
 253 392 253 392 258 396 c 2,8,-1
 383 629 l 1,9,-1
 391 646 l 1,10,-1
 400 662 l 1,11,-1
 408 680 l 1,12,-1
 418 695 l 1,13,-1
 438 703 l 1,14,15
 447 701 447 701 457 695 c 1,16,-1
 467 680 l 1,17,-1
 469 674 l 1,18,-1
 465 660 l 1,19,-1
 164 90 l 1,20,-1
 154 74 l 1,21,-1
 146 57 l 1,22,-1
 117 8 l 1,23,-1
 100 0 l 1,24,25
 91 1 91 1 80 6 c 1,26,27
 74 13 74 13 68 21 c 1,28,29
 68 31 68 31 72 43 c 1,30,-1
 213 311 l 1,31,-1
 219 326 l 1,32,-1
 189 375 l 2,33,34
 184 382 184 382 180 391 c 1,35,-1
 168 404 l 1,36,-1
 109 498 l 2,37,38
 104 505 104 505 100 514 c 2,39,-1
 8 654 l 1,40,-1
 0 672 l 1,41,42
 1 681 1 681 6 691 c 1,43,-1
 20 703 l 1,0,1
EndSplineSet
Validated: 1
EndChar

StartChar: Z
Encoding: 90 90 61
Width: 640
Flags: W
LayerCount: 5
Fore
SplineSet
20 703 m 1,0,-1
 518 703 l 1,1,-1
 523 701 l 1,2,3
 532 695 532 695 541 686 c 1,4,-1
 543 664 l 1,5,-1
 539 656 l 1,6,-1
 395 465 l 2,7,8
 388 457 388 457 381 445 c 2,9,-1
 135 119 l 2,10,11
 128 111 128 111 121 100 c 2,12,-1
 92 62 l 1,13,-1
 117 59 l 1,14,-1
 520 59 l 1,15,16
 531 53 531 53 539 43 c 1,17,-1
 543 23 l 1,18,-1
 541 16 l 1,19,-1
 523 0 l 1,20,-1
 25 0 l 1,21,-1
 20 2 l 1,22,23
 11 8 11 8 2 18 c 1,24,-1
 0 39 l 1,25,-1
 4 47 l 1,26,-1
 62 123 l 2,27,28
 69 131 69 131 76 143 c 2,29,-1
 221 332 l 1,30,-1
 234 354 l 1,31,-1
 293 430 l 2,32,33
 300 438 300 438 307 449 c 2,34,-1
 451 641 l 1,35,-1
 426 645 l 1,36,-1
 23 645 l 1,37,38
 12 651 12 651 4 660 c 1,39,-1
 0 680 l 1,40,-1
 2 688 l 1,41,-1
 20 703 l 1,0,-1
EndSplineSet
Validated: 1
EndChar

StartChar: backslash
Encoding: 92 92 63
Width: 349
Flags: W
LayerCount: 5
Fore
SplineSet
53 797 m 1,0,-1
 79 793 l 1,1,-1
 81 789 l 1,2,3
 88 780 88 780 92 768 c 1,4,-1
 188 -76 l 1,5,-1
 184 -82 l 2,6,7
 177 -90 177 -90 167 -98 c 1,8,-1
 149 -98 l 1,9,-1
 139 -90 l 1,10,11
 133 -79 133 -79 129 -66 c 2,12,-1
 32 773 l 1,13,-1
 36 781 l 1,14,15
 43 789 43 789 53 797 c 1,0,-1
EndSplineSet
Validated: 1
EndChar

StartChar: underscore
Encoding: 95 95 66
Width: 637
Flags: W
LayerCount: 5
Fore
SplineSet
-26 -38 m 1,0,1
 -24 -19 -24 -19 -12 -3 c 1,2,3
 9 1 9 1 33 1 c 2,4,-1
 652 1 l 1,5,6
 666 -6 666 -6 677 -21 c 1,7,8
 676 -39 676 -39 664 -56 c 1,9,10
 643 -60 643 -60 619 -60 c 2,11,-1
 -0 -60 l 1,12,13
 -14 -53 -14 -53 -26 -38 c 1,0,1
EndSplineSet
Validated: 1
EndChar

StartChar: a
Encoding: 97 97 68
Width: 655
Flags: W
LayerCount: 5
Fore
SplineSet
230 508 m 1,0,-1
 303 504 l 1,1,-1
 359 486 l 1,2,-1
 385 475 l 1,3,-1
 445 424 l 1,4,-1
 449 449 l 1,5,-1
 449 479 l 1,6,-1
 451 484 l 1,7,8
 457 495 457 495 467 506 c 1,9,-1
 486 508 l 1,10,-1
 496 502 l 1,11,12
 504 491 504 491 510 477 c 1,13,-1
 510 29 l 1,14,15
 505 17 505 17 496 6 c 1,16,-1
 482 0 l 1,17,-1
 467 2 l 1,18,19
 458 11 458 11 451 23 c 1,20,-1
 449 61 l 2,21,22
 449 74 449 74 445 84 c 1,23,-1
 406 49 l 1,24,-1
 359 21 l 1,25,-1
 332 10 l 1,26,-1
 303 4 l 2,27,28
 288 1 288 1 268 0 c 2,29,-1
 230 0 l 2,30,31
 216 1 216 1 199 6 c 2,32,-1
 170 14 l 1,33,-1
 119 39 l 1,34,-1
 78 72 l 1,35,-1
 61 90 l 1,36,-1
 29 135 l 1,37,-1
 8 188 l 1,38,39
 7 202 7 202 2 219 c 1,40,-1
 0 254 l 1,41,-1
 2 289 l 1,42,-1
 18 348 l 1,43,-1
 29 373 l 1,44,-1
 61 418 l 1,45,-1
 98 455 l 1,46,-1
 143 484 l 1,47,-1
 199 502 l 1,48,-1
 230 508 l 1,0,-1
240 449 m 1,49,-1
 197 441 l 1,50,-1
 162 428 l 1,51,-1
 133 408 l 1,52,-1
 107 385 l 1,53,-1
 88 357 l 1,54,-1
 70 324 l 1,55,-1
 62 285 l 1,56,-1
 61 238 l 2,57,58
 62 219 62 219 68 197 c 0,59,60
 72 180 72 180 82 162 c 0,61,62
 89 148 89 148 102 133 c 0,63,64
 112 120 112 120 125 107 c 2,65,-1
 152 86 l 1,66,67
 166 78 166 78 186 70 c 0,68,69
 203 64 203 64 225 61 c 1,70,-1
 271 59 l 1,71,72
 290 61 290 61 312 66 c 1,73,-1
 348 80 l 1,74,-1
 377 100 l 1,75,-1
 402 123 l 1,76,-1
 422 150 l 2,77,78
 430 164 430 164 438 184 c 0,79,80
 444 201 444 201 447 223 c 1,81,-1
 449 270 l 2,82,83
 448 289 448 289 441 311 c 0,84,85
 437 328 437 328 428 346 c 0,86,87
 421 360 421 360 408 375 c 0,88,89
 400 388 400 388 385 400 c 2,90,-1
 357 422 l 1,91,-1
 324 438 l 1,92,-1
 285 447 l 1,93,-1
 240 449 l 1,49,-1
EndSplineSet
Validated: 1
EndChar

StartChar: b
Encoding: 98 98 69
Width: 610
Flags: W
LayerCount: 5
Fore
SplineSet
19.5 703 m 5,0,1
 36.5 703 36.5 703 52.5 691 c 5,2,3
 58.5 674 58.5 674 58.5 654 c 6,4,-1
 58.5 418 l 5,5,-1
 93.5 451 l 5,6,-1
 118.5 469 l 6,7,8
 129.5 478 129.5 478 145.5 484 c 4,9,10
 158.5 491 158.5 491 177.5 496 c 4,11,12
 193.5 502 193.5 502 212.5 504 c 4,13,14
 231.5 507 231.5 507 253.5 508 c 6,15,-1
 294.5 506 l 5,16,-1
 329.5 498 l 5,17,-1
 360.5 484 l 6,18,19
 373.5 480 373.5 480 388.5 469 c 6,20,-1
 437.5 432 l 5,21,-1
 474.5 381 l 6,22,23
 481.5 368 481.5 368 487.5 352 c 4,24,25
 493.5 338 493.5 338 499.5 320 c 6,26,-1
 507.5 283 l 5,27,-1
 503.5 201 l 5,28,-1
 493.5 168 l 6,29,30
 489.5 154 489.5 154 479.5 137 c 6,31,-1
 464.5 109 l 5,32,-1
 423.5 64 l 6,33,34
 413.5 55 413.5 55 397.5 45 c 6,35,-1
 343.5 14 l 5,36,37
 328.5 11 328.5 11 310.5 4 c 5,38,-1
 226.5 0 l 5,39,40
 209.5 2 209.5 2 188.5 8 c 4,41,42
 174.5 11 174.5 11 157.5 18 c 6,43,-1
 126.5 31 l 5,44,-1
 58.5 88 l 5,45,-1
 58.5 21 l 5,46,-1
 50.5 10 l 5,47,-1
 38.5 0 l 5,48,-1
 17.5 2 l 5,49,50
 5.5 11 5.5 11 -0.5 27 c 5,51,-1
 -0.5 680 l 5,52,53
 6.5 692 6.5 692 19.5 703 c 5,0,1
237.5 449 m 5,54,-1
 194.5 441 l 5,55,56
 178.5 436 178.5 436 161.5 426 c 4,57,58
 147.5 419 147.5 419 130.5 408 c 5,59,-1
 106.5 383 l 6,60,61
 95.5 372 95.5 372 85.5 355 c 4,62,63
 77.5 341 77.5 341 69.5 322 c 4,64,65
 63.5 305 63.5 305 60.5 283 c 5,66,-1
 58.5 236 l 5,67,-1
 65.5 195 l 5,68,69
 70.5 179 70.5 179 81.5 162 c 4,70,71
 88.5 148 88.5 148 101.5 133 c 4,72,73
 109.5 121 109.5 121 124.5 107 c 4,74,75
 135.5 96 135.5 96 151.5 86 c 4,76,77
 165.5 78 165.5 78 185.5 70 c 4,78,79
 202.5 64 202.5 64 224.5 61 c 5,80,-1
 270.5 59 l 5,81,-1
 311.5 66 l 5,82,-1
 347.5 80 l 5,83,84
 360.5 88 360.5 88 374.5 102 c 5,85,86
 387.5 110 387.5 110 399.5 125 c 4,87,88
 410.5 136 410.5 136 421.5 152 c 4,89,90
 431.5 165 431.5 165 437.5 186 c 4,91,92
 443.5 203 443.5 203 446.5 225 c 5,93,-1
 448.5 271 l 5,94,-1
 440.5 312 l 5,95,-1
 427.5 346 l 5,96,-1
 407.5 375 l 5,97,-1
 384.5 400 l 5,98,-1
 356.5 422 l 5,99,-1
 323.5 438 l 5,100,-1
 284.5 447 l 5,101,-1
 237.5 449 l 5,54,-1
EndSplineSet
Validated: 524289
EndChar

StartChar: c
Encoding: 99 99 70
Width: 610
Flags: W
LayerCount: 5
Fore
SplineSet
230 508 m 5,0,-1
 305 504 l 5,1,-1
 363 486 l 5,2,-1
 410 457 l 5,3,-1
 424 445 l 6,4,5
 430 439 430 439 438 434 c 5,6,-1
 461 406 l 5,7,-1
 471 391 l 5,8,-1
 479 373 l 5,9,-1
 480 367 l 5,10,-1
 477 354 l 5,11,12
 471 348 471 348 463 342 c 5,13,14
 453 339 453 339 439 338 c 5,15,-1
 426 350 l 5,16,-1
 416 365 l 5,17,-1
 393 393 l 5,18,-1
 365 416 l 5,19,-1
 350 426 l 5,20,-1
 314 441 l 5,21,-1
 246 449 l 5,22,-1
 203 443 l 5,23,-1
 148 420 l 5,24,-1
 107 385 l 5,25,-1
 98 369 l 5,26,-1
 86 355 l 5,27,-1
 78 338 l 6,28,29
 74 331 74 331 70 320 c 6,30,-1
 61 279 l 5,31,-1
 61 229 l 5,32,-1
 76 170 l 5,33,-1
 107 123 l 5,34,-1
 148 88 l 5,35,-1
 201 64 l 5,36,-1
 244 59 l 5,37,-1
 293 61 l 5,38,-1
 350 82 l 5,39,-1
 379 102 l 5,40,-1
 416 141 l 5,41,-1
 426 156 l 5,42,43
 432 162 432 162 441 168 c 5,44,-1
 465 166 l 5,45,-1
 477 152 l 5,46,-1
 480 139 l 5,47,-1
 479 133 l 6,48,49
 476 124 476 124 469 115 c 6,50,-1
 436 74 l 6,51,52
 430 68 430 68 422 62 c 6,53,-1
 393 39 l 5,54,-1
 377 29 l 5,55,-1
 342 14 l 5,56,-1
 279 0 l 5,57,-1
 229 0 l 5,58,-1
 186 8 l 5,59,-1
 148 21 l 5,60,-1
 102 51 l 5,61,-1
 62 88 l 5,62,-1
 41 117 l 6,63,64
 36 124 36 124 31 133 c 6,65,-1
 21 150 l 5,66,-1
 4 209 l 5,67,-1
 0 256 l 5,68,-1
 4 303 l 5,69,-1
 31 377 l 5,70,-1
 51 408 l 6,71,72
 56 414 56 414 62 422 c 5,73,-1
 76 434 l 5,74,-1
 88 447 l 5,75,76
 95 452 95 452 102 459 c 5,77,-1
 133 479 l 5,78,-1
 168 494 l 5,79,-1
 230 508 l 5,0,-1
EndSplineSet
Validated: 1
EndChar

StartChar: d
Encoding: 100 100 71
Width: 625
Flags: W
LayerCount: 5
Fore
SplineSet
469 703 m 1,0,1
 486 703 486 703 502 691 c 1,2,3
 508 674 508 674 508 654 c 2,4,-1
 508 23 l 1,5,6
 505 17 505 17 500 10 c 1,7,-1
 490 2 l 1,8,9
 483 1 483 1 475 0 c 1,10,-1
 469 2 l 1,11,12
 456 10 456 10 449 27 c 1,13,-1
 449 90 l 1,14,-1
 447 90 l 1,15,-1
 416 57 l 1,16,-1
 391 39 l 2,17,18
 380 30 380 30 363 23 c 2,19,-1
 334 10 l 1,20,-1
 299 2 l 1,21,-1
 215 2 l 1,22,-1
 180 10 l 1,23,-1
 148 21 l 1,24,-1
 121 37 l 2,25,26
 109 44 109 44 96 57 c 2,27,-1
 72 76 l 1,28,-1
 35 127 l 1,29,-1
 21 154 l 2,30,31
 15 168 15 168 10 188 c 2,32,-1
 2 223 l 1,33,-1
 0 258 l 1,34,-1
 2 264 l 1,35,-1
 4 291 l 2,36,37
 4 298 4 298 6 301 c 2,38,-1
 14 338 l 1,39,-1
 27 367 l 2,40,41
 32 379 32 379 43 395 c 0,42,43
 50 406 50 406 62 420 c 1,44,-1
 107 461 l 1,45,-1
 133 479 l 1,46,-1
 162 492 l 1,47,-1
 234 508 l 1,48,-1
 277 508 l 1,49,-1
 314 502 l 2,50,51
 329 498 329 498 348 490 c 0,52,53
 362 486 362 486 377 477 c 2,54,-1
 404 461 l 1,55,-1
 449 420 l 1,56,-1
 449 680 l 1,57,58
 456 692 456 692 469 703 c 1,0,1
238 449 m 1,59,-1
 195 441 l 1,60,-1
 162 428 l 1,61,-1
 133 408 l 2,62,63
 121 398 121 398 107 383 c 2,64,-1
 86 355 l 1,65,66
 79 341 79 341 72 322 c 0,67,68
 66 305 66 305 62 283 c 1,69,-1
 61 236 l 1,70,-1
 68 195 l 1,71,-1
 82 160 l 1,72,73
 89 147 89 147 104 133 c 1,74,75
 112 119 112 119 127 107 c 1,76,77
 138 96 138 96 154 86 c 0,78,79
 168 77 168 77 188 70 c 0,80,81
 205 64 205 64 227 61 c 1,82,-1
 273 59 l 1,83,-1
 314 66 l 1,84,-1
 348 80 l 1,85,-1
 377 100 l 1,86,-1
 402 125 l 1,87,-1
 422 152 l 2,88,89
 430 166 430 166 438 186 c 1,90,-1
 447 225 l 1,91,-1
 449 271 l 1,92,-1
 441 312 l 2,93,94
 436 328 436 328 426 346 c 0,95,96
 419 360 419 360 408 377 c 1,97,98
 398 389 398 389 383 400 c 1,99,100
 372 411 372 411 355 422 c 0,101,102
 341 430 341 430 322 438 c 1,103,-1
 283 447 l 1,104,-1
 238 449 l 1,59,-1
EndSplineSet
Validated: 1
EndChar

StartChar: e
Encoding: 101 101 72
Width: 630
Flags: W
LayerCount: 5
Fore
SplineSet
232 508 m 1,0,-1
 305 504 l 1,1,-1
 346 494 l 1,2,-1
 410 459 l 1,3,-1
 459 408 l 1,4,-1
 488 363 l 1,5,-1
 502 326 l 1,6,-1
 512 262 l 1,7,-1
 508 240 l 1,8,-1
 496 227 l 1,9,-1
 473 225 l 1,10,-1
 64 225 l 1,11,-1
 70 191 l 1,12,-1
 86 156 l 1,13,-1
 96 141 l 2,14,15
 101 136 101 136 107 129 c 2,16,-1
 131 104 l 1,17,-1
 145 92 l 1,18,-1
 160 82 l 1,19,-1
 195 66 l 1,20,-1
 236 59 l 1,21,-1
 283 59 l 1,22,-1
 283 61 l 1,23,24
 293 62 293 62 305 64 c 2,25,-1
 324 68 l 1,26,-1
 342 76 l 1,27,-1
 373 96 l 1,28,-1
 422 146 l 1,29,-1
 430 164 l 1,30,-1
 440 180 l 2,31,32
 443 187 443 187 447 195 c 1,33,-1
 465 205 l 1,34,35
 474 204 474 204 484 199 c 1,36,37
 490 194 490 194 496 186 c 1,38,-1
 498 170 l 1,39,-1
 481 131 l 1,40,-1
 438 74 l 1,41,-1
 397 41 l 1,42,-1
 365 21 l 1,43,-1
 309 4 l 1,44,-1
 287 0 l 1,45,-1
 215 2 l 1,46,-1
 174 12 l 1,47,-1
 94 57 l 1,48,-1
 82 70 l 1,49,-1
 68 82 l 1,50,-1
 27 141 l 1,51,-1
 8 195 l 1,52,-1
 4 217 l 1,53,-1
 2 266 l 1,54,-1
 12 330 l 1,55,-1
 20 348 l 2,56,57
 23 356 23 356 27 365 c 2,58,-1
 45 396 l 1,59,-1
 92 449 l 1,60,-1
 137 479 l 1,61,-1
 172 494 l 1,62,-1
 232 508 l 1,0,-1
242 449 m 1,63,-1
 186 436 l 1,64,-1
 160 426 l 1,65,-1
 121 396 l 1,66,-1
 90 357 l 1,67,-1
 68 311 l 1,68,-1
 64 291 l 1,69,-1
 66 283 l 1,70,-1
 447 283 l 1,71,-1
 445 311 l 1,72,-1
 424 357 l 1,73,-1
 410 377 l 1,74,-1
 375 410 l 1,75,-1
 330 436 l 1,76,-1
 305 443 l 1,77,-1
 273 447 l 2,78,79
 260 449 260 449 242 449 c 1,63,-1
EndSplineSet
Validated: 1
EndChar

StartChar: f
Encoding: 102 102 73
Width: 365
Flags: W
LayerCount: 5
Fore
SplineSet
180 703 m 5,0,1
 193 702 193 702 207 697 c 5,2,-1
 219 678 l 5,3,-1
 211 652 l 5,4,5
 203 646 203 646 195 637 c 6,6,-1
 180 619 l 5,7,-1
 168 600 l 5,8,-1
 152 553 l 5,9,-1
 146 508 l 5,10,-1
 215 508 l 5,11,-1
 221 506 l 5,12,13
 229 501 229 501 238 492 c 5,14,-1
 240 471 l 5,15,-1
 236 465 l 6,16,17
 230 458 230 458 221 451 c 5,18,-1
 158 449 l 5,19,20
 151 440 151 440 150 426 c 6,21,-1
 150 45 l 6,22,23
 150 32 150 32 146 18 c 5,24,25
 140 10 140 10 131 2 c 5,26,-1
 109 0 l 5,27,-1
 104 4 l 5,28,29
 97 13 97 13 92 23 c 5,30,31
 90 37 90 37 90 55 c 6,32,-1
 90 449 l 5,33,-1
 43 449 l 6,34,35
 30 449 30 449 16 453 c 5,36,37
 8 460 8 460 0 471 c 5,38,39
 1 484 1 484 6 496 c 5,40,41
 15 503 15 503 27 508 c 5,42,-1
 80 508 l 5,43,-1
 88 510 l 5,44,-1
 90 539 l 5,45,-1
 102 592 l 5,46,-1
 133 656 l 5,47,-1
 162 689 l 5,48,-1
 180 703 l 5,0,1
EndSplineSet
Validated: 1
EndChar

StartChar: g
Encoding: 103 103 74
Width: 617
Flags: W
LayerCount: 5
Fore
SplineSet
433 544 m 5,0,-1
 458 542 l 5,1,2
 465 536 465 536 472 528 c 5,3,-1
 476 513 l 5,4,-1
 474 507 l 5,5,-1
 462 491 l 5,6,-1
 423 450 l 5,7,-1
 460 407 l 5,8,-1
 490 356 l 5,9,-1
 497 339 l 5,10,-1
 507 296 l 5,11,-1
 509 243 l 5,12,-1
 503 196 l 5,13,-1
 497 175 l 5,14,-1
 482 138 l 5,15,-1
 449 91 l 5,16,-1
 423 63 l 5,17,18
 415 58 415 58 408 52 c 5,19,-1
 357 22 l 5,20,-1
 318 9 l 5,21,-1
 269 3 l 6,22,23
 259 3 259 3 249 -3 c 5,24,-1
 288 -17 l 5,25,-1
 320 -40 l 5,26,-1
 331 -54 l 6,27,28
 337 -60 337 -60 343 -69 c 6,29,-1
 363 -103 l 5,30,-1
 368 -124 l 5,31,-1
 370 -175 l 5,32,-1
 367 -198 l 5,33,-1
 351 -235 l 5,34,-1
 341 -251 l 5,35,-1
 316 -280 l 5,36,-1
 265 -310 l 5,37,-1
 243 -315 l 5,38,-1
 193 -317 l 5,39,-1
 169 -313 l 5,40,-1
 132 -298 l 5,41,-1
 103 -274 l 6,42,43
 95 -269 95 -269 89 -261 c 4,44,45
 83 -254 83 -254 77 -245 c 4,46,47
 72 -238 72 -238 68 -229 c 6,48,-1
 54 -188 l 5,49,-1
 50 -165 l 5,50,-1
 56 -118 l 5,51,-1
 62 -97 l 5,52,-1
 81 -63 l 5,53,-1
 93 -48 l 5,54,-1
 122 -24 l 5,55,-1
 160 -7 l 5,56,-1
 179 -1 l 5,57,-1
 187 9 l 5,58,-1
 183 13 l 5,59,-1
 144 26 l 5,60,-1
 111 46 l 5,61,-1
 95 58 l 5,62,-1
 56 99 l 5,63,-1
 25 147 l 5,64,-1
 5 208 l 5,65,-1
 1 231 l 5,66,-1
 1 259 l 5,67,-1
 5 308 l 5,68,-1
 25 368 l 5,69,-1
 56 417 l 5,70,-1
 97 456 l 5,71,-1
 146 487 l 5,72,-1
 206 507 l 5,73,-1
 255 511 l 5,74,-1
 304 507 l 5,75,-1
 347 495 l 5,76,-1
 365 487 l 5,77,-1
 370 483 l 5,78,-1
 394 505 l 5,79,-1
 406 519 l 5,80,-1
 433 544 l 5,0,-1
240 452 m 5,81,-1
 197 444 l 5,82,83
 181 439 181 439 163 429 c 4,84,85
 149 422 149 422 132 411 c 5,86,-1
 109 386 l 6,87,88
 98 375 98 375 87 358 c 4,89,90
 79 344 79 344 72 325 c 4,91,92
 66 308 66 308 62 286 c 5,93,-1
 60 239 l 5,94,-1
 68 198 l 5,95,96
 73 182 73 182 83 165 c 4,97,98
 90 151 90 151 103 136 c 4,99,100
 111 124 111 124 126 110 c 4,101,102
 137 99 137 99 154 89 c 4,103,104
 168 81 168 81 187 73 c 4,105,106
 204 67 204 67 226 63 c 5,107,-1
 273 62 l 5,108,-1
 314 69 l 5,109,110
 330 74 330 74 347 85 c 4,111,112
 361 92 361 92 376 104 c 5,113,114
 389 112 389 112 402 128 c 4,115,116
 413 139 413 139 423 155 c 4,117,118
 432 168 432 168 439 188 c 4,119,120
 445 205 445 205 449 228 c 5,121,-1
 451 274 l 5,122,-1
 443 315 l 5,123,-1
 429 349 l 5,124,-1
 410 378 l 5,125,-1
 386 403 l 5,126,-1
 359 425 l 5,127,-1
 326 440 l 5,128,-1
 286 450 l 5,129,-1
 240 452 l 5,81,-1
195 -58 m 5,130,-1
 173 -63 l 5,131,-1
 158 -71 l 5,132,-1
 142 -83 l 5,133,-1
 130 -97 l 5,134,-1
 120 -112 l 5,135,-1
 115 -130 l 5,136,-1
 111 -151 l 5,137,-1
 117 -196 l 5,138,-1
 126 -212 l 6,139,140
 129 -218 129 -218 136 -224 c 6,141,-1
 148 -237 l 5,142,-1
 163 -247 l 5,143,-1
 181 -255 l 5,144,-1
 202 -259 l 5,145,-1
 226 -259 l 5,146,-1
 247 -253 l 5,147,-1
 263 -245 l 5,148,-1
 279 -233 l 5,149,-1
 300 -206 l 5,150,-1
 308 -188 l 5,151,-1
 312 -167 l 5,152,-1
 306 -122 l 5,153,-1
 298 -104 l 5,154,-1
 286 -91 l 5,155,-1
 273 -79 l 6,156,157
 266 -74 266 -74 257 -69 c 6,158,-1
 240 -62 l 5,159,-1
 218 -58 l 5,160,-1
 195 -58 l 5,130,-1
EndSplineSet
Validated: 1
EndChar

StartChar: h
Encoding: 104 104 75
Width: 520
Flags: W
LayerCount: 5
Fore
SplineSet
21 703 m 1,0,1
 33 702 33 702 45 699 c 1,2,-1
 57 688 l 1,3,-1
 61 666 l 1,4,-1
 61 447 l 1,5,-1
 62 449 l 1,6,-1
 211 500 l 1,7,-1
 279 508 l 1,8,-1
 301 506 l 1,9,-1
 340 494 l 1,10,-1
 354 482 l 1,11,-1
 365 469 l 1,12,-1
 379 434 l 1,13,-1
 381 311 l 1,14,-1
 379 289 l 1,15,-1
 379 39 l 1,16,-1
 377 16 l 1,17,18
 372 10 372 10 363 4 c 1,19,-1
 342 0 l 1,20,-1
 328 10 l 1,21,22
 323 19 323 19 320 29 c 1,23,-1
 320 400 l 1,24,-1
 322 410 l 1,25,-1
 320 412 l 1,26,-1
 320 422 l 1,27,-1
 312 439 l 1,28,-1
 295 447 l 1,29,-1
 248 445 l 2,30,31
 239 444 239 444 229 441 c 2,32,-1
 113 406 l 1,33,-1
 62 383 l 1,34,-1
 61 361 l 1,35,-1
 61 23 l 1,36,-1
 57 18 l 1,37,-1
 45 4 l 1,38,-1
 23 0 l 1,39,-1
 8 10 l 1,40,-1
 0 27 l 1,41,-1
 0 676 l 1,42,43
 6 691 6 691 21 703 c 1,0,1
EndSplineSet
Validated: 1
EndChar

StartChar: i
Encoding: 105 105 76
Width: 255
Flags: W
LayerCount: 5
Fore
SplineSet
45 684 m 5,0,-1
 76 684 l 5,1,-1
 98 674 l 5,2,-1
 113 658 l 5,3,-1
 123 637 l 5,4,-1
 125 617 l 5,5,-1
 123 609 l 6,6,7
 119 600 119 600 113 590 c 4,8,9
 107 582 107 582 98 574 c 6,10,-1
 78 562 l 5,11,-1
 57 561 l 5,12,-1
 51 562 l 6,13,14
 41 565 41 565 29 572 c 6,15,-1
 12 586 l 5,16,-1
 2 607 l 5,17,-1
 0 629 l 5,18,-1
 10 656 l 5,19,20
 16 664 16 664 25 672 c 6,21,-1
 45 684 l 5,0,-1
51 465 m 5,22,23
 65 465 65 465 80 461 c 5,24,25
 86 452 86 452 92 439 c 5,26,-1
 90 18 l 5,27,28
 83 10 83 10 72 2 c 5,29,30
 65 1 65 1 57 0 c 5,31,-1
 51 2 l 5,32,-1
 45 6 l 5,33,-1
 33 25 l 5,34,-1
 33 418 l 5,35,-1
 35 447 l 5,36,37
 42 456 42 456 51 465 c 5,22,23
EndSplineSet
Validated: 1
EndChar

StartChar: j
Encoding: 106 106 77
Width: 263
Flags: W
LayerCount: 5
Fore
SplineSet
44 681 m 5,0,-1
 75 681 l 5,1,-1
 97 671 l 5,2,-1
 112 656 l 5,3,-1
 122 634 l 5,4,-1
 124 615 l 5,5,-1
 122 607 l 6,6,7
 118 598 118 598 112 587 c 4,8,9
 106 579 106 579 97 572 c 6,10,-1
 77 560 l 5,11,-1
 56 558 l 5,12,-1
 50 560 l 6,13,14
 40 563 40 563 28 570 c 6,15,-1
 11 583 l 5,16,-1
 1 605 l 5,17,-1
 -1 626 l 5,18,-1
 9 654 l 5,19,20
 15 662 15 662 24 669 c 6,21,-1
 44 681 l 5,0,-1
50 458 m 5,22,-1
 77 457 l 5,23,-1
 87 445 l 5,24,25
 91 424 91 424 91 400 c 6,26,-1
 91 -22 l 5,27,-1
 89 -38 l 6,28,29
 86 -56 86 -56 79 -77 c 4,30,31
 75 -93 75 -93 66 -112 c 6,32,-1
 50 -145 l 5,33,-1
 28 -172 l 6,34,35
 19 -184 19 -184 3 -196 c 5,36,-1
 -17 -198 l 5,37,-1
 -32 -184 l 5,38,39
 -35 -174 -35 -174 -36 -161 c 5,40,-1
 -28 -147 l 5,41,42
 -17 -136 -17 -136 -7 -120 c 4,43,44
 3 -107 3 -107 11 -88 c 4,45,46
 19 -73 19 -73 24 -53 c 4,47,48
 29 -35 29 -35 32 -12 c 5,49,-1
 32 427 l 5,50,51
 36 444 36 444 50 458 c 5,22,-1
EndSplineSet
Validated: 1
EndChar

StartChar: k
Encoding: 107 107 78
Width: 445
Flags: W
LayerCount: 5
Fore
SplineSet
20 703 m 1,0,1
 31 703 31 703 43 699 c 1,2,3
 49 696 49 696 55 688 c 1,4,5
 58 678 58 678 59 664 c 2,6,-1
 59 164 l 1,7,-1
 150 191 l 1,8,-1
 209 332 l 1,9,-1
 215 352 l 2,10,11
 219 358 219 358 223 367 c 2,12,-1
 238 402 l 1,13,-1
 244 422 l 1,14,15
 248 429 248 429 252 439 c 2,16,-1
 268 473 l 2,17,18
 273 480 273 480 281 486 c 1,19,-1
 303 488 l 1,20,-1
 316 477 l 1,21,-1
 322 457 l 1,22,23
 320 448 320 448 314 438 c 2,24,-1
 293 385 l 1,25,-1
 287 365 l 2,26,27
 283 359 283 359 279 350 c 2,28,-1
 264 314 l 1,29,-1
 258 295 l 2,30,31
 254 289 254 289 250 279 c 2,32,-1
 234 244 l 1,33,-1
 229 225 l 1,34,-1
 213 191 l 1,35,-1
 207 172 l 1,36,-1
 219 158 l 2,37,38
 225 152 225 152 230 145 c 2,39,-1
 266 105 l 2,40,41
 272 100 272 100 277 92 c 2,42,-1
 324 39 l 1,43,-1
 322 16 l 1,44,-1
 311 2 l 1,45,-1
 287 0 l 1,46,-1
 271 10 l 1,47,-1
 166 131 l 1,48,-1
 156 133 l 1,49,-1
 148 129 l 1,50,-1
 72 105 l 2,51,52
 65 102 65 102 59 96 c 1,53,-1
 59 21 l 1,54,-1
 47 6 l 1,55,-1
 27 0 l 1,56,57
 18 2 18 2 10 8 c 1,58,59
 5 14 5 14 0 23 c 1,60,-1
 0 672 l 2,61,62
 1 681 1 681 6 691 c 1,63,-1
 20 703 l 1,0,1
EndSplineSet
Validated: 1
EndChar

StartChar: l
Encoding: 108 108 79
Width: 229
Flags: W
LayerCount: 5
Fore
SplineSet
21 703 m 1,0,1
 40 701 40 701 57 689 c 1,2,3
 61 668 61 668 61 645 c 2,4,-1
 61 25 l 1,5,6
 54 11 54 11 39 0 c 1,7,8
 21 1 21 1 4 14 c 1,9,10
 0 35 0 35 0 59 c 2,11,-1
 0 678 l 1,12,13
 6 691 6 691 21 703 c 1,0,1
EndSplineSet
Validated: 1
EndChar

StartChar: m
Encoding: 109 109 80
Width: 819
Flags: W
LayerCount: 5
Fore
SplineSet
21 506 m 1,0,1
 35 505 35 505 51 500 c 1,2,3
 57 489 57 489 61 475 c 1,4,5
 61 462 61 462 64 447 c 1,6,-1
 217 502 l 1,7,-1
 246 506 l 1,8,-1
 281 506 l 1,9,-1
 311 500 l 1,10,-1
 334 490 l 1,11,-1
 352 475 l 1,12,-1
 365 453 l 1,13,-1
 367 445 l 1,14,-1
 512 496 l 1,15,-1
 570 506 l 1,16,-1
 596 506 l 1,17,-1
 602 504 l 1,18,-1
 631 498 l 1,19,-1
 652 486 l 1,20,-1
 670 469 l 1,21,22
 675 459 675 459 680 445 c 2,23,-1
 686 416 l 1,24,-1
 684 41 l 1,25,26
 681 29 681 29 672 18 c 1,27,28
 661 13 661 13 646 10 c 1,29,30
 636 16 636 16 627 25 c 1,31,32
 624 39 624 39 623 57 c 2,33,-1
 623 125 l 1,34,35
 625 139 625 139 625 156 c 2,36,-1
 625 396 l 2,37,38
 625 410 625 410 621 426 c 1,39,-1
 605 443 l 1,40,-1
 572 445 l 2,41,42
 558 444 558 444 543 441 c 2,43,-1
 463 420 l 1,44,-1
 391 389 l 2,45,46
 379 384 379 384 375 371 c 1,47,-1
 375 37 l 1,48,-1
 373 31 l 1,49,50
 367 21 367 21 357 12 c 1,51,-1
 336 10 l 1,52,-1
 328 14 l 1,53,54
 321 23 321 23 314 35 c 1,55,-1
 314 104 l 1,56,-1
 316 131 l 1,57,-1
 316 408 l 1,58,-1
 309 434 l 1,59,60
 299 441 299 441 285 445 c 1,61,62
 271 447 271 447 254 447 c 1,63,-1
 172 428 l 1,64,-1
 74 387 l 2,65,66
 62 382 62 382 61 367 c 1,67,-1
 61 25 l 1,68,69
 56 14 56 14 47 4 c 1,70,71
 34 0 34 0 20 0 c 1,72,73
 11 6 11 6 2 16 c 1,74,-1
 0 117 l 1,75,76
 2 131 2 131 2 148 c 2,77,-1
 2 482 l 1,78,-1
 4 488 l 1,79,-1
 21 506 l 1,0,1
EndSplineSet
Validated: 1
EndChar

StartChar: n
Encoding: 110 110 81
Width: 543
Flags: W
LayerCount: 5
Fore
SplineSet
21 508 m 1,0,-1
 41 508 l 1,1,2
 48 503 48 503 55 494 c 1,3,4
 60 477 60 477 61 455 c 2,5,-1
 61 445 l 1,6,-1
 188 488 l 1,7,-1
 262 504 l 1,8,-1
 303 508 l 1,9,-1
 344 504 l 2,10,11
 360 501 360 501 377 492 c 0,12,13
 389 484 389 484 402 471 c 1,14,15
 411 459 411 459 418 441 c 1,16,17
 421 422 421 422 422 400 c 2,18,-1
 420 20 l 1,19,-1
 410 8 l 1,20,-1
 398 0 l 1,21,-1
 375 4 l 1,22,23
 364 18 364 18 361 37 c 1,24,-1
 361 396 l 1,25,-1
 363 408 l 1,26,-1
 361 412 l 1,27,-1
 361 424 l 1,28,-1
 359 428 l 2,29,30
 359 430 359 430 355 432 c 0,31,32
 343 443 343 443 326 447 c 1,33,-1
 281 447 l 1,34,-1
 139 412 l 1,35,-1
 61 383 l 1,36,-1
 59 18 l 1,37,-1
 47 6 l 1,38,-1
 35 0 l 1,39,-1
 12 4 l 1,40,41
 3 18 3 18 0 37 c 1,42,-1
 0 309 l 1,43,-1
 2 338 l 1,44,-1
 2 482 l 1,45,46
 7 497 7 497 21 508 c 1,0,-1
EndSplineSet
Validated: 1
EndChar

StartChar: o
Encoding: 111 111 82
Width: 630
Flags: W
LayerCount: 5
Fore
SplineSet
229 508 m 1,0,-1
 291 506 l 1,1,-1
 316 500 l 2,2,3
 328 497 328 497 342 492 c 2,4,-1
 365 484 l 1,5,-1
 404 459 l 1,6,-1
 453 414 l 1,7,-1
 479 375 l 1,8,-1
 498 332 l 1,9,-1
 508 279 l 1,10,-1
 506 217 l 1,11,-1
 494 166 l 1,12,-1
 484 143 l 1,13,-1
 459 104 l 1,14,-1
 414 55 l 1,15,-1
 375 29 l 1,16,-1
 332 10 l 1,17,-1
 279 0 l 1,18,-1
 217 2 l 1,19,-1
 166 14 l 1,20,-1
 143 23 l 1,21,-1
 104 49 l 1,22,-1
 55 94 l 1,23,-1
 29 133 l 1,24,-1
 10 176 l 1,25,-1
 0 229 l 1,26,-1
 0 262 l 1,27,-1
 2 291 l 1,28,-1
 8 316 l 2,29,30
 11 328 11 328 16 342 c 2,31,-1
 23 365 l 1,32,-1
 49 404 l 1,33,-1
 94 453 l 1,34,-1
 133 479 l 1,35,-1
 201 504 l 1,36,-1
 229 508 l 1,0,-1
238 449 m 1,37,-1
 195 441 l 1,38,39
 179 436 179 436 162 426 c 0,40,41
 148 419 148 419 131 408 c 1,42,-1
 107 383 l 2,43,44
 96 372 96 372 86 355 c 0,45,46
 78 341 78 341 70 322 c 0,47,48
 64 305 64 305 61 283 c 1,49,-1
 59 236 l 1,50,-1
 66 195 l 1,51,-1
 80 160 l 1,52,53
 88 147 88 147 102 133 c 1,54,55
 110 120 110 120 125 107 c 0,56,57
 136 96 136 96 152 86 c 0,58,59
 166 78 166 78 186 70 c 0,60,61
 203 64 203 64 225 61 c 1,62,-1
 271 59 l 1,63,-1
 312 66 l 1,64,-1
 348 80 l 1,65,66
 361 88 361 88 375 102 c 1,67,68
 388 110 388 110 400 125 c 0,69,70
 411 136 411 136 422 152 c 0,71,72
 430 166 430 166 438 186 c 0,73,74
 444 204 444 204 447 225 c 1,75,-1
 449 271 l 1,76,-1
 441 312 l 1,77,-1
 428 346 l 1,78,-1
 408 375 l 1,79,-1
 385 400 l 1,80,-1
 357 422 l 1,81,-1
 324 438 l 1,82,-1
 285 447 l 1,83,-1
 238 449 l 1,37,-1
EndSplineSet
Validated: 1
EndChar

StartChar: p
Encoding: 112 112 83
Width: 619
Flags: W
LayerCount: 5
Fore
SplineSet
232.5 510 m 5,0,-1
 267.5 510 l 5,1,-1
 275.5 508 l 5,2,3
 293.5 508 293.5 508 312.5 502 c 4,4,5
 328.5 499 328.5 499 346.5 493 c 6,6,-1
 375.5 479 l 5,7,-1
 424.5 442 l 6,8,9
 435.5 432 435.5 432 445.5 418 c 6,10,-1
 480.5 368 l 5,11,-1
 502.5 303 l 5,12,-1
 506.5 264 l 5,13,-1
 504.5 223 l 5,14,-1
 496.5 188 l 6,15,16
 492.5 173 492.5 173 484.5 155 c 5,17,-1
 453.5 100 l 5,18,-1
 410.5 57 l 5,19,-1
 385.5 40 l 6,20,21
 372.5 32 372.5 32 355.5 24 c 6,22,-1
 324.5 12 l 5,23,-1
 289.5 4 l 5,24,-1
 228.5 2 l 5,25,-1
 207.5 6 l 6,26,27
 192.5 8 192.5 8 174.5 14 c 6,28,-1
 142.5 26 l 5,29,-1
 115.5 42 l 6,30,31
 103.5 49 103.5 49 90.5 61 c 6,32,-1
 58.5 88 l 5,33,-1
 58.5 -152 l 6,34,35
 58.5 -169 58.5 -169 47.5 -185 c 5,36,-1
 39.5 -193 l 5,37,38
 27.5 -193 27.5 -193 14.5 -189 c 5,39,40
 3.5 -179 3.5 -179 -1.5 -162 c 5,41,-1
 -1.5 477 l 5,42,-1
 0.5 485 l 5,43,44
 6.5 500 6.5 500 19.5 508 c 5,45,46
 36.5 508 36.5 508 53.5 499 c 5,47,48
 58.5 482 58.5 482 58.5 459 c 6,49,-1
 58.5 422 l 5,50,-1
 105.5 465 l 6,51,52
 116.5 473 116.5 473 133.5 481 c 4,53,54
 145.5 488 145.5 488 162.5 495 c 5,55,-1
 232.5 510 l 5,0,-1
223.5 450 m 5,56,-1
 183.5 440 l 5,57,-1
 150.5 424 l 5,58,-1
 121.5 403 l 5,59,-1
 99.5 377 l 6,60,61
 89.5 365 89.5 365 80.5 348 c 4,62,63
 72.5 333 72.5 333 66.5 313 c 4,64,65
 60.5 295 60.5 295 58.5 272 c 6,66,-1
 58.5 235 l 5,67,-1
 60.5 227 l 5,68,69
 62.5 208 62.5 208 70.5 188 c 4,70,71
 74.5 172 74.5 172 86.5 155 c 4,72,73
 93.5 142 93.5 142 105.5 125 c 5,74,-1
 131.5 102 l 5,75,-1
 160.5 83 l 5,76,-1
 193.5 69 l 5,77,-1
 234.5 61 l 5,78,-1
 265.5 61 l 5,79,-1
 281.5 63 l 6,80,81
 299.5 65 299.5 65 320.5 73 c 5,82,-1
 353.5 88 l 5,83,-1
 381.5 108 l 5,84,-1
 404.5 133 l 5,85,-1
 424.5 163 l 6,86,87
 432.5 178 432.5 178 437.5 198 c 4,88,89
 443.5 216 443.5 216 445.5 239 c 5,90,-1
 445.5 286 l 5,91,92
 441.5 304 441.5 304 433.5 323 c 4,93,94
 429.5 339 429.5 339 418.5 356 c 4,95,96
 411.5 369 411.5 369 398.5 385 c 5,97,-1
 375.5 409 l 5,98,-1
 346.5 428 l 6,99,100
 331.5 436 331.5 436 310.5 442 c 4,101,102
 292.5 448 292.5 448 269.5 450 c 5,103,-1
 223.5 450 l 5,56,-1
EndSplineSet
Validated: 524289
EndChar

StartChar: q
Encoding: 113 113 84
Width: 595
Flags: W
LayerCount: 5
Fore
SplineSet
235 505 m 1,0,-1
 270 505 l 1,1,-1
 278 503 l 1,2,-1
 317 500 l 1,3,4
 330 495 330 495 350 490 c 1,5,6
 362 483 362 483 379 476 c 1,7,-1
 450 419 l 1,8,-1
 450 462 l 2,9,10
 450 479 450 479 459 498 c 1,11,12
 473 502 473 502 489 503 c 1,13,-1
 495 501 l 1,14,15
 506 489 506 489 510 472 c 1,16,-1
 510 -174 l 1,17,-1
 491 -198 l 1,18,19
 474 -198 474 -198 458 -188 c 1,20,21
 451 -171 451 -171 450 -151 c 2,22,-1
 450 83 l 1,23,-1
 415 52 l 1,24,-1
 362 19 l 1,25,-1
 331 7 l 1,26,-1
 295 -0 l 1,27,-1
 213 -0 l 1,28,-1
 178 9 l 2,29,30
 164 13 164 13 149 21 c 0,31,32
 135 27 135 27 120 37 c 1,33,-1
 73 76 l 1,34,-1
 36 125 l 1,35,-1
 20 152 l 1,36,-1
 10 185 l 1,37,-1
 2 251 l 1,38,-1
 2 263 l 2,39,40
 3 280 3 280 8 302 c 0,41,42
 10 317 10 317 16 335 c 0,43,44
 20 349 20 349 30 367 c 2,45,-1
 45 394 l 1,46,-1
 84 441 l 1,47,-1
 108 460 l 1,48,-1
 165 490 l 1,49,-1
 235 505 l 1,0,-1
227 445 m 1,50,-1
 186 435 l 1,51,-1
 153 419 l 1,52,-1
 125 398 l 2,53,54
 115 388 115 388 104 373 c 0,55,56
 94 361 94 361 84 343 c 0,57,58
 75 327 75 327 71 308 c 0,59,60
 65 289 65 289 63 267 c 1,61,-1
 63 220 l 1,62,-1
 73 181 l 1,63,-1
 88 148 l 1,64,-1
 110 121 l 1,65,-1
 163 78 l 1,66,-1
 198 64 l 1,67,-1
 239 56 l 1,68,-1
 270 56 l 1,69,-1
 286 58 l 2,70,71
 304 61 304 61 325 68 c 1,72,-1
 358 83 l 1,73,-1
 385 103 l 1,74,-1
 409 128 l 1,75,-1
 428 158 l 1,76,77
 435 173 435 173 442 193 c 0,78,79
 447 212 447 212 450 234 c 1,80,-1
 450 281 l 1,81,-1
 440 320 l 1,82,83
 434 335 434 335 422 351 c 1,84,85
 415 366 415 366 403 380 c 0,86,87
 394 391 394 391 379 404 c 1,88,-1
 350 423 l 2,89,90
 335 431 335 431 315 437 c 0,91,92
 297 443 297 443 274 445 c 1,93,-1
 227 445 l 1,50,-1
EndSplineSet
Validated: 1
EndChar

StartChar: r
Encoding: 114 114 85
Width: 487
Flags: W
LayerCount: 5
Fore
SplineSet
21 508 m 1,0,1
 34 507 34 507 49 502 c 1,2,3
 56 493 56 493 61 480 c 1,4,-1
 61 449 l 1,5,6
 70 451 70 451 80 457 c 2,7,-1
 176 490 l 1,8,-1
 256 506 l 1,9,-1
 281 506 l 1,10,-1
 287 504 l 1,11,-1
 314 500 l 1,12,-1
 338 490 l 1,13,-1
 357 477 l 1,14,-1
 371 459 l 1,15,-1
 389 412 l 1,16,17
 388 399 388 399 383 385 c 1,18,19
 375 378 375 378 363 373 c 1,20,21
 351 374 351 374 340 379 c 1,22,23
 334 389 334 389 330 402 c 0,24,25
 327 412 327 412 320 424 c 1,26,-1
 305 439 l 1,27,-1
 279 445 l 1,28,-1
 246 445 l 1,29,-1
 121 410 l 1,30,-1
 76 391 l 2,31,32
 67 386 67 386 61 375 c 1,33,-1
 61 29 l 1,34,-1
 59 23 l 1,35,36
 54 13 54 13 45 4 c 1,37,-1
 25 0 l 1,38,-1
 20 2 l 1,39,40
 12 8 12 8 4 18 c 1,41,-1
 0 47 l 1,42,-1
 0 111 l 1,43,-1
 2 143 l 1,44,-1
 2 463 l 2,45,46
 2 477 2 477 6 492 c 1,47,48
 12 500 12 500 21 508 c 1,0,1
EndSplineSet
Validated: 1
EndChar

StartChar: s
Encoding: 115 115 86
Width: 487
Flags: W
LayerCount: 5
Fore
SplineSet
160 508 m 5,0,-1
 236 504 l 5,1,-1
 291 482 l 5,2,3
 298 477 298 477 309 473 c 5,4,5
 315 467 315 467 322 461 c 6,6,-1
 348 434 l 5,7,-1
 355 414 l 5,8,-1
 352 393 l 5,9,-1
 336 383 l 5,10,-1
 318 381 l 5,11,-1
 312 383 l 5,12,13
 306 389 306 389 301 396 c 6,14,-1
 289 410 l 5,15,-1
 258 434 l 5,16,-1
 219 445 l 5,17,-1
 197 449 l 5,18,-1
 172 449 l 5,19,-1
 129 441 l 5,20,-1
 94 424 l 5,21,-1
 68 396 l 5,22,-1
 61 379 l 5,23,-1
 61 354 l 5,24,-1
 68 334 l 5,25,-1
 80 320 l 5,26,-1
 94 309 l 5,27,-1
 129 291 l 5,28,-1
 172 283 l 5,29,-1
 223 281 l 5,30,-1
 244 277 l 5,31,-1
 281 262 l 5,32,-1
 328 230 l 5,33,-1
 352 201 l 5,34,-1
 367 166 l 5,35,-1
 369 141 l 5,36,-1
 359 98 l 5,37,-1
 352 80 l 5,38,-1
 342 64 l 5,39,-1
 299 29 l 5,40,-1
 264 12 l 5,41,-1
 221 2 l 5,42,-1
 172 0 l 5,43,-1
 125 6 l 5,44,-1
 86 20 l 5,45,-1
 27 64 l 5,46,-1
 8 98 l 5,47,-1
 2 117 l 5,48,-1
 0 143 l 5,49,50
 1 152 1 152 6 162 c 5,51,52
 12 169 12 169 21 174 c 5,53,-1
 37 176 l 5,54,-1
 43 174 l 5,55,-1
 57 160 l 5,56,-1
 64 117 l 5,57,-1
 74 102 l 5,58,-1
 88 88 l 5,59,-1
 104 78 l 5,60,-1
 141 64 l 6,61,62
 151 62 151 62 164 61 c 6,63,-1
 188 59 l 5,64,-1
 232 64 l 5,65,-1
 270 80 l 5,66,-1
 285 92 l 5,67,-1
 297 105 l 5,68,-1
 305 123 l 5,69,-1
 309 145 l 5,70,71
 308 154 308 154 303 164 c 6,72,-1
 293 182 l 5,73,-1
 266 205 l 5,74,-1
 229 219 l 5,75,-1
 133 229 l 5,76,-1
 76 250 l 5,77,-1
 62 262 l 5,78,-1
 47 271 l 5,79,-1
 21 299 l 5,80,-1
 4 334 l 5,81,-1
 0 355 l 5,82,-1
 6 402 l 5,83,-1
 14 420 l 5,84,-1
 35 451 l 5,85,-1
 64 475 l 5,86,-1
 80 484 l 5,87,-1
 139 504 l 5,88,-1
 160 508 l 5,0,-1
EndSplineSet
Validated: 1
EndChar

StartChar: t
Encoding: 116 116 87
Width: 373
Flags: W
LayerCount: 5
Fore
SplineSet
111 703 m 5,0,-1
 139 699 l 5,1,-1
 150 682 l 5,2,-1
 152 508 l 5,3,-1
 213 508 l 5,4,5
 223 505 223 505 232 498 c 5,6,-1
 242 479 l 5,7,8
 239 470 239 470 232 459 c 5,9,10
 223 453 223 453 211 449 c 5,11,-1
 152 449 l 5,12,-1
 150 39 l 6,13,14
 150 28 150 28 146 14 c 5,15,-1
 131 0 l 5,16,-1
 104 4 l 5,17,-1
 92 21 l 5,18,-1
 92 449 l 5,19,-1
 20 451 l 5,20,21
 12 457 12 457 4 465 c 5,22,-1
 0 482 l 5,23,-1
 2 488 l 5,24,25
 8 496 8 496 16 504 c 5,26,-1
 43 508 l 5,27,-1
 92 508 l 5,28,-1
 92 664 l 6,29,30
 92 675 92 675 96 689 c 5,31,-1
 111 703 l 5,0,-1
EndSplineSet
Validated: 1
EndChar

StartChar: u
Encoding: 117 117 88
Width: 556
Flags: W
LayerCount: 5
Fore
SplineSet
400 0 m 1,0,-1
 381 0 l 1,1,2
 374 5 374 5 367 14 c 1,3,4
 362 31 362 31 361 53 c 2,5,-1
 361 62 l 1,6,-1
 234 20 l 1,7,-1
 160 4 l 1,8,-1
 119 0 l 1,9,-1
 78 4 l 2,10,11
 62 7 62 7 45 16 c 0,12,13
 33 24 33 24 20 37 c 1,14,15
 11 49 11 49 4 66 c 1,16,17
 1 85 1 85 0 107 c 2,18,-1
 2 488 l 1,19,-1
 12 500 l 1,20,-1
 23 508 l 1,21,-1
 47 504 l 1,22,23
 58 490 58 490 61 471 c 1,24,-1
 61 111 l 1,25,-1
 59 100 l 1,26,-1
 61 96 l 1,27,-1
 61 84 l 1,28,-1
 62 80 l 2,29,30
 62 78 62 78 66 76 c 0,31,32
 78 65 78 65 96 61 c 1,33,-1
 141 61 l 1,34,-1
 283 96 l 1,35,-1
 361 125 l 1,36,-1
 363 490 l 1,37,-1
 375 502 l 1,38,-1
 387 508 l 1,39,-1
 410 504 l 1,40,41
 419 490 419 490 422 471 c 1,42,-1
 422 199 l 1,43,-1
 420 170 l 1,44,-1
 420 25 l 1,45,46
 414 11 414 11 400 0 c 1,0,-1
EndSplineSet
Validated: 1
EndChar

StartChar: v
Encoding: 118 118 89
Width: 514
Flags: W
LayerCount: 5
Fore
SplineSet
25 508 m 1,0,1
 42 508 42 508 57 496 c 1,2,-1
 187 150 l 1,3,-1
 197 129 l 1,4,-1
 318 484 l 1,5,6
 324 495 324 495 337 506 c 1,7,-1
 358 508 l 1,8,-1
 365 506 l 2,9,10
 366 504 366 504 369 502 c 0,11,12
 377 489 377 489 382 473 c 1,13,-1
 271 150 l 2,14,15
 268 136 268 136 261 119 c 2,16,-1
 231 31 l 2,17,18
 225 18 225 18 216 6 c 1,19,-1
 206 0 l 1,20,-1
 185 4 l 1,21,22
 175 13 175 13 166 25 c 1,23,-1
 49 344 l 1,24,-1
 36 371 l 1,25,-1
 17 430 l 1,26,-1
 4 457 l 1,27,-1
 0 484 l 1,28,-1
 2 490 l 1,29,30
 12 500 12 500 25 508 c 1,0,1
EndSplineSet
Validated: 1
EndChar

StartChar: w
Encoding: 119 119 90
Width: 651
Flags: W
LayerCount: 5
Fore
SplineSet
20 508 m 1,0,1
 33 507 33 507 47 502 c 1,2,-1
 61 480 l 1,3,-1
 182 145 l 2,4,5
 184 137 184 137 191 133 c 1,6,-1
 242 311 l 2,7,8
 245 323 245 323 246 336 c 1,9,-1
 195 482 l 1,10,11
 200 492 200 492 209 502 c 1,12,13
 222 506 222 506 236 508 c 1,14,-1
 252 490 l 1,15,-1
 383 129 l 1,16,-1
 393 148 l 1,17,-1
 488 479 l 2,18,19
 491 489 491 489 498 500 c 1,20,21
 509 505 509 505 523 508 c 1,22,23
 534 503 534 503 543 494 c 1,24,25
 546 482 546 482 547 467 c 1,26,-1
 422 35 l 2,27,28
 418 24 418 24 410 12 c 1,29,30
 401 6 401 6 389 2 c 1,31,32
 377 5 377 5 365 14 c 1,33,-1
 285 227 l 1,34,-1
 277 215 l 1,35,-1
 217 12 l 1,36,-1
 195 0 l 1,37,38
 183 3 183 3 172 10 c 1,39,-1
 160 31 l 1,40,-1
 4 465 l 1,41,-1
 0 486 l 1,42,-1
 4 492 l 1,43,-1
 20 508 l 1,0,1
EndSplineSet
Validated: 1
EndChar

StartChar: x
Encoding: 120 120 91
Width: 490
Flags: W
LayerCount: 5
Fore
SplineSet
41 508 m 1,0,1
 61 507 61 507 76 492 c 1,2,-1
 115 434 l 2,3,4
 122 421 122 421 135 406 c 1,5,6
 142 393 142 393 154 377 c 1,7,8
 161 364 161 364 174 348 c 1,9,10
 179 335 179 335 193 328 c 1,11,-1
 291 473 l 2,12,13
 298 488 298 488 312 502 c 1,14,15
 323 506 323 506 338 508 c 1,16,-1
 348 500 l 1,17,-1
 359 484 l 1,18,19
 358 476 358 476 355 467 c 0,20,21
 348 454 348 454 336 438 c 1,22,23
 329 424 329 424 316 408 c 1,24,25
 309 394 309 394 297 379 c 1,26,27
 290 365 290 365 277 350 c 0,28,29
 269 338 269 338 260 320 c 1,30,31
 250 308 250 308 240 291 c 1,32,33
 229 280 229 280 229 264 c 1,34,-1
 365 59 l 2,35,36
 374 45 374 45 379 25 c 1,37,38
 372 8 372 8 354 0 c 1,39,40
 337 2 337 2 322 18 c 1,41,-1
 264 105 l 2,42,43
 257 118 257 118 244 133 c 1,44,45
 237 147 237 147 225 162 c 1,46,47
 218 176 218 176 205 191 c 1,48,49
 200 205 200 205 186 211 c 1,50,-1
 68 35 l 2,51,52
 61 23 61 23 49 8 c 1,53,-1
 39 0 l 1,54,55
 26 1 26 1 12 6 c 1,56,-1
 2 16 l 1,57,-1
 0 33 l 1,58,-1
 2 39 l 1,59,60
 9 53 9 53 21 68 c 2,61,-1
 61 129 l 2,62,63
 69 140 69 140 78 158 c 1,64,65
 88 170 88 170 98 188 c 1,66,67
 108 200 108 200 117 217 c 1,68,69
 127 229 127 229 137 246 c 1,70,71
 147 256 147 256 152 273 c 1,72,-1
 35 447 l 2,73,74
 25 461 25 461 20 480 c 1,75,76
 26 495 26 495 41 508 c 1,0,1
EndSplineSet
Validated: 1
EndChar

StartChar: y
Encoding: 121 121 92
Width: 509
Flags: W
LayerCount: 5
Fore
SplineSet
21 504 m 1,0,1
 33 504 33 504 44 500 c 1,2,3
 50 496 50 496 56 488 c 2,4,-1
 91 426 l 2,5,6
 100 413 100 413 108 395 c 0,7,8
 115 382 115 382 128 365 c 1,9,10
 134 350 134 350 146 334 c 1,11,12
 152 319 152 319 163 303 c 1,13,14
 169 289 169 289 181 271 c 1,15,16
 187 257 187 257 198 240 c 2,17,-1
 216 209 l 2,18,19
 220 201 220 201 228 193 c 1,20,-1
 296 340 l 2,21,22
 301 355 301 355 312 373 c 2,23,-1
 358 475 l 2,24,25
 364 491 364 491 380 502 c 1,26,-1
 399 504 l 1,27,-1
 415 490 l 1,28,29
 417 480 417 480 419 467 c 1,30,-1
 411 453 l 1,31,32
 406 438 406 438 396 420 c 1,33,-1
 382 385 l 1,34,35
 374 371 374 371 366 352 c 1,36,37
 358 338 358 338 351 318 c 1,38,39
 343 304 343 304 335 285 c 1,40,41
 327 272 327 272 319 252 c 2,42,-1
 210 20 l 2,43,44
 204 5 204 5 194 -13 c 1,45,46
 189 -28 189 -28 179 -46 c 1,47,48
 173 -62 173 -62 163 -80 c 1,49,50
 157 -96 157 -96 147 -113 c 2,51,-1
 116 -181 l 1,52,53
 105 -195 105 -195 85 -199 c 1,54,55
 71 -192 71 -192 60 -175 c 1,56,57
 63 -157 63 -157 73 -138 c 1,58,59
 78 -123 78 -123 89 -105 c 1,60,61
 95 -89 95 -89 104 -72 c 1,62,-1
 118 -39 l 1,63,64
 126 -25 126 -25 134 -5 c 1,65,-1
 144 12 l 1,66,-1
 149 29 l 1,67,68
 157 42 157 42 165 62 c 1,69,70
 173 77 173 77 181 96 c 1,71,72
 190 111 190 111 194 129 c 1,73,-1
 17 439 l 2,74,75
 7 455 7 455 1 475 c 1,76,77
 6 491 6 491 21 504 c 1,0,1
EndSplineSet
Validated: 1
EndChar

StartChar: z
Encoding: 122 122 93
Width: 465
Flags: W
LayerCount: 5
Fore
SplineSet
20 508 m 5,0,-1
 334 508 l 5,1,2
 351 506 351 506 363 492 c 5,3,-1
 367 471 l 5,4,-1
 342 430 l 5,5,6
 333 420 333 420 322 404 c 6,7,-1
 86 59 l 5,8,-1
 346 59 l 5,9,-1
 352 55 l 5,10,11
 365 44 365 44 367 25 c 5,12,13
 361 12 361 12 348 0 c 5,14,-1
 33 0 l 5,15,16
 16 2 16 2 4 16 c 5,17,-1
 0 37 l 5,18,-1
 281 449 l 5,19,-1
 21 449 l 5,20,-1
 16 453 l 5,21,22
 3 464 3 464 0 482 c 5,23,24
 6 496 6 496 20 508 c 5,0,-1
EndSplineSet
Validated: 1
EndChar

StartChar: asciitilde
Encoding: 126 126 97
Width: 620
Flags: W
LayerCount: 5
Fore
SplineSet
136 458 m 1,0,-1
 210 453 l 1,1,-1
 263 422 l 1,2,-1
 285 403 l 1,3,-1
 312 389 l 1,4,-1
 343 382 l 1,5,6
 359 383 359 383 376 389 c 1,7,-1
 427 420 l 1,8,-1
 439 425 l 1,9,-1
 457 415 l 1,10,11
 465 402 465 402 466 384 c 1,12,13
 461 369 461 369 451 355 c 1,14,-1
 429 336 l 1,15,-1
 402 322 l 1,16,-1
 373 312 l 2,17,18
 357 308 357 308 337 308 c 1,19,-1
 304 315 l 1,20,-1
 275 327 l 1,21,-1
 228 365 l 1,22,-1
 201 377 l 2,23,24
 187 382 187 382 169 384 c 1,25,-1
 134 382 l 1,26,-1
 103 370 l 1,27,28
 91 363 91 363 80 353 c 1,29,-1
 60 351 l 1,30,-1
 48 360 l 1,31,32
 41 374 41 374 37 391 c 1,33,34
 42 407 42 407 54 420 c 1,35,-1
 78 437 l 1,36,-1
 136 458 l 1,0,-1
EndSplineSet
Validated: 1
EndChar

StartChar: Adieresis
Encoding: 196 196 98
Width: 701
Flags: W
LayerCount: 5
Fore
SplineSet
175.033203125 738.879882812 m 128,-1,1
 175.033203125 764.114257812 175.033203125 764.114257812 192.720703125 781.77734375 c 128,-1,2
 210.408203125 799.44140625 210.408203125 799.44140625 235.677734375 799.44140625 c 128,-1,3
 260.9453125 799.44140625 260.9453125 799.44140625 278.631835938 781.77734375 c 128,-1,4
 296.3203125 764.114257812 296.3203125 764.114257812 296.3203125 738.879882812 c 128,-1,5
 296.3203125 713.645507812 296.3203125 713.645507812 278.631835938 695.981445312 c 128,-1,6
 260.9453125 678.317382812 260.9453125 678.317382812 235.677734375 678.317382812 c 128,-1,7
 210.408203125 678.317382812 210.408203125 678.317382812 192.720703125 695.981445312 c 128,-1,0
 175.033203125 713.645507812 175.033203125 713.645507812 175.033203125 738.879882812 c 128,-1,1
392.033203125 738.879882812 m 4,8,9
 392 764 392 764 409.720703125 781.77734375 c 4,10,11
 427 799 427 799 452.677734375 799.44140625 c 4,12,13
 478 799 478 799 495.631835938 781.77734375 c 4,14,15
 513 764 513 764 513.3203125 738.879882812 c 4,16,17
 513 714 513 714 495.631835938 695.981445312 c 4,18,19
 478 678 478 678 452.677734375 678.317382812 c 4,20,21
 427 678 427 678 409.720703125 695.981445312 c 4,22,23
 392 714 392 714 392.033203125 738.879882812 c 4,8,9
336 703 m 1,24,25
 355 704 355 704 371 688 c 1,26,-1
 438 514 l 2,27,28
 442 499 442 499 451 480 c 1,29,-1
 529 270 l 2,30,31
 534 255 534 255 543 236 c 1,32,-1
 607 61 l 2,33,34
 614 44 614 44 617 21 c 1,35,36
 608 7 608 7 590 0 c 1,37,38
 572 3 572 3 561 20 c 1,39,-1
 547 55 l 2,40,41
 542 70 542 70 533 88 c 1,42,-1
 508 160 l 1,43,-1
 490 162 l 1,44,-1
 154 162 l 1,45,-1
 88 10 l 1,46,47
 78 5 78 5 66 0 c 1,48,-1
 51 2 l 1,49,50
 38 14 38 14 33 33 c 1,51,-1
 62 100 l 2,52,53
 70 115 70 115 76 135 c 1,54,-1
 90 160 l 1,55,-1
 84 162 l 1,56,-1
 37 162 l 2,57,58
 18 163 18 163 4 178 c 1,59,60
 1 188 1 188 0 201 c 1,61,-1
 10 213 l 1,62,63
 28 220 28 220 51 221 c 2,64,-1
 100 221 l 2,65,66
 119 222 119 222 125 242 c 2,67,-1
 154 309 l 2,68,69
 161 324 161 324 168 344 c 1,70,-1
 213 441 l 2,71,72
 219 457 219 457 229 477 c 2,73,-1
 314 676 l 2,74,75
 321 690 321 690 336 703 c 1,24,25
342 594 m 1,76,77
 338 578 338 578 328 562 c 1,78,-1
 266 414 l 2,79,80
 260 403 260 403 252 385 c 2,81,-1
 180 221 l 1,82,-1
 484 221 l 1,83,-1
 436 350 l 2,84,85
 432 365 432 365 424 381 c 1,86,87
 420 396 420 396 412 412 c 1,88,89
 408 427 408 427 400 443 c 0,90,91
 396 457 396 457 389 473 c 1,92,93
 386 488 386 488 377 504 c 1,94,-1
 355 566 l 1,95,-1
 342 594 l 1,76,77
EndSplineSet
Validated: 33
EndChar

StartChar: Odieresis
Encoding: 214 214 103
Width: 806
Flags: W
LayerCount: 5
Fore
SplineSet
105.033203125 738.879882812 m 132,-1,1
 105.033203125 764.114257812 105.033203125 764.114257812 122.720703125 781.77734375 c 132,-1,2
 140.408203125 799.44140625 140.408203125 799.44140625 165.677734375 799.44140625 c 132,-1,3
 190.9453125 799.44140625 190.9453125 799.44140625 208.631835938 781.77734375 c 132,-1,4
 226.3203125 764.114257812 226.3203125 764.114257812 226.3203125 738.879882812 c 132,-1,5
 226.3203125 713.645507812 226.3203125 713.645507812 208.631835938 695.981445312 c 132,-1,6
 190.9453125 678.317382812 190.9453125 678.317382812 165.677734375 678.317382812 c 132,-1,7
 140.408203125 678.317382812 140.408203125 678.317382812 122.720703125 695.981445312 c 132,-1,0
 105.033203125 713.645507812 105.033203125 713.645507812 105.033203125 738.879882812 c 132,-1,1
469.033203125 738.879882812 m 132,-1,9
 469.033203125 764.114257812 469.033203125 764.114257812 486.720703125 781.77734375 c 132,-1,10
 504.408203125 799.44140625 504.408203125 799.44140625 529.677734375 799.44140625 c 132,-1,11
 554.9453125 799.44140625 554.9453125 799.44140625 572.631835938 781.77734375 c 132,-1,12
 590.3203125 764.114257812 590.3203125 764.114257812 590.3203125 738.879882812 c 132,-1,13
 590.3203125 713.645507812 590.3203125 713.645507812 572.631835938 695.981445312 c 132,-1,14
 554.9453125 678.317382812 554.9453125 678.317382812 529.677734375 678.317382812 c 132,-1,15
 504.408203125 678.317382812 504.408203125 678.317382812 486.720703125 695.981445312 c 132,-1,8
 469.033203125 713.645507812 469.033203125 713.645507812 469.033203125 738.879882812 c 132,-1,9
322 703 m 1,16,-1
 406 699 l 2,17,18
 423 697 423 697 443 691 c 2,19,-1
 508 668 l 1,20,-1
 562 635 l 1,21,-1
 629 568 l 1,22,-1
 664 516 l 1,23,-1
 689 453 l 1,24,-1
 703 350 l 1,25,-1
 703 336 l 1,26,-1
 691 260 l 2,27,28
 687 245 687 245 680 227 c 2,29,-1
 668 195 l 1,30,-1
 633 143 l 1,31,-1
 613 119 l 2,32,33
 605 107 605 107 592 96 c 2,34,-1
 516 39 l 1,35,-1
 486 25 l 2,36,37
 472 19 472 19 453 14 c 2,38,-1
 420 4 l 1,39,-1
 316 0 l 1,40,-1
 297 4 l 2,41,42
 280 5 280 5 260 12 c 2,43,-1
 195 35 l 1,44,-1
 141 68 l 1,45,-1
 94 109 l 2,46,47
 87 120 87 120 74 135 c 2,48,-1
 39 188 l 1,49,-1
 14 250 l 1,50,-1
 0 322 l 1,51,-1
 0 367 l 1,52,-1
 4 406 l 2,53,54
 6 423 6 423 12 443 c 0,55,56
 15 459 15 459 21 477 c 0,57,58
 25 491 25 491 35 508 c 0,59,60
 40 520 40 520 51 535 c 2,61,-1
 88 586 l 1,62,-1
 109 609 l 1,63,-1
 158 648 l 1,64,-1
 217 678 l 1,65,-1
 285 697 l 1,66,-1
 322 703 l 1,16,-1
299 641 m 1,67,-1
 242 625 l 1,68,-1
 193 600 l 1,69,-1
 152 568 l 1,70,-1
 102 508 l 1,71,-1
 88 484 l 1,72,-1
 68 432 l 1,73,-1
 59 369 l 1,74,-1
 62 299 l 1,75,-1
 78 242 l 1,76,-1
 104 193 l 1,77,-1
 174 117 l 1,78,-1
 219 90 l 1,79,-1
 271 68 l 1,80,-1
 334 59 l 1,81,-1
 404 62 l 1,82,-1
 434 68 l 1,83,-1
 486 90 l 1,84,-1
 531 119 l 1,85,-1
 586 174 l 1,86,-1
 613 219 l 1,87,-1
 635 271 l 1,88,-1
 645 334 l 1,89,-1
 641 404 l 1,90,-1
 625 461 l 1,91,-1
 600 510 l 1,92,-1
 568 551 l 1,93,-1
 529 586 l 1,94,-1
 461 625 l 1,95,-1
 402 641 l 1,96,-1
 369 645 l 1,97,-1
 299 641 l 1,67,-1
EndSplineSet
Validated: 1
EndChar

StartChar: Udieresis
Encoding: 220 220 104
Width: 646
Flags: W
LayerCount: 5
Fore
SplineSet
116.033203125 738.879882812 m 128,-1,1
 116.033203125 764.114257812 116.033203125 764.114257812 133.720703125 781.77734375 c 128,-1,2
 151.408203125 799.44140625 151.408203125 799.44140625 176.677734375 799.44140625 c 128,-1,3
 201.9453125 799.44140625 201.9453125 799.44140625 219.631835938 781.77734375 c 128,-1,4
 237.3203125 764.114257812 237.3203125 764.114257812 237.3203125 738.879882812 c 128,-1,5
 237.3203125 713.645507812 237.3203125 713.645507812 219.631835938 695.981445312 c 128,-1,6
 201.9453125 678.317382812 201.9453125 678.317382812 176.677734375 678.317382812 c 128,-1,7
 151.408203125 678.317382812 151.408203125 678.317382812 133.720703125 695.981445312 c 128,-1,0
 116.033203125 713.645507812 116.033203125 713.645507812 116.033203125 738.879882812 c 128,-1,1
287.033203125 738.879882812 m 0,8,9
 287 764 287 764 304.720703125 781.77734375 c 0,10,11
 322 799 322 799 347.677734375 799.44140625 c 0,12,13
 373 799 373 799 390.631835938 781.77734375 c 0,14,15
 408 764 408 764 408.3203125 738.879882812 c 0,16,17
 408 714 408 714 390.631835938 695.981445312 c 0,18,19
 373 678 373 678 347.677734375 678.317382812 c 0,20,21
 322 678 322 678 304.720703125 695.981445312 c 0,22,23
 287 714 287 714 287.033203125 738.879882812 c 0,8,9
20 703 m 1,24,25
 31 703 31 703 45 699 c 1,26,-1
 59 682 l 1,27,-1
 61 156 l 1,28,-1
 64 133 l 1,29,-1
 74 113 l 1,30,-1
 88 98 l 1,31,-1
 105 84 l 1,32,-1
 123 74 l 1,33,-1
 168 61 l 1,34,-1
 311 57 l 1,35,-1
 363 62 l 1,36,-1
 387 68 l 1,37,-1
 441 102 l 1,38,-1
 455 117 l 1,39,-1
 463 139 l 1,40,-1
 465 166 l 1,41,-1
 465 664 l 2,42,43
 465 675 465 675 469 689 c 1,44,-1
 484 703 l 1,45,46
 495 703 495 703 510 699 c 1,47,-1
 523 682 l 1,48,-1
 525 156 l 1,49,-1
 516 107 l 1,50,-1
 494 70 l 1,51,-1
 463 43 l 1,52,53
 454 39 454 39 445 31 c 1,54,55
 436 28 436 28 426 21 c 1,56,-1
 359 0 l 1,57,-1
 160 2 l 1,58,-1
 113 14 l 1,59,-1
 94 23 l 2,60,61
 85 28 85 28 74 35 c 2,62,-1
 43 61 l 1,63,-1
 18 94 l 1,64,-1
 8 115 l 1,65,-1
 0 166 l 1,66,-1
 0 664 l 2,67,68
 0 675 0 675 4 689 c 1,69,-1
 20 703 l 1,24,25
EndSplineSet
Validated: 33
EndChar

StartChar: adieresis
Encoding: 228 228 108
Width: 616
Flags: W
LayerCount: 5
Fore
SplineSet
66.033203125 617.879882812 m 132,-1,1
 66.033203125 643.114257812 66.033203125 643.114257812 83.720703125 660.77734375 c 132,-1,2
 101.408203125 678.44140625 101.408203125 678.44140625 126.677734375 678.44140625 c 132,-1,3
 151.9453125 678.44140625 151.9453125 678.44140625 169.631835938 660.77734375 c 132,-1,4
 187.3203125 643.114257812 187.3203125 643.114257812 187.3203125 617.879882812 c 132,-1,5
 187.3203125 592.645507812 187.3203125 592.645507812 169.631835938 574.981445312 c 132,-1,6
 151.9453125 557.317382812 151.9453125 557.317382812 126.677734375 557.317382812 c 132,-1,7
 101.408203125 557.317382812 101.408203125 557.317382812 83.720703125 574.981445312 c 132,-1,0
 66.033203125 592.645507812 66.033203125 592.645507812 66.033203125 617.879882812 c 132,-1,1
309.033203125 617.879882812 m 4,8,9
 309 643 309 643 326.720703125 660.77734375 c 4,10,11
 344 678 344 678 369.677734375 678.44140625 c 4,12,13
 395 678 395 678 412.631835938 660.77734375 c 4,14,15
 430 643 430 643 430.3203125 617.879882812 c 4,16,17
 430 593 430 593 412.631835938 574.981445312 c 4,18,19
 395 557 395 557 369.677734375 557.317382812 c 4,20,21
 344 557 344 557 326.720703125 574.981445312 c 4,22,23
 309 593 309 593 309.033203125 617.879882812 c 4,8,9
230 508 m 1,24,-1
 303 504 l 1,25,-1
 359 486 l 1,26,-1
 385 475 l 1,27,-1
 445 424 l 1,28,-1
 449 449 l 1,29,-1
 449 479 l 1,30,-1
 451 484 l 1,31,32
 457 495 457 495 467 506 c 1,33,-1
 486 508 l 1,34,-1
 496 502 l 1,35,36
 504 491 504 491 510 477 c 1,37,-1
 510 29 l 1,38,39
 505 17 505 17 496 6 c 1,40,-1
 482 0 l 1,41,-1
 467 2 l 1,42,43
 458 11 458 11 451 23 c 1,44,-1
 449 61 l 2,45,46
 449 74 449 74 445 84 c 1,47,-1
 406 49 l 1,48,-1
 359 21 l 1,49,-1
 332 10 l 1,50,-1
 303 4 l 2,51,52
 288 1 288 1 268 0 c 2,53,-1
 230 0 l 2,54,55
 216 1 216 1 199 6 c 2,56,-1
 170 14 l 1,57,-1
 119 39 l 1,58,-1
 78 72 l 1,59,-1
 61 90 l 1,60,-1
 29 135 l 1,61,-1
 8 188 l 1,62,63
 7 202 7 202 2 219 c 1,64,-1
 0 254 l 1,65,-1
 2 289 l 1,66,-1
 18 348 l 1,67,-1
 29 373 l 1,68,-1
 61 418 l 1,69,-1
 98 455 l 1,70,-1
 143 484 l 1,71,-1
 199 502 l 1,72,-1
 230 508 l 1,24,-1
240 449 m 1,73,-1
 197 441 l 1,74,-1
 162 428 l 1,75,-1
 133 408 l 1,76,-1
 107 385 l 1,77,-1
 88 357 l 1,78,-1
 70 324 l 1,79,-1
 62 285 l 1,80,-1
 61 238 l 2,81,82
 62 219 62 219 68 197 c 0,83,84
 72 180 72 180 82 162 c 0,85,86
 89 148 89 148 102 133 c 0,87,88
 112 120 112 120 125 107 c 2,89,-1
 152 86 l 1,90,91
 166 78 166 78 186 70 c 0,92,93
 203 64 203 64 225 61 c 1,94,-1
 271 59 l 1,95,96
 290 61 290 61 312 66 c 1,97,-1
 348 80 l 1,98,-1
 377 100 l 1,99,-1
 402 123 l 1,100,-1
 422 150 l 2,101,102
 430 164 430 164 438 184 c 0,103,104
 444 201 444 201 447 223 c 1,105,-1
 449 270 l 2,106,107
 448 289 448 289 441 311 c 0,108,109
 437 328 437 328 428 346 c 0,110,111
 421 360 421 360 408 375 c 0,112,113
 400 388 400 388 385 400 c 2,114,-1
 357 422 l 1,115,-1
 324 438 l 1,116,-1
 285 447 l 1,117,-1
 240 449 l 1,73,-1
EndSplineSet
Validated: 33
EndChar

StartChar: odieresis
Encoding: 246 246 124
Width: 588
Flags: W
LayerCount: 5
Fore
SplineSet
69.033203125 617.879882812 m 132,-1,1
 69.033203125 643.114257812 69.033203125 643.114257812 86.720703125 660.77734375 c 132,-1,2
 104.408203125 678.44140625 104.408203125 678.44140625 129.677734375 678.44140625 c 132,-1,3
 154.9453125 678.44140625 154.9453125 678.44140625 172.631835938 660.77734375 c 132,-1,4
 190.3203125 643.114257812 190.3203125 643.114257812 190.3203125 617.879882812 c 132,-1,5
 190.3203125 592.645507812 190.3203125 592.645507812 172.631835938 574.981445312 c 132,-1,6
 154.9453125 557.317382812 154.9453125 557.317382812 129.677734375 557.317382812 c 132,-1,7
 104.408203125 557.317382812 104.408203125 557.317382812 86.720703125 574.981445312 c 132,-1,0
 69.033203125 592.645507812 69.033203125 592.645507812 69.033203125 617.879882812 c 132,-1,1
312.033203125 617.879882812 m 4,8,9
 312 643 312 643 329.720703125 660.77734375 c 4,10,11
 347 678 347 678 372.677734375 678.44140625 c 4,12,13
 398 678 398 678 415.631835938 660.77734375 c 4,14,15
 433 643 433 643 433.3203125 617.879882812 c 4,16,17
 433 593 433 593 415.631835938 574.981445312 c 4,18,19
 398 557 398 557 372.677734375 557.317382812 c 4,20,21
 347 557 347 557 329.720703125 574.981445312 c 4,22,23
 312 593 312 593 312.033203125 617.879882812 c 4,8,9
229 508 m 1,24,-1
 291 506 l 1,25,-1
 316 500 l 2,26,27
 328 497 328 497 342 492 c 2,28,-1
 365 484 l 1,29,-1
 404 459 l 1,30,-1
 453 414 l 1,31,-1
 479 375 l 1,32,-1
 498 332 l 1,33,-1
 508 279 l 1,34,-1
 506 217 l 1,35,-1
 494 166 l 1,36,-1
 484 143 l 1,37,-1
 459 104 l 1,38,-1
 414 55 l 1,39,-1
 375 29 l 1,40,-1
 332 10 l 1,41,-1
 279 0 l 1,42,-1
 217 2 l 1,43,-1
 166 14 l 1,44,-1
 143 23 l 1,45,-1
 104 49 l 1,46,-1
 55 94 l 1,47,-1
 29 133 l 1,48,-1
 10 176 l 1,49,-1
 0 229 l 1,50,-1
 0 262 l 1,51,-1
 2 291 l 1,52,-1
 8 316 l 2,53,54
 11 328 11 328 16 342 c 2,55,-1
 23 365 l 1,56,-1
 49 404 l 1,57,-1
 94 453 l 1,58,-1
 133 479 l 1,59,-1
 201 504 l 1,60,-1
 229 508 l 1,24,-1
238 449 m 1,61,-1
 195 441 l 1,62,63
 179 436 179 436 162 426 c 0,64,65
 148 419 148 419 131 408 c 1,66,-1
 107 383 l 2,67,68
 96 372 96 372 86 355 c 0,69,70
 78 341 78 341 70 322 c 0,71,72
 64 305 64 305 61 283 c 1,73,-1
 59 236 l 1,74,-1
 66 195 l 1,75,-1
 80 160 l 1,76,77
 88 147 88 147 102 133 c 1,78,79
 110 120 110 120 125 107 c 0,80,81
 136 96 136 96 152 86 c 0,82,83
 166 78 166 78 186 70 c 0,84,85
 203 64 203 64 225 61 c 1,86,-1
 271 59 l 1,87,-1
 312 66 l 1,88,-1
 348 80 l 1,89,90
 361 88 361 88 375 102 c 1,91,92
 388 110 388 110 400 125 c 0,93,94
 411 136 411 136 422 152 c 0,95,96
 430 166 430 166 438 186 c 0,97,98
 444 204 444 204 447 225 c 1,99,-1
 449 271 l 1,100,-1
 441 312 l 1,101,-1
 428 346 l 1,102,-1
 408 375 l 1,103,-1
 385 400 l 1,104,-1
 357 422 l 1,105,-1
 324 438 l 1,106,-1
 285 447 l 1,107,-1
 238 449 l 1,61,-1
EndSplineSet
Validated: 33
EndChar

StartChar: udieresis
Encoding: 252 252 129
Width: 556
Flags: W
LayerCount: 5
Fore
SplineSet
59.033203125 617.879882812 m 128,-1,1
 59.033203125 643.114257812 59.033203125 643.114257812 76.720703125 660.77734375 c 128,-1,2
 94.408203125 678.44140625 94.408203125 678.44140625 119.677734375 678.44140625 c 128,-1,3
 144.9453125 678.44140625 144.9453125 678.44140625 162.631835938 660.77734375 c 128,-1,4
 180.3203125 643.114257812 180.3203125 643.114257812 180.3203125 617.879882812 c 128,-1,5
 180.3203125 592.645507812 180.3203125 592.645507812 162.631835938 574.981445312 c 128,-1,6
 144.9453125 557.317382812 144.9453125 557.317382812 119.677734375 557.317382812 c 128,-1,7
 94.408203125 557.317382812 94.408203125 557.317382812 76.720703125 574.981445312 c 128,-1,0
 59.033203125 592.645507812 59.033203125 592.645507812 59.033203125 617.879882812 c 128,-1,1
242.033203125 617.879882812 m 0,8,9
 242 643 242 643 259.720703125 660.77734375 c 0,10,11
 277 678 277 678 302.677734375 678.44140625 c 0,12,13
 328 678 328 678 345.631835938 660.77734375 c 0,14,15
 363 643 363 643 363.3203125 617.879882812 c 0,16,17
 363 593 363 593 345.631835938 574.981445312 c 0,18,19
 328 557 328 557 302.677734375 557.317382812 c 0,20,21
 277 557 277 557 259.720703125 574.981445312 c 0,22,23
 242 593 242 593 242.033203125 617.879882812 c 0,8,9
400 0 m 1,24,-1
 381 0 l 1,25,26
 374 5 374 5 367 14 c 1,27,28
 362 31 362 31 361 53 c 2,29,-1
 361 62 l 1,30,-1
 234 20 l 1,31,-1
 160 4 l 1,32,-1
 119 0 l 1,33,-1
 78 4 l 2,34,35
 62 7 62 7 45 16 c 0,36,37
 33 24 33 24 20 37 c 1,38,39
 11 49 11 49 4 66 c 1,40,41
 1 85 1 85 0 107 c 2,42,-1
 2 488 l 1,43,-1
 12 500 l 1,44,-1
 23 508 l 1,45,-1
 47 504 l 1,46,47
 58 490 58 490 61 471 c 1,48,-1
 61 111 l 1,49,-1
 59 100 l 1,50,-1
 61 96 l 1,51,-1
 61 84 l 1,52,-1
 62 80 l 2,53,54
 62 78 62 78 66 76 c 0,55,56
 78 65 78 65 96 61 c 1,57,-1
 141 61 l 1,58,-1
 283 96 l 1,59,-1
 361 125 l 1,60,-1
 363 490 l 1,61,-1
 375 502 l 1,62,-1
 387 508 l 1,63,-1
 410 504 l 1,64,65
 419 490 419 490 422 471 c 1,66,-1
 422 199 l 1,67,-1
 420 170 l 1,68,-1
 420 25 l 1,69,70
 414 11 414 11 400 0 c 1,24,-1
EndSplineSet
Validated: 33
EndChar

StartChar: bullet
Encoding: 8226 8226 135
Width: 350
Flags: W
LayerCount: 5
Fore
SplineSet
372 559 m 0,0,1
 392 559 392 559 410.5 548.5 c 128,-1,2
 429 538 429 538 439.5 519 c 128,-1,3
 450 500 450 500 450 480 c 256,4,5
 450 459 450 459 440 440.5 c 128,-1,6
 430 422 430 422 411 411.5 c 128,-1,7
 392 401 392 401 372 401 c 256,8,9
 351 401 351 401 332 411.5 c 128,-1,10
 313 422 313 422 303 440.5 c 128,-1,11
 293 459 293 459 293 480 c 256,12,13
 293 501 293 501 303.5 519.5 c 128,-1,14
 314 538 314 538 333 548.5 c 128,-1,15
 352 559 352 559 372 559 c 0,0,1
EndSplineSet
Validated: 1
EndChar

StartChar: germandbls
Encoding: 223 223 137
Width: 529
Flags: W
LayerCount: 5
Back
SplineSet
115 301.5 m 25,0,-1
 176.5 313.5 l 1,1,2
 177 275 177 275 245 244 c 0,3,4
 358 193 358 193 352 117 c 0,5,6
 343 6 343 6 129 17 c 0,7,8
 92 19 92 19 96 52 c 0,9,10
 99 78 99 78 131 76 c 0,11,12
 291 66 291 66 292.940429688 117.141601562 c 0,13,14
 294 158 294 158 234 185 c 0,15,16
 116 238 116 238 115 301.5 c 25,0,-1
97.5 346.5 m 1,18,19
 418 395 418 395 380 548 c 0,20,21
 354 650 354 650 52 643 c 1,22,-1
 53 0 l 1,23,-1
 16 0 l 1,24,-1
 -4 21 l 1,25,-1
 -4 665 l 2,26,27
 -4 703 -4 703 36 703.380859375 c 0,28,29
 419 705 419 705 439 564 c 0,30,31
 469 350 469 350 116 302 c 1,32,33
 108 324 108 324 97.5 346.5 c 1,18,19
253 508 m 1,95,-1
 329 504 l 1,96,-1
 384 482 l 1,97,98
 391 477 391 477 401.999023438 473 c 1,99,100
 408 467 408 467 415 461 c 2,101,-1
 441 434.000976562 l 1,102,-1
 448 414 l 1,103,-1
 445 393 l 1,104,-1
 429 383 l 1,105,-1
 410.999023438 381 l 1,106,-1
 405 383 l 1,107,108
 399 389 399 389 394 396 c 2,109,-1
 382 410 l 1,110,-1
 351 434 l 1,111,-1
 312 445 l 1,112,-1
 290 449 l 1,113,-1
 265 449 l 1,114,-1
 222 441 l 1,115,-1
 187 424 l 1,116,-1
 160.999023438 396 l 1,117,-1
 154 379 l 1,118,-1
 154 354 l 1,119,-1
 161 334.000976562 l 1,120,-1
 173 320 l 1,121,-1
 187.000976562 309 l 1,122,-1
 222 291 l 1,123,-1
 265 283 l 1,124,-1
 316.000976562 281 l 1,125,-1
 337 277 l 1,126,-1
 373.999023438 262 l 1,127,-1
 421 230 l 1,128,-1
 445 201 l 1,129,-1
 460 166 l 1,130,-1
 461.999023438 141 l 1,131,-1
 452 98 l 1,132,-1
 445 80 l 1,133,-1
 435 64 l 1,134,-1
 392 29 l 1,135,-1
 357 12 l 1,136,-1
 314 2 l 1,137,-1
 265 0 l 1,138,-1
 218 6.0009765625 l 1,139,-1
 179 20 l 1,140,-1
 120 64 l 1,141,-1
 101 98 l 1,142,-1
 95 117.000976562 l 1,143,-1
 93 143 l 1,144,145
 94 152 94 152 99 162 c 1,146,147
 105 169 105 169 114 174 c 1,148,-1
 130 176 l 1,149,-1
 136 174 l 1,150,-1
 150 160 l 1,151,-1
 157 117 l 1,152,-1
 167 102 l 1,153,-1
 181 88 l 1,154,-1
 197 78 l 1,155,-1
 234 64 l 2,156,157
 240.5 62.375 240.5 62.375 257 61 c 2,158,-1
 281 59 l 1,159,-1
 325 64 l 1,160,-1
 363 80 l 1,161,-1
 378 92 l 1,162,-1
 390 105 l 1,163,-1
 398 123 l 1,164,-1
 402 145 l 1,165,166
 401 155 401 155 396 164 c 2,167,-1
 386 182 l 1,168,-1
 359 204.999023438 l 1,169,-1
 322 219 l 1,170,-1
 226 229 l 1,171,-1
 169 250 l 1,172,-1
 155.000976562 262 l 1,173,-1
 140 271 l 1,174,-1
 114 299 l 1,175,-1
 97 334 l 1,176,-1
 93 355.000976562 l 1,177,-1
 99 402 l 1,178,-1
 107 420 l 1,179,-1
 128 451 l 1,180,-1
 157.000976562 475 l 1,181,-1
 173 484 l 1,182,-1
 232 504 l 1,183,-1
 253 508 l 1,95,-1
EndSplineSet
Fore
SplineSet
138 109 m 2,0,1
 196 104 l 2,2,3
 370.389697648 88.9664053751 370.389697648 88.9664053751 275 307 c 2,4,-1
 247 371 l 25,5,-1
 308 371 l 25,6,-1
 334 308 l 18,7,8
 448.875598558 29.3018087147 448.875598558 29.3018087147 180 49 c 2,9,10
 138.2109375 52.0615234375 l 2,11,12
 102 55 102 55 104.96875 84.7236328125 c 0,13,14
 108 112 108 112 138 109 c 2,0,1
142 426.5625 m 2,15,-1
 280 426.870117188 l 0,16,17
 382.833938539 537.900407388 382.833938539 537.900407388 368 596 c 0,18,19
 356 642 356 642 52 647 c 1,20,-1
 52.965785381 22 l 2,21,22
 53 0 53 0 34 0 c 2,23,-1
 16 0 l 2,24,25
 -4 0 -4 0 -4 21 c 26,26,-1
 -4 665 l 2,27,28
 -4 703 -4 703 36 703.380859375 c 0,29,30
 406 706 406 706 424 604 c 0,31,32
 439 517 439 517 307.727539062 370 c 0,33,-1
 143 370.853515625 l 2,34,35
 110 371 110 371 109.73046875 399 c 0,36,37
 109 426 109 426 142 426.5625 c 2,15,-1
EndSplineSet
Validated: 524325
Layer: 2
SplineSet
35 703 m 1xef
 265.999023438 693 l 1
 363 670.000976562 l 1
 418 645 l 1
 459 605 l 1
 475 580 l 1
 477.666992188 571.333007812 480 561 482 549 c 0
 483.333007812 539.666992188 484 529.333007812 484 518 c 1
 482 512 l 1
 481.333007812 502 479.333007812 491 476 479 c 1
 412 342 l 1
 379 295.000976562 l 1
 359.000976562 273 l 1
 359 265.666992188 362.333007812 259.333007812 369 254 c 2
 391.999023438 235.999023438 l 1
 412 215 l 1
 428 191 l 2
 433.333007812 183 437.666992188 174 441 163.999023438 c 1
 447 131 l 1
 444.999023438 100 l 1
 432 66 l 1
 414 43 l 1
 391 25.0009765625 l 1
 336 0 l 1
 16 0 l 1
 9.3330078125 6 2.6669921875 13 -4 21 c 1
 -4 662 l 2
 -4 673.333984375 -0.6669921875 683.666992188 6 693 c 1
 35 703 l 1xef
55 643 m 1
 55 287 l 1
 289 287 l 1
 297 292.333007812 304.666992188 299.666992188 312 309 c 2
 351 359 l 2
 357 366.333007812 363 376.333007812 369 389 c 1
 375 397 380.333007812 406.666015625 385 417.999023438 c 1
 390.333007812 426.666015625 395.333007812 436.333007812 400 446.999023438 c 2
 414 479 l 2
 417.333007812 489.666992188 420.666992188 502 424 516 c 1
 424 535 l 1
 418 555 l 1
 414 563 408 572 400 582 c 1
 392 588.666992188 383 594.666992188 373 600 c 2
 344 615 l 1
 230 639 l 1xf7
 55 643 l 1
55 229 m 1
 55 59 l 1
 326 59 l 1
 348 68 l 1
 365 80 l 1
 381.000976562 98 l 1
 383.666992188 105.333007812 385.666992188 113.666992188 387 123 c 1
 383 150 l 1
 373 170 l 1
 356.999023438 188 l 1
 322 215 l 1
 303 227 l 1
 55 229 l 1
EndSplineSet
Layer: 3
SplineSet
-4 23 m 30
 -4 667 l 6
 -4 692.333007812 9.3330078125 705.126953125 36 705.380859375 c 4
 310.157226562 706.465820312 457.823242188 660.005859375 479 566 c 4
 493.666992188 499.333007812 433.666992188 446.666992188 299 408 c 28
 225 386.666992188 188.166992188 362.833007812 188.5 336.5 c 4
 188.833007812 314.166992188 211.666992188 292.666992188 257 272 c 4
 331 238 366.666992188 195.666992188 364 145 c 4
 358 45 283.666992188 -1.3330078125 141 6 c 4
 116.333007812 7.3330078125 105.333007812 19 108 41 c 4
 110 58.3330078125 121.666992188 66.3330078125 143 65 c 4
 249.666992188 58.3330078125 303.646484375 85.046875 304.940429688 145.141601562 c 4
 305.646484375 172.380859375 286 195 246 213 c 4
 167.333007812 248.333007812 127.666992188 290 127 338 c 4
 126.333007812 384.666992188 177.5 422.833007812 280.5 452.5 c 4
 382.833007812 482.166992188 429.333007812 514.666992188 420 550 c 4
 401.333007812 618 278.666992188 649.666992188 52 645 c 5
 53 2 l 21
 16 2 l 30
 -4 23 l 30
EndSplineSet
Layer: 4
SplineSet
145 107 m 6
 252 102 l 6
 295.698371894 100.013710368 310.031705227 118.347043702 295 157 c 6
 267 229 l 29
 326 229 l 29
 354 157 l 22
 383.891658477 80.6102061148 349.891658477 44.2768727814 252 48 c 6
 145.2109375 52.0615234375 l 6
 121.736979167 52.6871744792 110.333333333 62.3333333333 111 81 c 132
 111.666666667 99.6666666667 123 108.333333333 145 107 c 6
142 286.5625 m 6
 293 286.870117188 l 4
 389 400.290039063 431 487.666666667 419 549 c 4
 405.666666667 616.333333333 283.333333333 647.666666667 52 643 c 5
 52.965785381 22 l 6
 52.988595127 7.33333333333 46.6666666667 0 34 0 c 6
 16 0 l 6
 2.66666666667 0 -4 7 -4 21 c 30
 -4 665 l 6
 -4 690.333333333 9.33333333333 703.126953125 36 703.380859375 c 4
 359.333333333 704.460286458 508 639.5 482 508.5 c 4
 465.333333333 423.5 413.575846354 330 326.727539062 228 c 4
 143 228.853515625 l 6
 121 228.951171875 109.91015625 238.333333333 109.73046875 257 c 4
 109.243489583 276.333333333 120 286.1875 142 286.5625 c 6
EndSplineSet
EndChar

StartChar: ellipsis
Encoding: 8230 8230 171
Width: 1000
Flags: W
LayerCount: 5
Fore
SplineSet
79 157 m 0,0,1
 99 157 99 157 117.5 147 c 128,-1,2
 136 137 136 137 146.5 118 c 128,-1,3
 157 99 157 99 157 79 c 256,4,5
 157 58 157 58 147 39.5 c 128,-1,6
 137 21 137 21 118 10.5 c 128,-1,7
 99 0 99 0 79 0 c 256,8,9
 58 0 58 0 39.5 10.5 c 128,-1,10
 21 21 21 21 10.5 39.5 c 128,-1,11
 0 58 0 58 0 79 c 256,12,13
 0 100 0 100 10.5 118.5 c 128,-1,14
 21 137 21 137 40 147 c 128,-1,15
 59 157 59 157 79 157 c 0,0,1
372 157 m 0,16,17
 392 157 392 157 410.5 147 c 128,-1,18
 429 137 429 137 439.5 118 c 128,-1,19
 450 99 450 99 450 79 c 256,20,21
 450 58 450 58 440 39.5 c 128,-1,22
 430 21 430 21 411 10.5 c 128,-1,23
 392 0 392 0 372 0 c 256,24,25
 351 0 351 0 332 10.5 c 128,-1,26
 313 21 313 21 303 39.5 c 128,-1,27
 293 58 293 58 293 79 c 256,28,29
 293 100 293 100 303.5 118.5 c 128,-1,30
 314 137 314 137 333 147 c 128,-1,31
 352 157 352 157 372 157 c 0,16,17
665 157 m 0,32,33
 685 157 685 157 703.5 147 c 128,-1,34
 722 137 722 137 732.5 118 c 128,-1,35
 743 99 743 99 743 79 c 256,36,37
 743 58 743 58 733 39.5 c 128,-1,38
 723 21 723 21 704 10.5 c 128,-1,39
 685 0 685 0 665 0 c 256,40,41
 644 0 644 0 625 10.5 c 128,-1,42
 606 21 606 21 596 39.5 c 128,-1,43
 586 58 586 58 586 79 c 256,44,45
 586 100 586 100 596.5 118.5 c 128,-1,46
 607 137 607 137 626 147 c 128,-1,47
 645 157 645 157 665 157 c 0,32,33
EndSplineSet
Validated: 1
EndChar

StartChar: quotedblleft
Encoding: 8220 8220 179
Width: 447
Flags: W
LayerCount: 5
Fore
SplineSet
315 739 m 1,0,-1
 345 711 l 1,1,-1
 353 692 l 1,2,3
 356 679 356 679 356 667 c 1,4,5
 355 653 355 653 353 641 c 1,6,-1
 343 622 l 1,7,-1
 331 606 l 1,8,-1
 298 584 l 1,9,-1
 341 542 l 1,10,11
 347 532 347 532 349 522 c 1,12,13
 343 513 343 513 335 506 c 1,14,15
 323 509 323 509 313 514 c 1,16,-1
 214 612 l 1,17,-1
 204 629 l 1,18,-1
 196 651 l 1,19,-1
 194 668 l 1,20,-1
 196 674 l 1,21,22
 198 687 198 687 202 698 c 2,23,-1
 212 715 l 1,24,-1
 226 731 l 1,25,-1
 245 741 l 1,26,-1
 267 747 l 1,27,-1
 296 747 l 1,28,-1
 315 739 l 1,0,-1
120 737 m 2,29,30
 129 732 129 732 136 725 c 2,31,-1
 149 709 l 1,32,-1
 159 692 l 1,33,-1
 161 665 l 1,34,35
 160 652 160 652 157 641 c 1,36,-1
 147 622 l 1,37,38
 140 613 140 613 134 606 c 2,39,-1
 118 594 l 2,40,41
 110 589 110 589 104 583 c 1,42,-1
 147 542 l 1,43,44
 152 531 152 531 155 520 c 1,45,46
 149 511 149 511 142 504 c 1,47,48
 130 507 130 507 120 512 c 1,49,-1
 34 596 l 1,50,-1
 9 629 l 1,51,-1
 1 649 l 1,52,-1
 1 655 l 1,53,-1
 -1 661 l 1,54,-1
 1 674 l 2,55,56
 3 687 3 687 7 698 c 2,57,-1
 17 715 l 1,58,-1
 30 729 l 1,59,-1
 48 741 l 1,60,-1
 71 747 l 1,61,-1
 101 747 l 1,62,-1
 120 737 l 2,29,30
EndSplineSet
Validated: 1
EndChar

StartChar: quotedblright
Encoding: 8221 8221 180
Width: 465
Flags: W
LayerCount: 5
Fore
SplineSet
60 747 m 1,0,-1
 89 747 l 1,1,-1
 110 741 l 1,2,-1
 130 731 l 1,3,-1
 144 715 l 1,4,-1
 153 698 l 2,5,6
 157 688 157 688 159 674 c 1,7,-1
 161 668 l 1,8,-1
 159 651 l 1,9,-1
 151 629 l 1,10,-1
 142 612 l 1,11,-1
 42 514 l 1,12,13
 33 509 33 509 21 506 c 1,14,15
 14 512 14 512 7 522 c 1,16,17
 9 532 9 532 15 542 c 1,18,-1
 58 584 l 1,19,-1
 24 606 l 1,20,-1
 13 622 l 1,21,-1
 3 641 l 1,22,23
 0 653 0 653 -1 667 c 0,24,25
 0 679 0 679 3 692 c 1,26,-1
 11 711 l 1,27,-1
 40 739 l 1,28,-1
 60 747 l 1,0,-1
255 747 m 1,29,-1
 284 747 l 1,30,-1
 308 741 l 1,31,-1
 325 729 l 1,32,-1
 339 715 l 1,33,-1
 349 698 l 2,34,35
 353 688 353 688 354 674 c 2,36,-1
 356 661 l 1,37,-1
 354 655 l 1,38,-1
 354 649 l 1,39,-1
 347 629 l 1,40,-1
 321 596 l 1,41,-1
 235 512 l 1,42,43
 226 507 226 507 214 504 c 1,44,45
 207 510 207 510 200 520 c 1,46,47
 202 531 202 531 208 542 c 1,48,-1
 251 583 l 1,49,50
 245 589 245 589 237 594 c 2,51,-1
 222 606 l 2,52,53
 215 613 215 613 208 622 c 1,54,-1
 198 641 l 1,55,56
 196 651 196 651 194 665 c 1,57,-1
 196 692 l 1,58,-1
 206 709 l 1,59,-1
 220 725 l 2,60,61
 226 731 226 731 235 737 c 2,62,-1
 255 747 l 1,29,-1
EndSplineSet
Validated: 1
EndChar

StartChar: quoteleft
Encoding: 8216 8216 181
Width: 262
Flags: W
LayerCount: 5
Fore
SplineSet
120 737 m 2,0,1
 129 732 129 732 136 725 c 2,2,-1
 149 709 l 1,3,-1
 159 692 l 1,4,-1
 161 665 l 1,5,6
 160 652 160 652 157 641 c 1,7,-1
 147 622 l 1,8,9
 140 613 140 613 134 606 c 2,10,-1
 118 594 l 2,11,12
 110 589 110 589 104 583 c 1,13,-1
 147 542 l 1,14,15
 152 531 152 531 155 520 c 1,16,17
 149 511 149 511 142 504 c 1,18,19
 130 507 130 507 120 512 c 1,20,-1
 34 596 l 1,21,-1
 9 629 l 1,22,-1
 1 649 l 1,23,-1
 1 655 l 1,24,-1
 -1 661 l 1,25,-1
 1 674 l 2,26,27
 3 687 3 687 7 698 c 2,28,-1
 17 715 l 1,29,-1
 30 729 l 1,30,-1
 48 741 l 1,31,-1
 71 747 l 1,32,-1
 101 747 l 1,33,-1
 120 737 l 2,0,1
EndSplineSet
Validated: 1
EndChar

StartChar: quoteright
Encoding: 8217 8217 182
Width: 262
Flags: W
LayerCount: 5
Fore
SplineSet
60 747 m 1,0,-1
 89 747 l 1,1,-1
 112 741 l 1,2,-1
 130 729 l 1,3,-1
 144 715 l 1,4,-1
 153 698 l 2,5,6
 157 688 157 688 159 674 c 2,7,-1
 161 661 l 1,8,-1
 159 655 l 1,9,-1
 159 649 l 1,10,-1
 151 629 l 1,11,-1
 126 596 l 1,12,-1
 40 512 l 1,13,14
 31 507 31 507 19 504 c 1,15,16
 12 510 12 510 5 520 c 1,17,18
 7 531 7 531 13 542 c 1,19,-1
 56 583 l 1,20,21
 50 589 50 589 42 594 c 2,22,-1
 26 606 l 2,23,24
 19 613 19 613 13 622 c 1,25,-1
 3 641 l 1,26,27
 1 651 1 651 -1 665 c 1,28,-1
 1 692 l 1,29,-1
 11 709 l 1,30,-1
 24 725 l 2,31,32
 30 731 30 731 40 737 c 2,33,-1
 60 747 l 1,0,-1
EndSplineSet
Validated: 1
EndChar

